<svg width="80" height="80" viewBox="0 0 80 80" fill="none" xmlns="http://www.w3.org/2000/svg">
<g id="airbnb">
<g id="Airbnb">
<path id="Path" d="M40 5C20.6953 5 5 20.6953 5 40C5 59.3047 20.6953 75 40 75C59.3047 75 75 59.3047 75 40C75 20.6953 59.3047 5 40 5Z" fill="#FF5A5F"/>
<path id="vector" d="M40 49.2168C37.7053 46.3304 36.3556 43.8003 35.9056 41.6355C35.4557 39.8766 35.6357 38.4785 36.4005 37.4412C37.2104 36.2235 38.4252 35.6372 40 35.6372C41.5747 35.6372 42.7896 36.2235 43.5994 37.4412C44.3643 38.4785 44.5443 39.8766 44.0944 41.6355C43.5994 43.8454 42.2496 46.371 40 49.2168ZM52.562 55.8915C48.7376 57.5602 44.9537 54.8993 41.7142 51.2914C47.0729 44.567 48.0627 39.3354 45.7636 35.9484C44.4138 34.0091 42.4791 33.062 40 33.062C35.0058 33.062 32.2567 37.3014 33.3365 42.2218C33.9664 44.8827 35.6312 47.9089 38.2858 51.2914C36.2946 53.503 33.6824 56.0117 30.547 56.2974C26.0027 56.9739 22.4437 52.5542 24.0635 47.9946L35.5862 24.0827C36.5696 22.2851 37.7834 20.7453 39.9955 20.7453C41.6152 20.7453 42.875 21.6924 43.415 22.4591L55.9275 47.9946C57.1534 51.08 55.5988 54.5771 52.562 55.8915ZM58.3661 47.0926L47.6533 24.7592C45.6286 20.61 44.1888 18.125 40 18.125C35.8606 18.125 34.1014 21.0114 32.3017 24.7592L21.6338 47.0926C19.3392 53.4111 24.0635 58.9583 29.7821 58.9583C30.1421 58.9583 30.4994 58.9132 30.8619 58.9132C33.8314 58.5524 36.8955 56.6582 40 53.2712C43.1045 56.6537 46.1685 58.5524 49.1381 58.9132C49.5006 58.9132 49.8579 58.9583 50.2179 58.9583C55.9365 58.9628 60.6608 53.4111 58.3661 47.0926Z" fill="white"/>
</g>
</g>
</svg>
