<svg width="80" height="80" viewBox="0 0 80 80" fill="none" xmlns="http://www.w3.org/2000/svg">
<path fill-rule="evenodd" clip-rule="evenodd" d="M40 40C40 34.4772 44.4772 30 50 30C55.5228 30 60 34.4772 60 40C60 45.5228 55.5228 50 50 50C44.4772 50 40 45.5228 40 40Z" fill="#1ABCFE"/>
<path fill-rule="evenodd" clip-rule="evenodd" d="M20 60C20 54.4772 24.4772 50 30 50H40V60C40 65.5228 35.5228 70 30 70C24.4772 70 20 65.5228 20 60Z" fill="#0ACF83"/>
<path fill-rule="evenodd" clip-rule="evenodd" d="M40 10V30H50C55.5228 30 60 25.5228 60 20C60 14.4772 55.5228 10 50 10H40Z" fill="#FF7262"/>
<path fill-rule="evenodd" clip-rule="evenodd" d="M20 20C20 25.5228 24.4772 30 30 30H40V10H30C24.4772 10 20 14.4772 20 20Z" fill="#F24E1E"/>
<path fill-rule="evenodd" clip-rule="evenodd" d="M20 40C20 45.5228 24.4772 50 30 50H40V30H30C24.4772 30 20 34.4772 20 40Z" fill="#A259FF"/>
</svg>
