<svg width="80" height="80" viewBox="0 0 80 80" fill="none" xmlns="http://www.w3.org/2000/svg">
<path d="M75.0035 40.7773C75.0035 37.8996 74.7652 35.7996 74.2496 33.6218H40.7178V46.6106H60.4002C60.0035 49.8384 57.8607 54.6996 53.0987 57.9661L53.0319 58.4009L63.634 66.45L64.3686 66.5218C71.1145 60.4162 75.0035 51.4328 75.0035 40.7773Z" fill="#4285F4"/>
<path d="M40.7156 75C50.3583 75 58.4534 71.8888 64.3663 66.5222L53.0964 57.9664C50.0806 60.0275 46.0329 61.4664 40.7156 61.4664C31.2713 61.4664 23.2555 55.361 20.3981 46.922L19.9792 46.9569L8.95505 55.3181L8.81088 55.7108C14.6838 67.1442 26.7473 75 40.7156 75Z" fill="#34A853"/>
<path d="M20.4002 46.9222C19.6462 44.7444 19.2099 42.4109 19.2099 39.9999C19.2099 37.5886 19.6462 35.2554 20.3605 33.0777L20.3405 32.6138L9.17815 24.1184L8.81294 24.2887C6.39241 29.0332 5.00351 34.361 5.00351 39.9999C5.00351 45.6388 6.39241 50.9664 8.81294 55.7109L20.4002 46.9222Z" fill="#FBBC05"/>
<path d="M40.7158 18.5332C47.422 18.5332 51.9458 21.3721 54.5252 23.7445L64.6046 14.1C58.4143 8.46112 50.3585 5 40.7158 5C26.7474 5 14.6838 12.8555 8.81088 24.2887L20.3585 33.0777C23.2556 24.6389 31.2714 18.5332 40.7158 18.5332Z" fill="#EB4335"/>
</svg>
