<svg width="80" height="80" viewBox="0 0 80 80" fill="none" xmlns="http://www.w3.org/2000/svg">
<path d="M46.3986 5.20667L46.3666 20.608L46.3347 36.0094L44.8645 32.434V32.4249L42.9576 66.7112C44.8326 71.2583 45.834 73.6876 45.8446 73.6968C45.8553 73.706 46.9206 73.761 48.2096 73.816C52.1087 73.981 56.9453 74.3385 60.6206 74.7327C61.4729 74.8244 62.1973 74.8702 62.2506 74.8336C62.3038 74.7969 62.3145 59.1205 62.3038 39.988L62.2719 5.20667H46.3986Z" fill="url(#paint0_linear_653_8573)"/>
<path d="M17.6844 5.16054V39.9787C17.6844 59.1295 17.7057 74.8151 17.7376 74.8426C17.7696 74.8701 19.1439 74.7509 20.8058 74.5951C22.4677 74.4392 24.7581 74.2375 25.898 74.155C27.6451 74.0267 32.8865 73.7425 33.4831 73.7333C33.6642 73.7333 33.6749 72.9541 33.6962 58.9829L33.7281 44.2324L34.9959 47.3126C35.1876 47.7894 35.2515 47.936 35.4433 48.4036L37.3502 14.1263C36.9454 13.1454 37.1585 13.6588 36.7004 12.5404C35.145 8.75419 33.824 5.55474 33.7707 5.40806L33.6642 5.15137H17.6844V5.16054Z" fill="url(#paint1_linear_653_8573)"/>
<path d="M17.6844 5.16054L33.7176 44.2596V44.2413L34.9853 47.3216C42.0271 64.4738 45.8091 73.6779 45.8304 73.6962C45.841 73.7054 46.9063 73.7604 48.1954 73.8154C52.0945 73.9804 56.9311 74.338 60.6065 74.7322C61.4481 74.8238 62.1832 74.8697 62.2258 74.833L46.3311 35.9998V36.0089L44.8609 32.4336C43.4227 28.9409 42.4639 26.6032 36.6792 12.5403C35.1238 8.75417 33.8028 5.55473 33.7495 5.40805L33.643 5.15137H25.6637L17.6844 5.16054Z" fill="#E30A17"/>
<defs>
<linearGradient id="paint0_linear_653_8573" x1="69.4632" y1="57.2761" x2="44.0574" y2="68.4334" gradientUnits="userSpaceOnUse">
<stop stop-color="#B20610"/>
<stop offset="0.255959" stop-color="#B20610"/>
<stop offset="1" stop-color="#590004"/>
</linearGradient>
<linearGradient id="paint1_linear_653_8573" x1="9.98016" y1="20.4279" x2="37.4558" y2="8.50096" gradientUnits="userSpaceOnUse">
<stop stop-color="#B20610"/>
<stop offset="0.255959" stop-color="#B20610"/>
<stop offset="1" stop-color="#590004"/>
</linearGradient>
</defs>
</svg>
