<svg width="80" height="80" viewBox="0 0 80 80" fill="none" xmlns="http://www.w3.org/2000/svg">
<path d="M21.1271 49.4815C21.5178 46.2467 22.8445 44.4356 25.3446 42.579C28.9217 40.0646 33.3901 41.4869 33.3901 41.4869V33.049C34.4764 33.0212 35.5631 33.0856 36.6376 33.2414V44.1002C36.6376 44.1002 32.1706 42.6778 28.5934 45.1936C26.0947 47.0489 24.7653 48.8613 24.376 52.0961C24.3638 53.8526 24.6934 56.1486 26.2114 58.1339C25.8361 57.9415 25.4535 57.7222 25.0638 57.476C21.7199 55.2307 21.1109 51.862 21.1271 49.4815ZM55.0876 17.4473C52.6269 14.7508 51.6963 12.0284 51.3599 10.1158H54.4555C54.4555 10.1158 53.8383 15.1305 58.3365 20.0619L58.3989 20.1282C57.1866 19.3656 56.0748 18.4655 55.0876 17.4473ZM69.9999 25.0922V35.7325C69.9999 35.7325 66.0497 35.5778 63.1264 34.8341C59.0446 33.794 56.4211 32.1987 56.4211 32.1987C56.4211 32.1987 54.6088 31.0611 54.4623 30.9818V52.9542C54.4623 54.1776 54.1272 57.2329 53.1058 59.7812C51.7723 63.1147 49.7145 65.3029 49.336 65.7501C49.336 65.7501 46.8332 68.708 42.4177 70.6998C38.4377 72.4966 34.9433 72.451 33.8988 72.4966C33.8988 72.4966 27.8582 72.7358 22.4226 69.2033C21.2472 68.4247 20.15 67.5429 19.1453 66.5692L19.1724 66.5887C24.6093 70.1212 30.6486 69.882 30.6486 69.882C31.6944 69.8365 35.1888 69.882 39.1675 68.0852C43.5789 66.0934 46.0858 63.1355 46.0858 63.1355C46.4602 62.6883 48.5275 60.5002 49.8555 57.1653C50.8743 54.6183 51.2121 51.5617 51.2121 50.3383V28.3685C51.3586 28.4491 53.1695 29.5867 53.1695 29.5867C53.1695 29.5867 55.7944 31.1833 59.8762 32.2221C62.8008 32.9658 66.7496 33.1205 66.7496 33.1205V24.7827C68.1007 25.0857 69.2524 25.1676 69.9999 25.0922Z" fill="#EE1D52"/>
<path d="M66.7511 24.7827V33.1179C66.7511 33.1179 62.8022 32.9632 59.8776 32.2195C55.7958 31.1794 53.1709 29.5841 53.1709 29.5841C53.1709 29.5841 51.36 28.4465 51.2135 28.3659V50.3409C51.2135 51.5643 50.8784 54.6209 49.8569 57.1679C48.5235 60.5028 46.4656 62.6909 46.0872 63.1381C46.0872 63.1381 43.583 66.096 39.1689 68.0878C35.1902 69.8846 31.6958 69.8391 30.65 69.8846C30.65 69.8846 24.6107 70.1238 19.1738 66.5913L19.1467 66.5718C18.5726 66.016 18.0323 65.4291 17.5283 64.814C15.7933 62.6987 14.7298 60.1972 14.4626 59.4835C14.4621 59.4804 14.4621 59.4774 14.4626 59.4744C14.0326 58.234 13.1291 55.2554 13.2526 52.3704C13.471 47.2803 15.2616 44.1561 15.735 43.3734C16.9888 41.2391 18.6196 39.3294 20.5547 37.7295C22.2624 36.3489 24.1979 35.2505 26.282 34.4792C28.5349 33.5736 30.9474 33.0882 33.3901 33.049V41.4869C33.3901 41.4869 28.9217 40.0698 25.346 42.579C22.8459 44.4356 21.5192 46.2467 21.1285 49.4815C21.1123 51.862 21.7213 55.2307 25.0624 57.4773C25.4522 57.7244 25.8348 57.9437 26.2101 58.1352C26.7938 58.8939 27.5042 59.5551 28.3127 60.0919C31.5765 62.1578 34.3112 62.3022 37.8083 60.9604C40.1402 60.0633 41.8955 58.0416 42.7094 55.8015C43.2208 54.4025 43.2141 52.9945 43.2141 51.5383V10.1158H51.3532C51.6896 12.0284 52.6202 14.7508 55.0809 17.4473C56.068 18.4655 57.1798 19.3656 58.3922 20.1282C58.7503 20.4988 60.5816 22.3307 62.9325 23.4553C64.148 24.0366 65.4293 24.482 66.7511 24.7827Z" fill="black"/>
<path d="M11.2232 56.8923V56.8988L11.4251 57.4462C11.4019 57.3825 11.3269 57.1888 11.2232 56.8923Z" fill="#69C9D0"/>
<path d="M26.282 34.4792C24.198 35.2505 22.2624 36.349 20.5548 37.7296C18.6191 39.3331 16.9887 41.2468 15.7364 43.3852C15.263 44.1653 13.4724 47.2921 13.254 52.3822C13.1306 55.2672 14.034 58.2458 14.464 59.4861C14.4636 59.4891 14.4636 59.4922 14.464 59.4952C14.7353 60.2025 15.7948 62.704 17.5298 64.8258C18.0337 65.4409 18.5741 66.0278 19.1481 66.5836C17.3089 65.3645 15.6687 63.8905 14.2809 62.2099C12.5608 60.1128 11.5 57.6373 11.2233 56.9066C11.223 56.9015 11.223 56.8962 11.2233 56.891V56.8819C10.7919 55.6429 9.88578 52.663 10.0119 49.7741C10.2303 44.684 12.0209 41.5598 12.4944 40.7771C13.7463 38.6385 15.3767 36.7247 17.3127 35.1215C19.02 33.7404 20.9556 32.6419 23.04 31.8712C24.3401 31.3542 25.6944 30.9728 27.0797 30.7335C29.1673 30.3843 31.2995 30.354 33.397 30.6438V33.0491C30.952 33.0874 28.5371 33.5728 26.282 34.4792Z" fill="#69C9D0"/>
<path d="M51.3599 10.1159H43.2208V51.5396C43.2208 52.9958 43.2208 54.3999 42.7162 55.8028C41.8941 58.0416 40.1456 60.0634 37.8151 60.9605C34.3166 62.3074 31.5818 62.1579 28.3194 60.092C27.5095 59.5575 26.7973 58.8986 26.2114 58.1418C28.9909 59.5628 31.4787 59.5381 34.5608 58.3524C36.8899 57.4553 38.6412 55.4336 39.4605 53.1934C39.9733 51.7945 39.9665 50.3864 39.9665 48.9316V7.5H51.2053C51.2053 7.5 51.0791 8.52971 51.3599 10.1159ZM66.751 22.4776V24.7828C65.4316 24.4816 64.1526 24.0362 62.9392 23.4553C60.5883 22.3307 58.757 20.4988 58.3989 20.1283C58.8145 20.3898 59.2457 20.6277 59.6903 20.8407C62.5485 22.2085 65.3633 22.6167 66.751 22.4776Z" fill="#69C9D0"/>
</svg>
