<svg width="998" height="660" viewBox="0 0 998 660" fill="none" xmlns="http://www.w3.org/2000/svg">
<path d="M597.991 299.118L596.484 299.155L597.475 339.782L598.982 339.745L597.991 299.118Z" fill="#53CAF1"/>
<path d="M643.918 302.301H642.411V328.077H643.918V302.301Z" fill="#53CAF1"/>
<path d="M513.803 95.1985L512.297 95.2461L514.394 161.629L515.901 161.581L513.803 95.1985Z" fill="#53CAF1"/>
<path d="M593.118 87.3009L591.611 87.3481L593.816 157.678L595.323 157.631L593.118 87.3009Z" fill="#53CAF1"/>
<path d="M731.867 308.797C730.255 309.732 712.218 310.252 684.254 310.512C676.561 310.564 668.14 310.616 659.148 310.668C539.804 311.136 314.162 308.537 297.009 308.797C273.826 309.161 297.009 218.995 297.009 174.718C297.009 130.441 370.611 152.112 580.451 144.992H716.793C716.741 144.992 739.663 304.328 731.867 308.797Z" fill="#53CAF1"/>
<path d="M581.855 158.192C552.695 158.608 549.94 160.427 547.497 192.284C545.002 224.14 538.296 274.446 575.513 273.199C612.73 271.951 610.236 246.383 608.832 211.2C607.429 176.018 606.701 157.829 581.855 158.192Z" fill="white"/>
<path d="M579.672 168.222C565.014 168.586 563.662 170.093 562.415 196.389C561.167 222.685 557.788 264.208 576.501 263.168C595.213 262.181 593.966 241.03 593.238 211.979C592.51 182.929 592.147 167.91 579.672 168.222Z" fill="#53CAF1"/>
<path d="M487.305 160.791C423.994 237.912 404.346 247.734 427.633 253.762C450.919 259.791 464.122 251.424 466.305 263.429C468.488 275.433 465.473 319.399 465.473 319.399H507.473L510.591 160.739H487.305V160.791Z" fill="white"/>
<path d="M487.201 178.616C471.919 196.077 439.224 234.482 439.224 234.482C439.224 234.482 482.679 234.066 488.032 234.066C488.5 230.532 489.488 198.572 487.201 178.616Z" fill="#53CAF1"/>
<path d="M688.724 309.94C688.724 309.94 686.957 310.2 684.254 310.512C676.561 310.564 668.14 310.616 659.148 310.668C657.329 303.288 657.536 264 657.121 256.413C656.653 248.15 645.01 251.372 628.74 249.553C612.471 247.734 615.693 244.979 659.46 177.265C663.41 171.132 664.554 162.609 664.554 162.609C664.554 162.609 691.531 160.791 692.934 160.791C694.338 160.791 688.724 309.94 688.724 309.94Z" fill="white"/>
<path d="M665.022 182.41C647.816 208.446 638.512 229.389 638.512 229.389H665.022V182.41Z" fill="#53CAF1"/>
<path d="M305.326 207.926H264.678V209.433H305.326V207.926Z" fill="#53CAF1"/>
<path d="M298.361 270.808H267.641V272.315H298.361V270.808Z" fill="#53CAF1"/>
<path d="M273.591 172.453L271.238 323.042L272.745 323.066L275.098 172.476L273.591 172.453Z" fill="#53CAF1"/>
<path d="M448.218 133.836L447.238 156.629L448.744 156.694L449.724 133.9L448.218 133.836Z" fill="#53CAF1"/>
<path d="M636.944 132.811L635.441 132.932L637.427 157.693L638.93 157.573L636.944 132.811Z" fill="#53CAF1"/>
<path d="M648.596 280.635L648.555 282.142L679.575 282.985L679.616 281.479L648.596 280.635Z" fill="#53CAF1"/>
<path d="M596.544 156.482L595.037 156.529L598.907 280.672L600.414 280.625L596.544 156.482Z" fill="#53CAF1"/>
<path d="M457.313 188.75V187.243L641.891 182.357V181.734L652.079 182.046V183.553L457.313 188.75Z" fill="#53CAF1"/>
<path d="M665.265 215.298L629.553 217.185L629.633 218.69L665.344 216.803L665.265 215.298Z" fill="#53CAF1"/>
<path d="M586.463 219.402L473.982 225.344L474.062 226.849L586.543 220.907L586.463 219.402Z" fill="#53CAF1"/>
<path d="M405.853 494.948C401.955 554.504 383.138 538.237 381.839 547.332C380.539 556.426 411.051 556.427 412.351 544.11C413.65 531.793 418.692 494.948 418.692 494.948H405.853Z" fill="#93D8F8"/>
<path d="M687.528 494.948C691.427 554.504 710.243 538.237 711.543 547.332C712.842 556.426 682.33 556.427 681.031 544.11C679.732 531.793 674.69 494.948 674.69 494.948H687.528Z" fill="#93D8F8"/>
<path d="M398.056 128.934C397.953 121.97 397.849 115.006 397.745 108.094C397.641 101.494 398.628 93.7511 396.445 87.4109C393.067 77.5889 381.111 75.718 372.171 74.4188C362.347 72.9637 351.899 73.8991 344.674 81.4865C338.072 88.5023 336.617 98.7401 336.409 107.939C336.097 122.022 337.137 136.209 337.605 150.293C338.54 180.383 339.476 210.524 340.412 240.614C341.451 274.705 342.543 308.849 343.582 342.94C343.79 349.696 354.342 349.748 354.134 342.94C352.575 292.271 350.963 241.601 349.404 190.932C348.624 165.364 347.637 139.743 347.013 114.123C346.805 105.756 346.233 94.5826 352.835 88.2424C359.54 81.7984 374.51 83.7732 382.359 87.4629C389.272 90.685 387.141 103.105 387.245 109.601C387.349 116.565 387.453 123.529 387.557 130.441C387.765 144.836 387.973 159.231 388.232 173.627C388.336 180.383 398.888 180.435 398.784 173.627C398.472 158.712 398.264 143.849 398.056 128.934Z" fill="#D2F1FC"/>
<path d="M731.867 376.668C712.375 504.718 714.194 498.014 662.319 505.342C610.443 512.669 404.294 533.613 370.767 495.988C337.241 458.362 339.06 351.047 339.06 351.047L731.867 376.668Z" fill="#D2F1FC"/>
<path d="M339.06 351.047C339.06 351.047 337.241 458.362 370.767 495.988C372.223 497.599 373.99 499.106 376.069 500.561C379.136 489.076 382.775 477.643 388.804 467.405C396.081 455.088 407.049 445.838 419.836 439.602C470.152 415.125 529.46 441.317 575.202 463.975C598.28 475.408 624.686 484.347 638.668 507.524C638.824 507.784 638.98 507.992 639.084 508.252C648.492 507.161 656.393 506.173 662.267 505.342C714.09 498.014 712.271 504.718 731.815 376.668L339.06 351.047Z" fill="#81CEEA"/>
<path d="M544.17 329.272C410.999 332.806 313.902 302.301 317.177 347.617C320.452 392.882 310.627 424.063 451.023 422.14C591.419 420.217 751.515 436.432 763.99 382.644C776.413 328.805 752.138 323.764 544.17 329.272Z" fill="#D2F1FC"/>
<path d="M544.17 329.272C542.299 329.324 540.427 329.376 538.556 329.376C562.103 343.564 588.04 355.204 606.441 375.94C619.02 390.127 624.114 405.822 625.517 422.764C699.588 421.464 756.713 413.877 763.938 382.592C776.413 328.804 752.139 323.764 544.17 329.272Z" fill="#93D8F8"/>
<path d="M544.014 332.494C420.2 335.041 329.912 313.266 332.979 345.591C336.045 377.915 326.897 400.158 457.417 398.806C587.936 397.455 736.753 409.044 748.344 370.587C759.935 332.131 737.324 328.545 544.014 332.494Z" fill="#0000EF"/>
<path d="M673.234 364.767C672.662 360.142 668.92 356.452 664.658 354.581C660.395 352.71 655.665 352.347 651.039 352.035C627.545 350.372 555.397 348.137 543.286 348.813C535.853 357.232 528.42 365.599 520.883 373.913C535.853 374.693 550.823 375.473 565.793 376.252C572.239 376.564 578.736 376.928 585.182 377.239C589.496 377.447 593.81 377.707 598.072 377.915C614.394 378.747 632.379 375.888 648.752 375.888C665.022 375.836 673.91 370.484 673.234 364.767Z" fill="#03036D"/>
<path d="M367.857 360.35C346.285 363 364.218 372.666 386.517 375.005C400.552 376.46 414.69 374.641 428.776 374.485C445.669 374.277 440.16 360.402 427.269 359.102C422.279 358.531 396.757 356.816 367.857 360.35Z" fill="#03036D"/>
<path d="M569.796 115.266C322.479 117.137 285.989 107.315 292.331 116.617C298.62 125.972 412.819 130.805 544.846 125.972C710.659 119.943 772.41 132.52 766.641 117.709C760.871 102.898 707.852 114.227 569.796 115.266Z" fill="#D2F1FC"/>
<path d="M631.027 363.467C602.387 360.141 604.622 364.091 607.065 367.677C609.508 371.211 646.985 370.587 649.064 367.677C651.143 364.767 639.344 364.455 631.027 363.467Z" fill="#0000EF"/>
<path d="M393.274 168.222C364.79 173.938 358.396 191.192 358.396 191.192L436.469 186.099C436.469 186.099 437.665 159.335 393.274 168.222Z" fill="#D2F1FC"/>
<path d="M559.14 371.731L558.464 370.379L579.88 359.882L578.268 362.22C577.073 363.987 577.177 366.534 578.528 368.197C579.88 369.86 582.375 370.483 584.298 369.652L584.87 371.055C582.271 372.146 579.1 371.367 577.333 369.184C576.033 367.573 575.617 365.39 576.085 363.416L559.14 371.731Z" fill="white"/>
<path d="M780.467 522.959C780.467 522.959 761.547 510.798 752.502 522.959C749.332 527.22 738.728 530.806 726.201 533.145C720.223 534.288 713.778 535.119 707.54 535.639C689.712 537.042 673.338 535.691 672.351 530.183C670.323 518.697 686.749 343.2 683.474 277.72C680.199 212.239 672.351 116.617 672.351 116.617C678.536 154.762 717.157 119.943 717.157 119.943C717.157 119.943 725.993 156.789 739.248 125.348C739.248 125.348 753.178 145.148 758.168 124.464C758.168 124.464 769.759 265.663 769.759 337.951C769.811 410.239 780.467 522.959 780.467 522.959Z" fill="#8F8FFF"/>
<path d="M361.203 519.113C361.203 519.113 351.327 506.953 346.597 519.113C344.934 523.375 339.372 526.96 332.823 529.299C329.704 530.442 326.325 531.274 323.051 531.794C313.746 533.197 305.118 531.846 304.65 526.337C303.558 514.852 312.187 339.354 310.472 273.874C308.756 208.394 305.014 116.617 305.014 116.617C309.64 144.524 320.4 132.312 328.612 121.71C328.612 121.71 346.961 141.302 349.56 120.619C349.56 120.619 355.641 261.817 355.641 334.105C355.641 406.394 361.203 519.113 361.203 519.113Z" fill="#8F8FFF"/>
<path d="M323.986 448.904C321.023 414.137 317.541 379.422 316.865 344.499C316.189 309.576 317.385 274.601 317.957 239.679C318.165 228.557 317.385 217.748 317.021 206.679C316.761 198.312 316.293 187.606 321.387 180.383C323.986 176.641 328.872 172.795 333.602 174.614C336.981 175.861 339.008 180.071 341.919 182.253C345.246 184.8 346.389 186.567 349.352 182.149C350.496 180.435 351.223 178.408 351.743 176.381C350.548 143.901 349.56 120.619 349.56 120.619C346.961 141.302 328.612 121.71 328.612 121.71C320.4 132.312 309.64 144.524 305.014 116.617C305.014 116.617 308.756 208.394 310.472 273.874C312.187 339.354 303.61 514.852 304.65 526.337C305.17 531.846 313.746 533.197 323.051 531.794C325.806 531.378 328.56 530.702 331.263 529.819C328.664 502.847 326.273 475.875 323.986 448.904Z" fill="#0000EF"/>
<path d="M703.798 193.427C704.941 204.548 704.214 221.698 709.879 233.443C710.295 227.05 710.399 220.606 710.711 214.214C711.283 202.417 711.283 188.23 717.312 177.628C721.783 169.781 731.035 166.611 739.04 171.652C748.292 177.524 749.644 191.452 750.423 201.274C751.411 213.85 750.631 226.427 749.955 239.003C748.864 258.232 747.98 277.512 747.46 296.74C746.213 345.279 748.448 393.194 755.777 441.265C758.948 462 762.222 482.632 764.977 503.419C765.601 508.252 766.329 513.085 767.264 517.918C774.282 519.009 780.519 523.011 780.519 523.011C780.519 523.011 769.811 410.239 769.811 337.951C769.811 265.663 758.22 124.465 758.22 124.465C753.23 145.148 739.3 125.348 739.3 125.348C726.045 156.737 717.209 119.943 717.209 119.943C717.209 119.943 707.384 128.778 696.885 132.676C699.224 152.891 701.667 173.159 703.798 193.427Z" fill="#0000EF"/>
<path d="M726.357 395.012C725.941 427.805 726.097 493.285 726.253 533.197C720.275 534.34 713.83 535.172 707.592 535.691C710.711 409.512 702.343 300.69 711.595 295.96C721.263 290.972 726.929 345.902 726.357 395.012Z" fill="#0000EF"/>
<path d="M671.92 106.768L670.43 107.001L673.671 127.64L675.161 127.406L671.92 106.768Z" fill="#0000EF"/>
<path d="M715.077 130.077L713.622 129.765C715.493 121.606 713.362 112.46 708.06 105.964L709.204 105.028C714.818 111.888 717.053 121.502 715.077 130.077Z" fill="#0000EF"/>
<path d="M738.676 134.494L737.221 134.027C740.08 124.776 738.624 114.382 733.27 106.275L734.518 105.444C740.131 113.967 741.639 124.828 738.676 134.494Z" fill="#0000EF"/>
<path d="M757.44 133.975L756.037 133.403C759.26 125.764 757.544 116.254 751.879 110.225L752.97 109.186C759.104 115.63 760.923 125.816 757.44 133.975Z" fill="#0000EF"/>
<path d="M305.742 125.192C303.87 119.424 304.702 114.746 305.534 109.809L305.69 108.874L307.197 109.134L307.041 110.069C306.157 115.006 305.43 119.32 307.197 124.724L305.742 125.192Z" fill="#0000EF"/>
<path d="M328.56 126.439C327.157 120.879 327.157 114.954 328.508 109.394L329.964 109.757C328.664 115.11 328.716 120.775 330.016 126.075L328.56 126.439Z" fill="#0000EF"/>
<path d="M348.676 128.674C347.741 122.749 347.689 116.773 348.624 110.849L350.132 111.057C349.248 116.825 349.248 122.645 350.184 128.414L348.676 128.674Z" fill="#0000EF"/>
<path d="M234.374 550.294C231.203 550.294 228.136 549.775 225.745 547.8C222.003 544.682 221.899 539.693 221.743 534.912C221.691 532.313 221.587 529.663 220.963 527.272C219.976 523.531 217.013 520.257 213.063 518.49C209.112 516.723 204.694 516.723 201.263 518.438L200.588 517.087C204.486 515.112 209.268 515.112 213.686 517.087C218.105 519.061 221.275 522.595 222.419 526.857C223.095 529.403 223.146 532.157 223.25 534.808C223.354 539.485 223.51 543.902 226.733 546.605C229.592 548.995 233.854 548.891 237.961 548.579L304.026 543.539L304.13 545.046L238.065 550.087C236.869 550.242 235.57 550.294 234.374 550.294Z" fill="#0000EF"/>
<path d="M210.619 513.552C210.464 509.135 206.981 505.601 202.563 505.289C198.56 504.978 195.701 504.926 193.57 505.03C194.35 513.397 195.494 521.66 196.689 529.974C196.897 530.026 197.105 530.078 197.313 530.078C202.355 530.39 208.488 529.611 209.684 524.05C210.516 520.204 210.723 516.567 210.619 513.552Z" fill="#0000EF"/>
<path d="M197.127 510.791L189.929 511.419L190.06 512.92L197.258 512.292L197.127 510.791Z" fill="#F4A914"/>
<path d="M197.129 520.469L189.931 521.09L190.06 522.591L197.259 521.97L197.129 520.469Z" fill="#F4A914"/>
<path d="M226.421 423.023C249.292 517.918 261.507 544.058 261.507 544.058L367.493 533.82L354.55 425.882L226.421 423.023Z" fill="#03036D"/>
<path d="M357.253 520.672L274.71 528.675C274.71 528.675 267.953 514.332 255.27 465.897C252.879 456.699 250.228 446.201 247.369 434.404L347.169 436.639L348.312 446.045L357.253 520.672Z" fill="#0000EF"/>
<path d="M267.225 534.652C271.019 559.649 270.967 556.375 291.915 556.375C312.915 556.375 409.96 564.534 416.093 553.776C422.175 543.019 424.722 534.652 424.722 534.652L323.726 532.261L267.225 534.652Z" fill="#03036D"/>
<path d="M348.26 446.045L329.132 449.164L325.078 517.762L310.575 493.025C294.878 493.233 279.232 494.48 263.586 496.039C270.863 520.568 274.658 528.675 274.658 528.675L357.201 520.672L348.26 446.045Z" fill="#FE7EB2"/>
<path d="M367.466 532.448L270.95 533.485L270.967 534.992L367.482 533.955L367.466 532.448Z" fill="#0000EF"/>
<path d="M263.43 450.775L267.225 460.752L306.625 455.088L309.9 444.486L263.43 450.775Z" fill="white"/>
<path d="M270.967 466.885L302.311 462.312V466.885L270.967 473.537V466.885Z" fill="white"/>
<path d="M503.314 248.254C465.577 243.213 471.295 295.961 471.295 295.961C471.295 295.961 445.461 315.969 426.541 292.531C407.621 269.093 390.883 241.602 398.16 291.024C405.438 340.394 408.348 362.74 431.635 373.03C454.922 383.32 448.32 361.805 448.32 361.805C448.32 361.805 490.995 380.098 520.104 374.381C549.212 368.665 569.588 356.296 548.484 309.732C527.381 263.117 521.559 250.696 503.314 248.254Z" fill="#FFD939"/>
<path d="M538.92 288.841C531.799 291.699 525.873 297 522.755 304.12C518.804 313.11 518.544 323.296 511.943 331.091C505.446 338.627 495.362 342.472 486.005 344.915C476.649 347.409 466.513 349.488 456.793 348.864C437.457 347.669 424.774 336.236 416.041 319.71C407.465 303.392 400.396 286.918 396.601 269.197C396.185 273.51 396.653 280.526 398.212 290.972C405.49 340.342 408.4 362.688 431.687 372.978C454.974 383.268 448.372 361.753 448.372 361.753C448.372 361.753 491.047 380.046 520.156 374.329C549.264 368.613 569.64 356.244 548.536 309.68C544.898 301.781 541.727 294.869 538.92 288.841Z" fill="#F4A914"/>
<path d="M547.497 275.381C550.356 273.562 554.046 271.276 556.853 273.199C559.92 275.329 544.43 287.334 538.712 290.556C531.539 294.558 517.089 301.625 518.96 289.049C520.519 278.344 540.116 280.059 547.497 275.381Z" fill="#E04136"/>
<path d="M500.923 287.958C516.361 277.72 501.807 255.841 485.901 266.131C469.372 276.785 485.797 297.988 500.923 287.958Z" fill="white"/>
<path d="M498.48 284.528C509.032 277.512 499.104 262.545 488.188 269.561C476.909 276.837 488.136 291.336 498.48 284.528Z" fill="#03036D"/>
<path d="M469.476 309.161C471.607 308.849 473.79 308.537 475.869 309.109C479.56 310.148 482.055 313.89 482.523 317.683C482.99 321.477 481.847 325.323 480.339 328.857C475.973 338.886 468.124 347.617 457.936 351.567C447.749 355.568 435.326 354.165 427.113 346.994C419.212 340.03 414.066 323.608 424.618 316.852C435.585 309.888 457.001 310.979 469.476 309.161Z" fill="#F4A914"/>
<path d="M440.887 354.737C438.704 354.737 436.417 354.477 434.182 353.749C428.568 352.035 423.734 347.773 421.239 342.42C418.796 337.068 418.744 330.623 421.083 325.219L422.487 325.842C420.304 330.831 420.356 336.808 422.643 341.797C424.93 346.786 429.4 350.683 434.65 352.294C439.848 353.905 446.189 353.334 452.479 350.683C458.196 348.293 463.342 344.551 468.28 340.913L469.164 342.109C464.122 345.798 458.924 349.592 453.05 352.035C449.88 353.438 445.565 354.737 440.887 354.737Z" fill="white"/>
<path d="M482.731 262.129L481.483 261.298C485.537 255.321 494.478 253.45 500.559 257.296L499.78 258.595C494.27 255.113 486.317 256.776 482.731 262.129Z" fill="#0000EF"/>
<path d="M367.441 196.445L365.936 196.531L369.061 251.425L370.566 251.34L367.441 196.445Z" fill="white"/>
<path d="M375.911 199.678L374.413 199.853L376.39 216.836L377.888 216.661L375.911 199.678Z" fill="white"/>
<path d="M398.212 243.732C394.262 228.453 392.91 212.759 394.158 197.064L395.665 197.168C394.418 212.707 395.717 228.246 399.668 243.316L398.212 243.732Z" fill="white"/>
<path d="M418.537 194.497L417.031 194.569L417.687 208.274L419.193 208.202L418.537 194.497Z" fill="white"/>
<path d="M433.987 195.143L432.484 195.252L438.483 278.237L439.987 278.129L433.987 195.143Z" fill="white"/>
<path d="M426.815 263.127L425.309 263.2L425.968 276.903L427.474 276.831L426.815 263.127Z" fill="white"/>
<path d="M385.01 284.164H383.502C383.502 279.383 382.983 275.381 382.411 271.535C381.735 266.754 381.111 262.233 381.787 257.14L383.294 257.348C382.671 262.233 383.242 266.65 383.918 271.328C384.438 275.225 385.01 279.279 385.01 284.164Z" fill="white"/>
<path d="M391.819 294.505H390.312V304.951H391.819V294.505Z" fill="white"/>
<path d="M383.258 339.195L381.753 339.289L383.52 367.558L385.024 367.464L383.258 339.195Z" fill="white"/>
<path d="M434.962 226.092L433.463 226.252L436.251 252.295L437.749 252.134L434.962 226.092Z" fill="#53CAF1"/>
</svg>
