<svg width="173" height="173" viewBox="0 0 173 173" fill="none" xmlns="http://www.w3.org/2000/svg">
<g clip-path="url(#clip0_680_11076)">
<path fill-rule="evenodd" clip-rule="evenodd" d="M98.0713 111.651C114.072 110.377 130.668 106.297 143.49 96.657C148.156 93.1501 151.761 88.8062 155.493 84.3922C155.755 84.0831 155.717 83.6175 155.406 83.3537C155.095 83.091 154.629 83.1296 154.366 83.4414C150.706 87.7696 147.179 92.039 142.604 95.4781C129.964 104.981 113.585 108.958 97.8142 110.193L97.7757 109.952C97.364 107.333 94.8783 104.736 91.3778 102.589C86.3605 99.5103 79.298 97.2882 74.0234 96.9531C71.6531 96.803 69.6308 97.0425 68.2651 97.705C67.2 98.2209 66.4989 98.991 66.2289 100.004C65.6549 102.164 67.0961 104.276 69.8124 106.046C75.4925 109.749 86.7041 112.202 91.7993 112.014C93.3903 111.956 94.9935 111.872 96.6029 111.76C96.6879 112.218 96.7692 112.668 96.8285 113.108C96.9938 114.364 96.9766 115.567 96.2674 116.845C95.1598 118.835 93.2369 120.304 91.0162 121.417C87.5493 123.153 83.3511 124.012 80.1556 124.483C62.3591 127.108 48.4885 120.622 37.74 112.047C26.8866 103.386 19.1946 92.5978 13.8525 86.7565C13.5783 86.4555 13.1123 86.4365 12.8113 86.7107C12.5103 86.9848 12.4897 87.4519 12.7655 87.7518C18.1416 93.6312 25.8947 104.482 36.8217 113.199C47.8538 122.004 62.1018 128.636 80.3701 125.943C83.6988 125.452 88.0662 124.544 91.676 122.736C94.1745 121.484 96.31 119.801 97.5563 117.561C98.6738 115.551 98.4354 113.701 98.0713 111.651ZM96.3378 110.3L96.3199 110.18C95.9603 107.891 93.6681 105.723 90.6068 103.846C85.7857 100.888 79.0005 98.7474 73.9292 98.426C72.1906 98.3147 70.662 98.4164 69.5043 98.7934C68.5498 99.1055 67.8634 99.5953 67.6553 100.383C67.4553 101.126 67.6507 101.844 68.1082 102.531C68.6438 103.338 69.5198 104.095 70.6165 104.811C76.0749 108.368 86.8489 110.721 91.7448 110.541C93.2653 110.484 94.7974 110.405 96.3378 110.3Z" fill="#D1D5DB"/>
<path fill-rule="evenodd" clip-rule="evenodd" d="M155.819 81.4593C155.938 81.7596 155.974 82.2106 156.007 82.6961C156.087 83.8524 156.002 85.194 155.988 85.8281C155.98 86.236 156.304 86.5716 156.711 86.5807C157.119 86.5889 157.455 86.2661 157.463 85.8581C157.48 85.0815 157.589 83.2933 157.419 81.9803C157.327 81.2761 157.138 80.6929 156.878 80.3555C156.434 79.78 155.708 79.7126 154.77 80.3539C153.662 81.1131 151.937 83.0365 149.745 83.4952C149.347 83.5777 149.091 83.9709 149.175 84.3676C149.258 84.767 149.649 85.0225 150.048 84.939C152.138 84.5006 153.883 82.9252 155.109 81.944C155.342 81.7578 155.64 81.5686 155.819 81.4593Z" fill="#D1D5DB"/>
</g>
<defs>
<clipPath id="clip0_680_11076">
<rect width="125.057" height="125.057" fill="white" transform="translate(0 68.1157) rotate(-33.0027)"/>
</clipPath>
</defs>
</svg>
