<svg width="639" height="512" viewBox="0 0 639 512" fill="none" xmlns="http://www.w3.org/2000/svg">
<path d="M430.526 341.832C429.262 333.605 428.03 325.378 427.132 317.118C426.433 310.557 425.834 303.962 425.002 297.4H403.269C284.122 298.766 279.429 296.301 279.429 305.76C279.429 315.22 281.593 373.707 284.987 374.573C287.45 375.206 383.899 373.041 435.485 371.842C433.755 361.85 432.057 351.857 430.526 341.832Z" fill="#FFD939"/>
<path d="M430.526 341.832C429.262 333.605 428.03 325.378 427.132 317.118C426.433 310.557 425.834 303.962 425.002 297.4H403.269C395.481 297.5 388.192 297.567 381.37 297.633C378.474 303.662 374.547 309.224 370.054 314.287C355.444 330.807 336.44 342.731 322.296 359.784C318.535 364.314 315.14 369.244 312.311 374.44C345.293 373.907 400.606 372.674 435.452 371.842C433.755 361.85 432.057 351.857 430.526 341.832Z" fill="#F4A914"/>
<path d="M349.786 348.194L349.553 348.027C349.42 347.927 334.543 338.634 284.189 303.795L284.688 303.096C331.548 335.504 347.656 345.795 349.786 347.128L417.014 297.367L417.513 298.066L349.786 348.194Z" fill="white"/>
<path d="M286.418 325.378C290.246 322.98 294.539 321.148 298.067 318.284C301.628 315.353 304.257 311.456 306.287 307.359C307.785 304.361 308.983 301.264 310.148 298.133C281.227 298.599 279.429 299.898 279.429 305.727C279.429 309.158 279.729 319.017 280.228 330.241C282.059 328.476 284.122 326.844 286.418 325.378Z" fill="#F4A914"/>
<path d="M264.619 301.597C266.217 301.097 268.18 301.963 268.779 303.562C267.515 302.063 266.25 300.531 265.618 298.666C264.985 296.801 265.185 294.536 266.616 293.204C268.713 291.205 272.141 292.104 274.77 293.304C279.296 295.402 283.59 298.033 287.483 301.164C289.447 302.763 291.51 304.928 291.078 307.426C290.645 309.957 287.883 311.356 285.387 311.989C279.33 313.588 272.307 313.421 266.416 311.189C262.988 309.924 259.394 303.229 264.619 301.597Z" fill="#FFB0D8"/>
<path d="M290.445 292.537C291.011 293.47 292.276 294.003 293.474 293.936C294.705 293.87 295.837 293.237 296.436 292.338C297.102 291.405 297.202 290.206 296.669 289.24C296.137 288.274 294.938 287.575 293.674 287.541C291.011 287.508 289.281 290.606 290.445 292.537Z" fill="#53CAF1"/>
<path d="M300.097 291.538C300.663 292.471 301.927 293.004 303.126 292.937C304.324 292.871 305.489 292.238 306.088 291.338C306.753 290.406 306.853 289.207 306.321 288.241C305.788 287.275 304.59 286.575 303.325 286.542C300.663 286.542 298.932 289.606 300.097 291.538Z" fill="#53CAF1"/>
<path d="M309.782 290.972C310.348 291.905 311.612 292.438 312.81 292.371C314.042 292.304 315.173 291.671 315.772 290.772C316.438 289.84 316.538 288.641 316.005 287.675C315.473 286.709 314.275 286.009 313.01 285.976C310.348 285.976 308.617 289.074 309.782 290.972Z" fill="#53CAF1"/>
<path d="M285.586 372.674L284.887 372.141C296.602 356.687 310.414 342.998 325.99 331.407L326.489 332.106C311.013 343.631 297.235 357.286 285.586 372.674Z" fill="white"/>
<path d="M345.093 361.383C345.226 359.218 345.326 357.053 345.459 354.922C338.737 354.888 332.047 354.822 325.324 354.788C321.896 354.755 314.741 353.056 314.142 358.186C313.543 363.315 321.563 361.35 324.725 361.35C331.515 361.35 338.304 361.35 345.093 361.383Z" fill="white"/>
<path d="M340.367 181.858C345.127 178.96 350.485 167.236 349.786 161.074C349.087 154.913 349.653 155.046 350.918 155.312C352.182 155.612 352.482 162.507 353.048 162.607C353.613 162.706 356.742 166.37 356.176 169.068C355.61 171.766 356.842 187.92 341.199 191.55C325.524 195.181 340.367 181.858 340.367 181.858Z" fill="#F4A914"/>
<path d="M351.716 165.937C351.25 160.641 353.979 158.876 355.044 160.109C356.076 161.341 354.445 164.472 354.545 166.337C354.645 168.202 351.883 167.969 351.716 165.937Z" fill="#FFD939"/>
<path d="M325.025 202.009C330.915 200.577 336.84 199.178 342.764 197.779C342.897 193.749 343.23 189.718 343.13 185.688C342.997 179.76 341.798 173.565 338.071 168.935C334.343 164.305 327.621 161.741 322.229 164.239C317.303 166.537 314.874 172.099 313.41 177.328C311.712 183.357 310.747 189.585 310.448 195.847C310.348 198.445 309.848 202.508 310.414 205.872C315.14 204.074 320.265 203.175 325.025 202.009Z" fill="#FFD939"/>
<path d="M320.132 194.615C316.438 191.251 332.746 175.363 340.9 173.731C340.168 171.999 339.269 170.367 338.104 168.902C334.377 164.272 327.654 161.707 322.262 164.205C317.337 166.503 314.907 172.066 313.443 177.295C311.745 183.324 310.78 189.552 310.481 195.814C310.381 198.412 309.882 202.475 310.448 205.839C312.411 205.073 331.448 199.477 333.511 198.945C333.744 193.615 324.292 198.412 320.132 194.615Z" fill="#F4A914"/>
<path d="M320.132 194.615C320.033 194.515 319.966 194.415 319.899 194.315C316.804 194.348 313.709 194.248 310.581 194.048C310.547 194.648 310.514 195.214 310.481 195.814C310.381 198.412 309.882 202.475 310.448 205.839C312.411 205.073 331.448 199.477 333.511 198.945C333.744 193.615 324.293 198.412 320.132 194.615Z" fill="#03036D"/>
<path d="M324.659 160.308C316.538 161.074 310.181 167.369 309.549 176.429C308.883 185.921 314.94 187.787 318.102 187.22C324.625 186.088 325.358 180.726 326.655 174.83C326.655 174.83 343.596 171.733 345.326 171.1C347.057 170.467 339.702 169.001 339.702 169.001C339.702 169.001 337.305 159.076 324.659 160.308Z" fill="#0000EF"/>
<path d="M323.194 160.508C315.772 161.84 310.148 167.902 309.549 176.429C308.883 185.922 314.94 187.787 318.102 187.22C319.633 186.954 320.831 186.454 321.796 185.788C318.868 178.294 319.833 168.535 323.194 160.508Z" fill="#0000D8"/>
<path d="M318.468 182.957C319.833 182.924 321.697 181.891 322.162 180.592C323.76 175.996 317.869 173.498 315.473 175.963C313.11 178.394 315.04 183.057 318.468 182.957Z" fill="#F4A914"/>
<path d="M337.305 181.758C337.871 181.725 338.637 181.325 338.803 180.792C339.435 178.927 337.039 177.894 336.074 178.894C335.142 179.893 335.908 181.791 337.305 181.758Z" fill="#03036D"/>
<path d="M334.809 178.394L333.977 178.128C334.343 177.028 335.242 176.096 336.374 175.763C337.472 175.43 338.737 175.663 339.668 176.396L339.136 177.062C338.437 176.496 337.472 176.329 336.64 176.595C335.808 176.862 335.076 177.561 334.809 178.394Z" fill="#E04136"/>
<path d="M339.402 189.019C338.87 189.019 338.304 188.886 337.838 188.653C336.873 188.153 336.141 187.22 335.941 186.155L336.806 185.988C336.939 186.787 337.505 187.52 338.237 187.887C338.97 188.253 339.868 188.253 340.6 187.887L340.966 188.653C340.467 188.886 339.935 189.019 339.402 189.019Z" fill="white"/>
<path d="M334.177 169.068C332.946 166.304 330.516 164.139 327.621 163.306C324.725 162.44 321.497 162.94 318.967 164.572L318.502 163.839C321.231 162.04 324.725 161.541 327.854 162.44C330.982 163.373 333.645 165.704 334.976 168.702L334.177 169.068Z" fill="#A8E4F4"/>
<path d="M317.204 173.664C315.173 172.865 312.81 172.965 310.847 173.864C310.015 174.231 309.249 174.764 308.75 175.53C308.251 176.262 308.018 177.262 308.317 178.094C308.817 179.493 310.447 180.059 311.912 180.326C313.543 180.626 315.207 180.792 316.871 180.792C318.535 180.792 321.597 180.426 321.697 178.194C321.763 176.196 318.734 174.264 317.204 173.664Z" fill="#F4A914"/>
<path d="M301.495 231.519C314.841 250.471 321.697 257.332 323.227 255.766C324.792 254.201 380.837 196.646 380.837 196.646L301.495 231.519Z" fill="#3DB5C9"/>
<path d="M400.906 184.556C340.933 192.017 285.287 207.904 282.824 211.302C280.361 214.732 271.342 250.77 272.607 251.103C273.838 251.403 395.614 193.282 400.906 190.151C406.198 187.054 400.906 184.556 400.906 184.556Z" fill="#A8E4F4"/>
<path d="M317.736 213.3C323.261 213.833 335.841 207.105 340.9 205.106C348.721 202.075 359.205 201.409 358.239 191.284C343.762 194.015 330.416 196.946 319.134 199.744C316.804 203.474 312.045 212.767 317.736 213.3Z" fill="#48C6D3"/>
<path d="M292.675 234.483C290.445 234.483 288.615 233.75 287.25 232.252C284.222 229.021 283.723 225.257 285.72 220.694C288.149 215.132 294.173 211.068 300.03 211.068C302.227 211.068 304.224 212.134 305.189 213.8C306.554 216.198 305.588 219.062 304.59 221.56C304.058 222.892 303.392 224.325 301.994 224.857C300.796 225.29 299.332 224.791 298.666 223.692C298.599 223.592 298.566 223.492 298.533 223.392C297.368 225.29 295.77 226.923 293.873 228.088C292.442 228.988 290.512 229.52 289.247 228.388C288.082 227.322 288.282 225.49 288.948 224.125C290.745 220.594 295.404 218.829 299.099 220.261L299.165 220.028L299.731 220.128L299.864 220.328C300.03 220.594 299.897 220.894 299.698 221.427C299.498 221.96 299.165 222.859 299.398 223.225C299.831 223.958 300.863 224.325 301.695 224.025C302.76 223.625 303.325 222.426 303.791 221.227C304.723 218.896 305.588 216.264 304.424 214.199C303.625 212.8 301.894 211.901 300.03 211.901C294.506 211.901 288.815 215.731 286.518 220.994C284.688 225.191 285.12 228.654 287.883 231.619C289.314 233.118 291.277 233.75 293.74 233.517C299.698 232.884 306.653 227.289 308.284 224.558L309.016 224.991C307.253 227.922 300.164 233.684 293.84 234.35C293.441 234.45 293.041 234.483 292.675 234.483ZM296.37 220.627C293.674 220.627 290.978 222.093 289.747 224.524C289.214 225.59 289.014 227.022 289.846 227.755C290.745 228.588 292.309 228.088 293.441 227.389C295.837 225.89 297.701 223.658 298.799 221.06C298 220.761 297.202 220.627 296.37 220.627Z" fill="white"/>
<path d="M359.637 189.952C354.379 188.42 345.226 192.716 339.602 191.517C336.607 190.884 332.979 189.852 330.283 189.052C327.754 191.317 325.424 193.849 323.094 196.313C337.871 203.941 352.781 198.445 355.178 198.512C358.173 198.578 358.006 196.713 357.74 196.313C357.74 196.313 360.702 195.014 359.371 193.016C359.338 193.016 361.934 190.618 359.637 189.952Z" fill="#FFD939"/>
<path d="M340.567 191.983C337.705 191.983 334.809 191.517 332.014 190.584L332.28 189.752C335.575 190.851 339.103 191.317 342.464 191.051L342.531 191.917C341.898 191.983 341.233 191.983 340.567 191.983Z" fill="#E04136"/>
<path d="M329.618 189.186C326.888 188.086 323.727 188.719 321.663 190.884C320.299 192.316 319.3 193.982 319.167 195.447C318.868 198.245 323.76 197.779 323.76 197.779L331.614 190.018L329.618 189.186Z" fill="#03036D"/>
<path d="M357.008 196.513C355.91 195.847 354.445 195.814 353.314 196.447L352.914 195.68C354.312 194.914 356.076 194.981 357.441 195.78L357.008 196.513Z" fill="#E04136"/>
<path d="M358.972 193.349C357.507 192.583 355.677 192.583 354.179 193.316L353.78 192.55C355.51 191.65 357.64 191.684 359.371 192.583L358.972 193.349Z" fill="#E04136"/>
<path d="M295.038 163.972C293.674 162.473 292.076 161.074 290.113 160.575C288.149 160.075 285.786 160.708 284.788 162.473C283.789 164.239 284.921 166.97 286.951 167.07C281.426 162.673 275.203 159.176 268.546 156.811C264.752 155.445 259.793 154.779 257.364 157.977C255.667 160.208 256.099 163.539 257.663 165.904C259.228 168.269 261.657 169.834 264.053 171.333C266.45 172.832 268.946 174.331 270.61 176.595C269.145 175.596 267.548 174.564 265.784 174.697C264.02 174.83 262.389 176.829 263.321 178.361C264.053 179.527 265.684 179.626 267.049 179.56C276.368 179.193 286.052 179.527 295.305 178.427C304.69 177.328 299.132 168.469 295.038 163.972Z" fill="#FFCCE8"/>
<path d="M174.594 261.196C173.628 257.798 172.097 254.401 172.563 250.937C173.296 245.408 179.086 241.378 184.644 241.511C207.409 242.077 214.365 256.466 214.365 256.466C214.365 256.466 207.209 258.598 203.082 260.429C206.144 265.192 209.239 274.119 206.743 279.181C204.247 284.244 198.955 287.874 193.331 288.341C188.572 288.74 178.121 286.775 175.592 281.946C174.294 279.448 175.659 276.117 175.858 273.519C176.158 269.422 175.758 265.192 174.594 261.196Z" fill="#3CA184"/>
<path d="M203.082 260.463C203.182 260.429 203.315 260.363 203.415 260.33C202.516 260.163 201.618 259.963 200.719 259.73C195.694 263.66 188.904 265.592 183.579 261.295C179.452 257.965 178.354 251.77 180.318 247.007C179.419 245.874 178.587 244.642 177.855 243.376C175.059 245.042 172.929 247.739 172.53 250.937C172.064 254.434 173.595 257.831 174.56 261.196C175.725 265.192 176.124 269.389 175.825 273.519C175.625 276.117 174.261 279.481 175.559 281.946C178.121 286.775 188.538 288.74 193.298 288.341C198.922 287.874 204.214 284.244 206.71 279.181C209.273 274.152 206.144 265.226 203.082 260.463Z" fill="#2C8469"/>
<path d="M204.913 271.487C202.716 271.82 200.52 272.32 198.29 272.42C196.426 272.52 194.496 271.587 194.196 269.522C193.797 266.891 191.4 264.859 188.671 265.192C185.077 265.625 185.044 269.089 185.144 271.954C185.21 273.386 184.744 275.284 183.113 275.784C180.784 276.517 178.487 277.083 176.124 277.649C175.792 277.716 175.459 277.749 175.159 277.749C174.96 279.248 174.926 280.713 175.592 281.979C178.155 286.809 188.572 288.774 193.331 288.374C198.955 287.908 204.247 284.277 206.743 279.215C207.841 277.016 207.841 274.085 207.309 271.088C206.51 271.221 205.711 271.354 204.913 271.487Z" fill="#0000EF"/>
<path d="M184.711 254.667C185.776 256.333 187.939 257.232 189.87 256.799C191.8 256.366 193.364 254.601 193.564 252.636C193.763 250.671 192.565 248.605 190.768 247.839C186.575 245.974 182.182 250.671 184.711 254.667Z" fill="white"/>
<path d="M190.868 256.399C192.299 255.667 193.397 254.234 193.564 252.602C193.763 250.637 192.565 248.572 190.768 247.806C190.003 247.473 189.27 247.373 188.538 247.406C189.304 250.404 190.069 253.435 190.868 256.399Z" fill="#0000EF"/>
<path d="M187.606 248.805C188.771 248.572 189.969 248.339 191.134 248.106C191.966 247.939 192.798 247.773 193.53 247.34C194.263 246.907 194.895 246.207 194.928 245.341C195.028 244.142 193.996 243.11 192.832 242.777C191.134 242.31 189.204 242.843 187.54 243.176C186.408 243.376 185.044 243.609 184.178 244.475C183.38 245.275 183.346 246.407 183.812 247.44C184.611 249.038 186.042 249.105 187.606 248.805Z" fill="#03036D"/>
<path d="M194.329 276.15C193.63 274.219 192.998 272.287 192.499 270.288C192.099 268.756 190.768 267.59 189.071 267.857C187.606 268.123 185.942 268.856 186.841 272.02C187.54 274.485 188.072 276.217 188.938 278.615C189.47 280.114 191.5 280.714 192.865 280.081C194.429 279.381 194.862 277.683 194.329 276.15Z" fill="#3CA184"/>
<path d="M201.884 262.461C200.719 261.362 200.087 259.797 200.12 258.198C200.153 256.632 200.919 255.067 202.117 254.034L202.683 254.701C201.651 255.567 201.019 256.899 200.985 258.231C200.952 259.563 201.518 260.929 202.483 261.828L201.884 262.461Z" fill="#2C8469"/>
<path d="M217.493 257.765C218.425 254.567 219.556 252.303 222.053 251.337C224.549 250.371 224.648 252.136 223.35 253.202C222.053 254.268 220.888 255.667 220.888 255.667L217.493 257.765Z" fill="#2C8469"/>
<path d="M212.434 276.05C220.621 260.196 213.433 257.732 221.62 254.467C227.91 251.969 225.58 256.899 225.58 256.899C225.58 256.899 228.775 258.198 226.379 260.629C226.379 260.629 228.21 262.661 225.414 264.426C222.618 266.158 224.615 268.756 220.888 274.951C217.094 281.113 212.434 276.05 212.434 276.05Z" fill="#2C8469"/>
<path d="M227.777 248.639C234.233 248.739 242.154 246.207 242.287 246.94C242.454 247.973 247.213 261.995 237.828 263.36C228.442 264.693 228.376 256.799 228.076 255.167C227.777 253.535 227.078 248.605 227.777 248.639Z" fill="#0000EF"/>
<path d="M227.511 249.205C227.344 250.537 227.81 253.868 228.043 255.167C228.343 256.799 228.443 264.693 237.795 263.36C239.891 263.061 241.256 262.128 242.154 260.862C236.264 259.33 230.706 254.601 227.511 249.205Z" fill="#0000D8"/>
<path d="M228.509 262.494C227.577 262.494 226.645 262.395 225.713 262.161C223.484 261.562 220.987 259.763 220.522 257.065C220.089 254.667 221.52 252.003 223.816 250.837C225.946 249.771 228.742 249.971 230.905 251.337L230.439 252.069C228.509 250.87 226.046 250.704 224.182 251.636C222.219 252.636 220.987 254.9 221.354 256.932C221.753 259.264 223.95 260.829 225.913 261.362C228.243 261.995 230.739 261.562 232.836 261.096L233.035 261.928C231.737 262.195 230.14 262.494 228.509 262.494Z" fill="#0000EF"/>
<path d="M226.346 260.629L221.953 255.067C219.39 256.766 219.157 259.097 220.022 259.996C220.588 260.596 221.254 260.263 221.853 259.83C221.22 260.396 220.755 261.162 221.853 261.862C223.45 262.894 226.812 263.36 226.878 262.661C226.945 261.962 226.346 260.629 226.346 260.629Z" fill="#2C8469"/>
<path d="M220.621 260.796C220.422 260.796 220.222 260.762 220.022 260.696C219.29 260.463 218.724 259.763 218.691 258.997C218.625 258.231 219.49 256.799 222.053 255.1L222.518 255.833C220.022 257.498 219.523 258.664 219.556 258.964C219.59 259.364 219.889 259.763 220.289 259.897C220.821 260.063 221.453 259.797 221.853 259.563C222.851 259.064 223.783 258.364 224.549 257.565L225.181 258.165C224.316 259.064 223.35 259.797 222.252 260.363C221.82 260.563 221.22 260.796 220.621 260.796Z" fill="#F3CF14"/>
<path d="M221.686 263.327C221.453 263.327 221.254 263.294 221.054 263.227C220.588 263.094 220.189 262.761 219.956 262.328C219.756 261.962 219.723 261.562 219.823 261.229L220.655 261.495C220.588 261.662 220.655 261.828 220.721 261.928C220.854 262.161 221.054 262.328 221.287 262.395C221.686 262.528 222.219 262.428 222.851 262.161C223.75 261.762 224.515 261.129 225.148 260.396L225.813 260.929C225.114 261.795 224.216 262.494 223.217 262.961C222.618 263.194 222.119 263.327 221.686 263.327Z" fill="#F3CF14"/>
<path d="M223.983 265.459C223.484 265.426 222.951 265.392 222.452 265.159C221.919 264.893 221.42 264.326 221.487 263.594L222.352 263.694C222.319 263.96 222.585 264.26 222.818 264.36C223.151 264.526 223.617 264.56 224.016 264.593L223.983 265.459Z" fill="#F3CF14"/>
<path d="M242.254 246.94C241.921 245.541 236.829 246.407 233.535 247.007C230.24 247.606 228.01 248.206 227.744 248.605C227.477 249.005 228.309 250.904 233.901 249.771C239.525 248.639 242.554 248.239 242.254 246.94Z" fill="#0000EF"/>
<path d="M241.222 248.572C241.455 246.474 236.929 247.273 234 247.839C231.038 248.406 229.008 249.038 228.642 249.605C228.276 250.204 228.276 252.969 233.335 251.87C238.394 250.77 241.023 250.504 241.222 248.572Z" fill="#FE673C"/>
<path d="M239.159 250.504C240.424 250.071 241.123 249.505 241.222 248.572C241.455 246.474 236.929 247.273 234 247.839C233.867 247.873 233.767 247.873 233.668 247.906C235.598 248.505 237.462 249.338 239.159 250.504Z" fill="#E04136"/>
<path d="M172.097 315.919C206.377 300.132 217.56 287.608 224.415 296.035C231.271 304.461 204.547 319.283 202.084 324.779C199.588 330.274 197.458 351.391 168.303 353.723C139.149 356.054 151.962 322.547 151.962 322.547L172.097 315.919Z" fill="#FFB0D8"/>
<path d="M267.248 263.594C237.795 285.576 186.874 331.473 184.045 333.405C181.216 335.337 171.066 316.319 163.744 305.461C156.455 294.569 267.248 263.594 267.248 263.594Z" fill="#3DB5C9"/>
<path d="M233.168 279.015C231.638 276.916 222.352 280.281 218.625 281.613C197.591 289.14 177.056 295.635 159.184 309.025C157.387 310.357 155.656 311.722 153.959 313.155C150.997 315.353 106.833 341.865 96.8484 355.188C93.0877 360.184 93.9862 376.538 113.356 384.232C161.481 403.284 170.866 364.714 183.546 355.821C208.906 365.413 213.865 339.9 213.865 339.9C213.865 339.9 221.254 333.938 221.453 324.246C221.653 313.821 216.361 304.661 194.462 307.592C201.185 302.496 219.69 296.235 227.444 292.904C230.273 291.638 238.194 285.909 233.168 279.015Z" fill="#FE7EB2"/>
<path d="M190.036 347.061C189.437 347.994 188.339 349.992 187.64 350.858C185.243 353.822 182.581 356.487 183.579 355.788C198.19 361.317 206.044 355.188 210.038 348.993C203.049 350.458 195.561 350.092 190.036 347.061Z" fill="#E56EA4"/>
<path d="M106.2 357.02C117.816 354.822 129.065 350.958 139.448 345.296C157.687 335.37 169.701 318.883 174.893 299.166C169.468 302.03 164.243 305.228 159.184 308.991C157.387 310.324 155.656 311.689 153.959 313.121C150.997 315.32 106.833 341.832 96.8484 355.155C96.2494 355.954 95.7502 357.087 95.4506 358.386C99.045 358.119 102.639 357.686 106.2 357.02Z" fill="#E56EA4"/>
<path d="M142.044 289.007C130.529 304.428 121.743 322.214 119.513 325.945C116.584 330.807 125.803 325.811 147.369 317.351C168.936 308.891 267.848 265.226 269.878 263.327C271.908 261.429 261.125 260.896 240.024 266.658C218.924 272.42 145.14 284.91 142.044 289.007Z" fill="#A8E4F4"/>
<path d="M178.787 292.871C163.444 296.101 147.07 306.959 131.128 305.394C125.204 315.186 120.977 323.546 119.513 325.945C116.584 330.807 125.803 325.811 147.369 317.351C157.387 313.421 184.112 301.897 210.038 290.472C199.721 288.707 187.473 291.039 178.787 292.871Z" fill="#D2F1FC"/>
<path d="M184.811 354.955L184.278 354.256C187.074 352.157 189.237 349.16 190.402 345.895L191.201 346.195C190.003 349.626 187.706 352.723 184.811 354.955Z" fill="#E04136"/>
<path d="M200.087 348.76C197.092 348.76 193.763 348.094 190.668 346.795L191.001 345.995C194.695 347.528 198.722 348.16 202.05 347.761L202.15 348.627C201.485 348.693 200.786 348.76 200.087 348.76Z" fill="#E04136"/>
<path d="M214.398 338.834L213.566 338.601C214.464 335.47 213.3 330.974 211.103 329.142C208.673 327.11 194.229 326.411 190.702 326.744L190.602 325.878C193.863 325.578 208.84 326.111 211.635 328.476C214.098 330.508 215.396 335.337 214.398 338.834Z" fill="#E04136"/>
<path d="M181.078 325.359L180.686 326.131L183.98 327.806L184.372 327.034L181.078 325.359Z" fill="#E04136"/>
<path d="M182.439 309.089L182.182 309.916L185.806 311.042L186.062 310.215L182.439 309.089Z" fill="#E04136"/>
<path d="M228.01 289.04C226.279 289.04 224.582 288.308 223.45 287.009L224.116 286.442C225.514 288.041 228.076 288.641 230.04 287.775C232.004 286.909 233.302 284.644 233.069 282.512L233.934 282.412C234.2 284.944 232.703 287.508 230.373 288.541C229.607 288.874 228.809 289.04 228.01 289.04Z" fill="#E04136"/>
<path d="M434.653 167.203C461.877 170.567 477.852 157.61 485.174 154.713C494.127 151.149 500.483 147.785 500.317 150.216C500.151 152.848 494.926 155.179 494.926 155.179C494.926 155.179 497.355 160.775 491.431 162.906C491.431 162.906 473.659 179.227 457.351 181.791C441.043 184.356 432.523 179.46 432.457 178.261C432.39 177.095 434.653 167.203 434.653 167.203Z" fill="#53CAF1"/>
<path d="M484.342 166.004L484.209 165.138C485.34 164.938 486.006 163.806 486.805 162.373C487.604 160.974 488.535 159.376 490.166 158.043C492.063 156.545 492.629 154.913 492.263 154.346C491.997 153.913 490.898 153.813 488.702 154.979C488.07 155.312 487.57 155.712 487.104 156.078C486.372 156.645 485.607 157.244 484.409 157.544L484.209 156.711C485.207 156.445 485.84 155.978 486.572 155.379C487.071 154.979 487.604 154.58 488.302 154.213C491.464 152.548 492.596 153.281 492.995 153.88C493.727 155.046 492.762 157.111 490.699 158.71C489.168 159.909 488.302 161.441 487.537 162.773C486.672 164.372 485.906 165.737 484.342 166.004Z" fill="#FFD939"/>
<path d="M493.295 161.94L492.596 161.441C493.394 160.342 493.361 158.876 492.995 157.877C492.795 157.311 492.463 156.944 492.163 156.878L492.33 156.045C492.929 156.178 493.461 156.744 493.794 157.577C494.26 158.776 494.293 160.575 493.295 161.94Z" fill="#FFD939"/>
<path d="M490.865 163.572L490.266 162.94C490.832 162.407 490.499 160.075 489.9 159.342L490.566 158.776C491.298 159.642 491.93 162.54 490.865 163.572Z" fill="#FFD939"/>
<path d="M334.61 225.29C357.108 235.016 380.871 239.846 380.871 239.846L358.905 213.3L341.166 218.662L334.61 225.29Z" fill="#48C6D3"/>
<path d="M346.99 211.501C339.069 216.897 319.234 234.45 319.5 235.682C320.199 238.913 343.462 220.028 354.512 215.865C364.929 211.934 538.391 157.177 538.391 157.177C493.461 161.94 354.911 206.106 346.99 211.501Z" fill="#D2F1FC"/>
<path d="M437.182 166.87C439.279 169.468 442.341 171.4 445.603 172.099C447.799 168.535 451.693 161.807 453.856 158.21C449.43 157.277 441.143 159.542 435.152 158.776C434.753 161.574 435.186 164.405 437.182 166.87Z" fill="#25ACBA"/>
<path d="M437.316 158.143C428.529 156.944 419.943 156.078 419.943 156.078C391.92 173.831 375.512 211.501 375.512 211.501L437.682 199.877C437.682 199.877 447.466 174.697 453.058 163.639C445.137 163.273 440.145 163.239 437.316 158.143Z" fill="#03036D"/>
<path d="M442.474 159.576C459.814 159.709 472.96 156.678 476.754 154.213C482.112 150.783 481.546 143.788 478.085 139.225C476.321 136.927 472.427 134.562 462.643 136.794C464.506 128.7 459.215 119.94 451.56 116.709C443.905 113.445 434.753 115.177 427.897 119.907C410.924 131.664 437.915 159.542 442.474 159.576Z" fill="#53CAF1"/>
<path d="M438.514 151.848C435.119 145.12 435.385 135.062 439.013 128.5C440.943 125.003 444.038 122.905 447.766 121.639C450.395 120.74 453.324 120.407 455.82 119.241C454.522 118.208 453.124 117.376 451.627 116.709C444.005 113.445 434.82 115.177 427.964 119.907C410.957 131.631 403.102 156.078 428.063 158.743C434.121 159.376 439.912 159.609 445.237 159.576C442.408 157.544 440.078 154.946 438.514 151.848Z" fill="#3DB5C9"/>
<path d="M428.596 142.689C435.119 138.559 436.517 132.963 436.983 125.736C437.116 123.737 438.514 122.305 440.544 122.172C445.836 121.872 450.595 120.873 455.055 118.708C453.956 117.942 452.825 117.242 451.593 116.743C443.972 113.479 434.786 115.211 427.93 119.94C419.543 125.736 413.386 134.595 412.288 142.422C417.547 145.087 423.005 146.219 428.596 142.689Z" fill="#E04136"/>
<path d="M446.668 137.493C447.999 138.925 450.195 139.425 452.059 138.859C454.522 138.126 456.319 135.495 456.086 132.93C455.853 130.365 453.623 128.067 451.061 127.834C448.798 127.634 446.102 129.2 445.336 131.398C444.737 133.163 445.47 136.227 446.668 137.493Z" fill="white"/>
<path d="M451.627 127.967C451.826 131.598 451.893 135.261 451.993 138.892C452.026 138.892 452.059 138.892 452.059 138.859C454.522 138.126 456.319 135.495 456.086 132.93C455.886 130.565 453.956 128.467 451.627 127.967Z" fill="#03036D"/>
<path d="M456.785 146.12C455.753 145.92 454.622 145.72 453.623 146.12C452.026 146.752 451.294 148.784 451.793 150.416C452.292 152.048 453.757 153.247 455.354 153.847C456.952 154.446 458.715 154.513 460.413 154.546C462.41 154.58 464.473 154.513 466.27 153.68C468.667 152.581 470.896 149.384 467.701 148.151C464.473 146.886 460.213 146.752 456.785 146.12Z" fill="#E04136"/>
<path d="M463.508 151.282C460.979 150.716 454.955 149.983 453.024 152.348C453.69 153.014 454.522 153.514 455.387 153.847C456.985 154.446 458.749 154.513 460.446 154.546C462.443 154.58 464.506 154.513 466.304 153.68C466.903 153.414 467.502 153.014 468.001 152.514C466.37 151.982 464.773 151.582 463.508 151.282Z" fill="#FE7EB2"/>
<path d="M445.27 129.766C445.802 129.966 446.401 129.932 446.967 129.866C449.463 129.666 451.959 129.499 454.422 129.299C455.021 129.266 455.687 129.2 456.153 128.767C456.918 128.067 456.719 126.835 456.452 125.836C456.186 124.77 455.82 123.604 454.855 123.104C454.156 122.705 453.291 122.805 452.492 122.871C450.861 123.038 449.197 123.204 447.566 123.404C446.535 123.504 445.237 123.671 444.438 124.403C443.007 125.702 443.473 129.066 445.27 129.766Z" fill="#E04136"/>
<path d="M460.879 115.244C461.844 114.245 462.709 112.912 462.476 111.547C462.177 109.582 459.847 108.516 457.883 108.882C455.953 109.249 454.356 110.581 452.858 111.847C453.457 110.614 452.425 109.082 451.127 108.716C449.829 108.349 448.432 108.849 447.267 109.515C444.804 110.947 442.874 113.245 441.875 115.91C441.509 116.909 441.309 118.175 442.042 118.941C442.474 119.407 443.173 119.574 443.805 119.674C449.796 120.706 456.452 119.774 460.879 115.244Z" fill="#E04136"/>
<path d="M373.283 243.643C398.776 254.867 411.123 272.786 414.618 274.652C418.112 276.517 452.791 234.383 470.53 218.662C484.242 206.505 531.269 162.607 531.269 162.607L373.283 243.643Z" fill="#25ACBA"/>
<path d="M459.714 220.694C456.585 225.624 454.322 231.019 452.625 236.582C459.215 229.554 465.538 223.059 470.53 218.629C474.225 215.332 480.382 209.736 487.371 203.308C476.754 202.642 464.739 212.834 459.714 220.694Z" fill="#53CAF1"/>
<path d="M538.391 157.211C534.297 154.813 372.617 202.342 354.512 215.898C352.648 217.297 350.884 230.62 348.288 244.975C346.824 253.169 345.06 261.662 344.295 267.457C350.318 265.426 356.575 264.093 362.865 263.027C373.449 254.867 387.294 243.676 401.971 233.651C428.896 215.232 542.484 159.609 538.391 157.211Z" fill="#A8E4F4"/>
<path d="M403.169 196.18C402.969 197.113 402.77 198.079 402.67 199.044C402.137 202.941 402.537 207.205 405.732 209.903C409.859 213.367 414.585 214.399 420.675 212.267C431.491 208.504 429.162 202.908 462.709 191.284C470.73 188.486 463.175 184.123 465.705 176.329C444.771 182.591 422.406 189.652 403.169 196.18Z" fill="#D2F1FC"/>
<path d="M362.865 263.061C357.674 258.664 340.6 257.831 340.867 259.497C341.133 261.129 344.295 267.491 344.295 267.491L362.865 263.061Z" fill="#D2F1FC"/>
<path d="M469.532 178.894C467.335 177.462 454.788 179.86 451.56 180.326C448.332 180.792 444.205 179.26 438.647 176.629C433.655 176.629 429.395 178.094 426.3 183.79C444.172 194.448 455.587 191.317 460.479 190.918C466.803 190.385 467.968 189.619 467.835 187.287C467.835 187.287 471.828 186.055 469.266 182.724C469.266 182.724 471.728 180.326 469.532 178.894Z" fill="#53CAF1"/>
<path d="M467.136 187.42C464.906 186.588 462.31 186.588 460.047 187.42L459.747 186.621C462.177 185.722 464.972 185.722 467.435 186.621L467.136 187.42Z" fill="#FFD939"/>
<path d="M469.365 183.124C466.836 182.125 464.806 181.991 462.609 182.757L462.343 181.925C464.739 181.125 466.936 181.225 469.698 182.324L469.365 183.124Z" fill="#FFD939"/>
<path d="M463.142 176.396C463.575 176.063 464.074 175.729 464.606 175.596C465.139 175.463 465.804 175.596 466.137 176.029C466.437 176.429 466.47 176.962 466.304 177.428C466.137 177.894 465.804 178.294 465.472 178.627C464.54 179.527 459.281 182.391 457.983 181.325C456.253 179.893 462.177 177.128 463.142 176.396Z" fill="#53CAF1"/>
<path d="M462.876 179.227L462.509 178.427C463.242 178.094 465.039 177.795 465.804 177.828L465.771 178.694C465.139 178.694 463.475 178.96 462.876 179.227Z" fill="#FFD939"/>
<path d="M422.838 188.619L422.705 188.453C419.843 185.289 417.347 181.825 415.25 178.128L416.016 177.695C418.046 181.292 420.475 184.656 423.204 187.72C424.236 187.587 426.166 186.787 427.498 185.955L427.964 186.688C426.566 187.554 424.269 188.519 423.071 188.586L422.838 188.619Z" fill="#A8E4F4"/>
<path d="M439.945 176.063C436.417 174.131 433.189 171.666 430.393 168.768L431.025 168.169C433.788 171 436.916 173.398 440.378 175.297L439.945 176.063Z" fill="#A8E4F4"/>
<path d="M570.341 320.849C565.282 315.653 550.871 312.055 544.282 319.55C540.987 323.28 541.952 329.841 543.816 334.404C527.208 314.787 515.893 292.837 483.344 266.292C449.996 239.046 402.271 255.234 390.489 273.752C386.528 279.981 386.528 288.641 395.98 298.2C404.4 306.693 409.825 317.484 417.879 325.778C404.134 317.484 335.641 320.715 367.858 361.65C373.183 368.444 380.704 373.507 388.359 376.438C395.348 379.136 402.836 379.103 410.191 379.036C452.791 378.77 495.391 378.47 538.025 378.203C548.608 378.137 559.192 378.07 569.775 378.003C577.263 377.97 585.95 379.203 592.839 374.939C603.955 368.078 597.765 349.026 570.341 320.849Z" fill="#FFB0D8"/>
<path d="M432.723 305.427C423.837 307.226 415.683 315.719 414.884 326.278C414.218 335.171 418.711 343.764 424.835 349.06C430.959 354.355 438.447 356.854 445.902 358.652C455.021 360.884 464.273 362.216 473.559 362.682C493.395 363.648 497.455 340.933 480.648 330.741C465.671 321.715 451.061 301.697 432.723 305.427Z" fill="#FFCCE8"/>
<path d="M458.017 305.994C460.679 307.792 464.207 309.557 466.603 307.293C468.101 305.894 468.5 303.262 467.968 301.097C467.435 298.932 466.137 297.134 464.739 295.568C460.646 291.072 445.503 281.613 440.677 289.407C436.783 295.735 454.522 303.629 458.017 305.994Z" fill="#FFCCE8"/>
<path d="M220.255 230.053C215.563 223.092 210.437 222.659 206.41 224.558C205.478 224.991 204.48 225.89 204.78 226.856C197.724 218.962 186.142 221.227 181.416 225.524C179.419 227.322 178.388 229.52 177.988 231.319C177.689 232.718 178.254 234.183 179.186 235.249C180.118 236.315 181.416 236.981 182.747 237.481C186.475 238.88 190.568 238.88 194.529 238.547C201.485 237.947 210.071 237.015 216.594 234.483C224.282 241.278 227.91 245.541 229.008 245.508C229.707 245.508 227.61 240.978 220.255 230.053Z" fill="#FFCCE8"/>
<path d="M137.219 193.915C132.493 194.315 127.767 195.281 123.573 197.546C119.413 199.777 115.819 203.408 114.354 207.904C111.925 215.398 115.819 223.858 122.009 228.688C128.199 233.517 136.187 235.416 144.008 236.382C153.693 237.581 163.544 237.514 173.196 236.282C178.554 235.582 197.058 234.45 196.825 227.122C196.626 220.994 187.473 213 183.18 209.303C177.189 204.14 170.234 200.077 162.779 197.379C154.658 194.448 145.872 193.182 137.219 193.915Z" fill="#FFCCE8"/>
<path d="M142.677 208.704C139.515 208.737 136.287 209.07 133.524 210.569C130.762 212.068 128.565 214.965 128.632 218.129C128.699 221.06 130.729 223.658 133.192 225.224C135.654 226.789 138.55 227.489 141.412 228.188C148.9 230.02 156.422 231.819 163.91 233.651C168.27 234.716 173.728 235.416 176.49 231.885C178.155 229.754 178.155 226.656 177.156 224.125C172.563 212.434 153.693 208.637 142.677 208.704Z" fill="#FFB0D8"/>
<path d="M103.538 297.467C99.8105 297.467 96.3492 296.867 93.2208 295.668C90.8245 294.736 88.6612 293.437 86.7975 291.871C73.6514 295.935 58.1091 292.571 48.4575 282.645C36.3098 270.122 34.912 248.539 45.3291 234.517L46.028 235.049C35.8439 248.739 37.2084 269.822 49.0566 282.046C58.3753 291.638 73.2853 294.936 86.032 291.205C83.0034 288.374 80.8734 284.81 80.1745 281.047C78.8433 273.985 82.9036 266.491 89.1937 264.36C92.4886 263.227 96.4823 263.86 99.6773 265.958C102.573 267.89 104.337 270.788 104.536 273.852C104.969 280.48 99.0117 285.41 96.449 287.208C93.7865 289.074 90.8578 290.539 87.7959 291.572C89.4933 292.937 91.4569 294.07 93.5536 294.902C99.1116 297.034 105.834 297.234 113.023 295.435C119.48 293.836 125.603 290.872 131.527 288.041L131.894 288.807C125.936 291.671 119.779 294.636 113.223 296.268C109.861 297.034 106.6 297.467 103.538 297.467ZM92.6217 264.626C91.5234 264.626 90.4584 264.793 89.46 265.126C83.5692 267.124 79.7752 274.185 81.0398 280.847C81.7387 284.577 83.902 288.141 86.9972 290.872C90.1589 289.84 93.1875 288.374 95.9166 286.442C98.3794 284.71 104.037 280.047 103.638 273.852C103.471 271.054 101.807 268.423 99.1448 266.625C97.1812 265.326 94.8515 264.626 92.6217 264.626Z" fill="#FE7EB2"/>
<path d="M259.594 219.995C250.608 219.995 241.589 215.798 236.264 208.437L236.962 207.938C244.284 218.129 258.961 222.026 270.377 216.831L270.743 217.63C267.248 219.229 263.421 219.995 259.594 219.995Z" fill="#FE7EB2"/>
</svg>
