<svg width="17" height="18" viewBox="0 0 17 18" fill="none" xmlns="http://www.w3.org/2000/svg">
<path d="M8.66742 0.818359C6.44544 0.818359 6.16659 0.828075 5.29389 0.867791C4.42289 0.907678 3.82836 1.04558 3.30815 1.2479C2.77004 1.45688 2.31358 1.73643 1.85882 2.19137C1.40372 2.64614 1.12418 3.10262 0.91453 3.64057C0.711695 4.16097 0.573632 4.75569 0.534428 5.62637C0.495395 6.4991 0.485168 6.77813 0.485168 9.00018C0.485168 11.2222 0.495055 11.5002 0.534599 12.373C0.574655 13.244 0.712548 13.8385 0.914701 14.3588C1.12384 14.8969 1.40338 15.3534 1.85831 15.8081C2.3129 16.2632 2.76936 16.5435 3.30713 16.7524C3.82768 16.9548 4.42238 17.0927 5.2932 17.1326C6.1659 17.1723 6.44459 17.182 8.6664 17.182C10.8885 17.182 11.1665 17.1723 12.0392 17.1326C12.9102 17.0927 13.5055 16.9548 14.026 16.7524C14.5639 16.5435 15.0197 16.2632 15.4743 15.8081C15.9294 15.3534 16.209 14.8969 16.4186 14.3589C16.6197 13.8385 16.7578 13.2438 16.7987 12.3731C16.8379 11.5004 16.8481 11.2222 16.8481 9.00018C16.8481 6.77813 16.8379 6.49927 16.7987 5.62654C16.7578 4.75552 16.6197 4.16097 16.4186 3.64074C16.209 3.10262 15.9294 2.64614 15.4743 2.19137C15.0192 1.73626 14.5641 1.45671 14.0255 1.2479C13.5039 1.04558 12.9091 0.907678 12.0381 0.867791C11.1654 0.828075 10.8875 0.818359 8.66486 0.818359H8.66742ZM7.93347 2.29279C8.1513 2.29245 8.39436 2.29279 8.66742 2.29279C10.8519 2.29279 11.1108 2.30063 11.9735 2.33984C12.7712 2.37631 13.2041 2.50961 13.4925 2.6216C13.8743 2.76989 14.1465 2.94717 14.4327 3.23353C14.7191 3.51989 14.8963 3.79262 15.045 4.17444C15.1569 4.46251 15.2904 4.89546 15.3267 5.69319C15.3659 6.55569 15.3744 6.81478 15.3744 8.9983C15.3744 11.1818 15.3659 11.4409 15.3267 12.3034C15.2902 13.1011 15.1569 13.5341 15.045 13.8222C14.8967 14.204 14.7191 14.4759 14.4327 14.7621C14.1463 15.0484 13.8745 15.2257 13.4925 15.374C13.2044 15.4865 12.7712 15.6194 11.9735 15.6559C11.111 15.6951 10.8519 15.7036 8.66742 15.7036C6.48277 15.7036 6.22386 15.6951 5.36138 15.6559C4.56368 15.6191 4.13074 15.4858 3.84217 15.3738C3.46036 15.2255 3.18764 15.0482 2.90129 14.7619C2.61493 14.4755 2.43767 14.2035 2.28903 13.8215C2.17705 13.5334 2.04359 13.1005 2.00728 12.3027C1.96808 11.4402 1.96024 11.1811 1.96024 8.99625C1.96024 6.81137 1.96808 6.55364 2.00728 5.69114C2.04376 4.89342 2.17705 4.46046 2.28903 4.17205C2.43733 3.79023 2.61493 3.51751 2.90129 3.23114C3.18764 2.94478 3.46036 2.76751 3.84217 2.61887C4.13057 2.50637 4.56368 2.37342 5.36138 2.33677C6.11613 2.30268 6.40863 2.29245 7.93347 2.29075V2.29279ZM13.0347 3.65131C12.4926 3.65131 12.0529 4.09057 12.0529 4.63279C12.0529 5.17484 12.4926 5.61461 13.0347 5.61461C13.5767 5.61461 14.0165 5.17484 14.0165 4.63279C14.0165 4.09074 13.5767 3.65097 13.0347 3.65097V3.65131ZM8.66742 4.79847C6.34709 4.79847 4.46584 6.67978 4.46584 9.00018C4.46584 11.3206 6.34709 13.201 8.66742 13.201C10.9877 13.201 12.8683 11.3206 12.8683 9.00018C12.8683 6.67978 10.9876 4.79847 8.66725 4.79847H8.66742ZM8.66742 6.2729C10.1735 6.2729 11.3946 7.49387 11.3946 9.00018C11.3946 10.5063 10.1735 11.7274 8.66742 11.7274C7.16116 11.7274 5.94023 10.5063 5.94023 9.00018C5.94023 7.49387 7.16116 6.2729 8.66742 6.2729Z" fill="black"/>
</svg>
