<svg width="906" height="599" viewBox="0 0 906 599" fill="none" xmlns="http://www.w3.org/2000/svg">
<path d="M236.787 170.503C168.978 214.508 127.406 241.392 127.406 241.392C127.406 241.392 212.061 368.173 216.308 391.378L378.113 271.437C378.113 271.437 290.203 161.636 285.815 144.939C285.815 144.939 254.388 159.042 236.787 170.503Z" fill="#0000EF"/>
<path d="M213.429 203.99C234.097 191.586 255.001 179.511 274.631 165.503C279.822 161.777 285.107 157.957 290.533 154.278C288.033 150.127 286.381 146.92 285.862 144.939C285.862 144.939 254.435 159.042 236.787 170.456C168.978 214.508 127.406 241.392 127.406 241.392C127.406 241.392 130.285 245.684 134.956 252.854C160.626 235.827 187.004 219.838 213.429 203.99Z" fill="#00007F"/>
<path d="M220.205 231.453L163.672 259.554L164.282 260.779L220.814 232.677L220.205 231.453Z" fill="white"/>
<path d="M189.184 277.249L174.566 283.742L175.122 284.992L189.74 278.499L189.184 277.249Z" fill="white"/>
<path d="M233.106 210.593H231.738V239.789H233.106V210.593Z" fill="white"/>
<path d="M279.156 183.191L269.407 188.063L270.019 189.286L279.768 184.414L279.156 183.191Z" fill="white"/>
<path d="M215.749 329.952L211.658 333.145L212.5 334.223L216.591 331.03L215.749 329.952Z" fill="white"/>
<path d="M227.419 344.169L220.388 348.586L221.116 349.744L228.147 345.327L227.419 344.169Z" fill="white"/>
<path d="M664.589 269.691C624.196 311.952 615.891 329.356 615.891 329.356C615.891 329.356 691.391 360.956 704.745 377.747C705.831 379.115 706.491 380.389 706.68 381.521C709.275 396.802 741.457 326.196 749.857 322.139C749.857 322.139 692.052 269.55 664.589 269.691Z" fill="#FFB0D8"/>
<path d="M661.427 273.04C623.772 312.895 615.891 329.356 615.891 329.356C615.891 329.356 639.579 339.26 662.795 350.957C667.561 324.733 671.148 297.378 661.427 273.04Z" fill="#FE7EB2"/>
<path d="M682.331 326.667L672.941 290.161L674.262 289.831L683.369 325.205C688.843 324.686 730.415 320.772 745.185 321.432L745.138 322.8C729.472 322.092 683.369 326.62 682.897 326.667H682.331Z" fill="#FE7EB2"/>
<path d="M710.03 382.747L705.028 346.571C704.132 339.968 703.094 332.516 699.083 326.714L700.215 325.913C704.415 331.997 705.453 339.638 706.397 346.382L711.399 382.558L710.03 382.747Z" fill="#FE7EB2"/>
<path d="M678.452 310.325L658.446 315.319L658.777 316.646L678.784 311.652L678.452 310.325Z" fill="#FE7EB2"/>
<path d="M699.791 382.747C700.546 384.681 702.292 386.096 704.226 386.803C706.161 387.558 708.284 387.652 710.313 387.558C714.796 387.322 719.468 385.907 722.393 382.464C729.707 373.88 715.787 363.833 707.341 365.579C697.573 367.654 697.195 376.285 699.791 382.747Z" fill="#53CAF1"/>
<path d="M707.246 381.898L706.35 380.86L713.381 374.446L711.352 373.361L711.965 372.135L715.74 374.115L707.246 381.898Z" fill="#93D8F8"/>
<path d="M651.471 510.093C621.412 455.429 649.347 324.498 664.966 290.397C680.585 256.297 689.126 235.78 658.407 240.968C627.688 246.156 595.365 338.459 595.365 338.459C595.365 338.459 578.896 154.278 568.987 129.516C559.078 104.754 546.95 99.8491 533.408 108.763C519.865 117.678 526.282 154.75 526.282 154.75C526.282 154.75 527.509 94.7553 499.008 96.7362C470.507 98.7643 478.057 154.655 478.057 154.655C478.057 154.655 478.481 98.1984 453.708 102.726C428.934 107.254 426.575 129.139 436.296 200.311C446.016 271.484 428.746 475.898 451.867 503.066C451.82 503.019 621.79 508.112 651.471 510.093Z" fill="#D2F1FC"/>
<path d="M281.096 510.093C303.652 451.938 241.506 345.062 221.498 313.32C201.491 281.577 190.354 262.381 221.498 263.466C252.642 264.551 296.857 351.806 296.857 351.806C296.857 351.806 288.882 167.06 295.441 141.213C302 115.367 313.372 108.905 327.953 115.933C342.581 122.96 341.071 160.598 341.071 160.598C341.071 160.598 331.917 101.264 360.465 99.519C389.014 97.7738 388.872 154.136 388.872 154.136C388.872 154.136 380.992 98.2455 406.143 99.4718C431.294 100.698 440.967 125.13 440.731 196.963C440.448 268.795 471.12 473.069 451.82 503.066C451.82 503.019 310.258 504.245 281.096 510.093Z" fill="#D2F1FC"/>
<path d="M449.791 323.837C449.744 323.743 449.697 323.602 449.65 323.507C441.769 307.094 433.228 288.228 421.337 275.069C409.446 261.957 383.304 235.072 365.09 231.252C356.36 229.412 347.394 229.978 339.467 225.451C333.521 222.055 329.18 216.631 324.131 212.103C315.307 204.273 295.488 198.991 293.034 221.772C293.837 281.672 293.742 327.422 293.742 327.422C293.742 327.422 252.642 264.598 221.498 263.513C190.354 262.428 201.538 281.625 221.498 313.367C241.458 345.109 303.652 451.986 281.096 510.141C304.171 505.471 411.711 503.632 449.744 503.113C461.258 492.076 454.321 477.738 458.143 462.173C458.71 426.469 454.321 374.21 449.791 323.837Z" fill="#53CAF1"/>
<path d="M643.354 320.394C636.607 326.196 629.812 332.61 621.176 335.534C612.494 338.506 603.387 336.997 599.045 328.601C596.686 334.638 595.365 338.411 595.365 338.411C595.365 338.411 591.024 290.067 585.503 239.6C569.412 248.797 562.805 269.314 552.188 283.558C545.676 292.284 538.645 300.632 531.001 308.414C523.828 315.725 515.146 321.951 509.483 330.629C500.801 343.93 495.091 364.447 504.246 378.879C512.739 392.274 530.954 397.934 545.488 401.424C572.809 408.028 617.213 411.046 640.618 396.708C648.828 353.457 653.075 327.328 659.493 304.735C655.199 306.669 646.941 317.329 643.354 320.394Z" fill="#A8E4F4"/>
<path d="M569.176 490.991C587.484 491.463 606.312 491.84 623.536 485.567C626.744 484.388 630.236 482.549 630.944 479.247C631.51 476.417 629.67 473.493 627.216 471.984C624.762 470.427 621.79 470.003 618.911 469.578C567.76 462.315 515.618 462.645 464.419 469.06C451.49 470.663 438.561 472.691 425.773 475.05C421.384 475.851 398.121 477.879 404.916 484.671C410.673 490.473 444.695 502.877 451.82 503.066C465.316 503.396 464.419 488.397 477.915 488.727C508.351 489.482 538.787 490.237 569.176 490.991Z" fill="#53CAF1"/>
<path d="M347.583 231.582C347.536 231.205 343.006 194.274 340.269 151.401L341.637 151.306C344.374 194.133 348.904 231.063 348.952 231.44L347.583 231.582Z" fill="white"/>
<path d="M390.968 146.124L389.604 146.235L396.773 233.579L398.136 233.468L390.968 146.124Z" fill="white"/>
<path d="M433.498 126.73L432.137 126.874L437.16 174.15L438.521 174.006L433.498 126.73Z" fill="white"/>
<path d="M479.546 137.715L478.178 137.768L479.4 169.299L480.767 169.246L479.546 137.715Z" fill="white"/>
<path d="M536.758 244.222C535.625 237.761 532.841 212.857 530.152 188.803C527.462 164.796 524.678 139.94 523.593 133.478L524.961 133.242C526.094 139.704 528.878 164.607 531.567 188.661C534.257 212.669 537.041 237.525 538.126 243.986L536.758 244.222Z" fill="white"/>
<path d="M230.369 314.687L229.048 314.31C230.794 308.367 229.897 301.67 226.594 296.434C223.338 291.152 217.723 287.379 211.589 286.341L211.825 284.973C218.337 286.105 224.282 290.114 227.727 295.68C231.266 301.292 232.257 308.367 230.369 314.687Z" fill="white"/>
<path d="M380.74 438.836L379.7 439.725L390.028 451.809L391.069 450.921L380.74 438.836Z" fill="white"/>
<path d="M538.079 359.825L536.852 359.164C541.429 351.005 552.047 346.76 561.012 349.448L560.635 350.769C552.282 348.222 542.373 352.231 538.079 359.825Z" fill="white"/>
<path d="M663.928 282.473C659.54 272.286 663.692 259.315 673.271 253.608L673.979 254.787C665.155 260.07 661.144 272.474 665.202 281.907L663.928 282.473Z" fill="white"/>
<path d="M315.071 178.238C311.532 178.238 308.04 177.625 304.737 176.398L305.209 175.125C312.476 177.861 320.922 177.389 327.812 173.852L328.425 175.078C324.367 177.2 319.695 178.238 315.071 178.238Z" fill="white"/>
<path d="M365.278 172.861C362.636 172.861 359.993 172.437 357.492 171.588L357.964 170.267C363.344 172.106 369.337 171.824 374.527 169.56L375.093 170.833C372.026 172.154 368.629 172.861 365.278 172.861Z" fill="white"/>
<path d="M422.897 162.509L418.036 164.328L418.516 165.609L423.377 163.79L422.897 162.509Z" fill="white"/>
<path d="M334.524 228.536L327.838 229.75L328.083 231.096L334.768 229.882L334.524 228.536Z" fill="white"/>
<path d="M467.318 159.509L458.243 160.715L458.423 162.07L467.498 160.865L467.318 159.509Z" fill="white"/>
<path d="M510.936 158.236L502.447 160.059L502.735 161.396L511.223 159.573L510.936 158.236Z" fill="white"/>
<path d="M540.808 163.705L540.554 165.049L557.48 168.241L557.733 166.896L540.808 163.705Z" fill="white"/>
<path d="M382.24 225.787L370.742 229.488L371.161 230.79L382.66 227.089L382.24 225.787Z" fill="white"/>
<path d="M430.444 280.445C421.196 277.474 411.239 276.719 401.613 278.181L401.424 276.814C411.239 275.304 421.432 276.106 430.869 279.125L430.444 280.445Z" fill="white"/>
<path d="M521.085 241.789L515.598 243.531L516.012 244.834L521.499 243.092L521.085 241.789Z" fill="white"/>
<path d="M447.857 260.353L446.535 259.976C447.054 258.089 446.441 255.967 444.978 254.693C444.648 254.41 444.27 254.127 443.893 253.844C443.043 253.231 442.147 252.618 441.628 251.627C441.062 250.542 441.109 249.316 441.156 248.326L441.533 239.317L442.902 239.364L442.524 248.373C442.477 249.222 442.43 250.212 442.855 250.967C443.232 251.674 443.94 252.146 444.695 252.665C445.12 252.948 445.544 253.278 445.922 253.608C447.715 255.306 448.517 257.995 447.857 260.353Z" fill="white"/>
<path d="M491.82 236.239L490.489 236.554L496.055 260.053L497.387 259.738L491.82 236.239Z" fill="white"/>
<path d="M302.802 311.763C306.011 314.546 314.882 316.385 320.733 317.376C327.481 318.508 334.371 319.027 341.213 319.64C351.169 320.536 361.834 321.338 371.318 317.564C374.952 316.149 378.397 314.404 381.841 312.706C380.237 272.899 377.877 245.637 348.527 246.298C305.398 247.288 301.858 274.597 301.575 310.773C302 311.103 302.378 311.433 302.802 311.763Z" fill="#FFB0D8"/>
<path d="M315.779 270.163C314.316 273.323 314.882 277.238 317.053 280.021C319.176 282.757 322.715 284.313 326.207 284.266C329.605 284.266 333.002 282.756 335.362 280.304C337.721 277.851 338.995 274.361 338.806 270.918" fill="white"/>
<path d="M350.886 270.163C349.423 273.323 349.99 277.238 352.16 280.021C354.284 282.757 357.823 284.313 361.315 284.266C364.712 284.266 368.11 282.756 370.469 280.304C372.828 277.851 374.103 274.361 373.914 270.918" fill="white"/>
<path d="M350.084 273.182H338.806V274.55H350.084V273.182Z" fill="#E04136"/>
<path d="M330.124 278.512L328.85 277.993C329.274 276.814 328.897 275.399 327.906 274.644C326.915 273.889 325.405 273.889 324.414 274.597C323.423 275.352 322.998 276.767 323.423 277.946L322.149 278.417C321.488 276.672 322.102 274.597 323.612 273.512C325.122 272.427 327.293 272.427 328.755 273.559C330.171 274.691 330.784 276.767 330.124 278.512Z" fill="#00007F"/>
<path d="M365.986 278.512L364.712 277.993C365.137 276.814 364.759 275.399 363.768 274.644C362.778 273.889 361.268 273.889 360.277 274.597C359.286 275.352 358.861 276.767 359.286 277.946L358.012 278.417C357.351 276.672 357.964 274.597 359.474 273.512C360.984 272.427 363.155 272.427 364.618 273.559C366.081 274.691 366.694 276.767 365.986 278.512Z" fill="#00007F"/>
<path d="M321.536 265.305C321.488 263.749 322.291 262.239 323.612 261.391C324.933 260.542 326.632 260.447 328.048 261.155L327.434 262.381C326.49 261.909 325.263 261.957 324.367 262.57C323.47 263.136 322.904 264.22 322.951 265.305H321.536Z" fill="#00007F"/>
<path d="M364.146 265.117C363.91 264.173 363.202 263.277 362.258 262.758C361.315 262.192 360.229 262.051 359.286 262.287L358.908 260.966C360.229 260.589 361.692 260.825 362.966 261.532C364.24 262.287 365.137 263.466 365.467 264.739L364.146 265.117Z" fill="#00007F"/>
<path d="M330.265 290.869C328.095 290.774 325.782 290.774 324.037 292.048C321.536 293.935 321.583 297.991 323.423 300.538C325.263 303.085 328.331 304.452 331.351 305.396C335.692 306.763 340.175 307.565 344.705 307.754C347.536 307.895 350.462 307.754 353.198 306.905C355.935 306.056 358.483 304.358 359.899 301.905C363.391 296.057 358.483 289.454 352.019 290.444C344.705 291.482 337.721 291.152 330.265 290.869Z" fill="#E04136"/>
<path d="M322.574 298.793C322.81 299.406 323.093 300.019 323.47 300.585C325.311 303.132 328.378 304.5 331.398 305.443C335.739 306.811 340.222 307.613 344.752 307.801C347.583 307.943 350.509 307.801 353.246 306.952C355.982 306.103 358.531 304.405 359.946 301.953C360.182 301.528 360.371 301.104 360.56 300.679C348.244 295.397 333.474 293.416 322.574 298.793Z" fill="#FE673C"/>
<path d="M272.838 329.78C271.281 325.488 271.422 320.63 276.283 316.102C281.143 311.575 285.107 317.423 285.107 317.423C284.399 322.422 280.247 326.479 272.838 329.78Z" fill="#0000EF"/>
<path d="M270.809 259.127C273.735 224.177 284.729 218.706 278.831 217.857C272.933 217.008 270.479 227.526 270.479 227.526C270.479 227.526 270.007 206.49 264.486 206.915C259.012 207.339 264.486 222.479 264.486 222.479C264.486 222.479 257.738 206.915 253.963 208.99C253.161 209.461 252.831 210.405 252.878 211.631C252.028 210.641 251.132 210.263 250.188 211.112C246.413 214.461 252.312 224.602 253.538 232.997C254.812 241.392 249.763 291.907 262.787 308.367C275.858 324.781 309.55 334.874 309.55 334.874L311.673 317.187C283.88 315.536 267.836 294.076 270.809 259.127Z" fill="#FFB0D8"/>
<path d="M294.45 328.365C291.949 320.394 288.08 314.499 279.916 311.81C274.254 309.971 268.308 309.216 262.504 307.943C262.598 308.084 262.693 308.226 262.834 308.367C270.243 317.706 284.305 324.969 295.063 329.544C294.78 329.167 294.592 328.837 294.45 328.365Z" fill="#FE7EB2"/>
<path d="M287.702 308.792C284.352 315.206 281.238 321.715 276 326.903C275.009 327.894 273.923 328.837 272.838 329.78C288.08 339.779 309.55 334.874 309.55 334.874L311.673 317.187C302.189 316.621 294.167 313.697 287.702 308.792Z" fill="white"/>
<path d="M293.742 327.375C287.513 325.158 282.842 328.648 278.831 332.893C287.23 336.242 296.385 336.336 302.472 335.865C300.962 332.044 297.895 328.884 293.742 327.375Z" fill="#D2F1FC"/>
<path d="M256.653 229.507C255.898 224.13 254.388 218.895 252.123 213.942L253.397 213.376C255.709 218.423 257.266 223.8 258.021 229.318L256.653 229.507Z" fill="#00007F"/>
<path d="M264.628 229.177L263.259 228.941C263.778 225.922 263.448 222.809 262.362 219.979L263.637 219.46C264.816 222.573 265.147 225.922 264.628 229.177Z" fill="#00007F"/>
<path d="M267.695 235.685L266.326 235.591C266.562 231.676 268.403 227.856 271.281 225.215L272.225 226.252C269.535 228.705 267.883 232.148 267.695 235.685Z" fill="#00007F"/>
<path d="M338.618 411.801C301.528 414.914 301.528 366.239 301.528 323.79C301.528 317.895 301.528 311.952 301.67 306.056C305.728 308.509 310.588 310.207 315.59 311.386C323.046 313.225 330.784 314.027 336.777 314.782C349.612 316.433 362.117 316.244 373.489 312.565C376.32 311.669 379.104 310.537 381.794 309.122C382.03 316.668 382.219 324.403 382.596 332.28C384.956 382.464 375.707 408.735 338.618 411.801Z" fill="white"/>
<path d="M365.514 360.957C363.155 359.872 363.202 356.995 364.571 355.25C363.816 354.731 363.061 354.165 362.353 353.505C360.041 351.288 361.456 348.175 363.91 347.232C363.674 347.043 363.485 346.854 363.249 346.618C362.306 345.628 361.975 344.496 362.164 343.458C361.787 343.222 361.409 342.987 361.032 342.751C359.757 341.902 359.238 340.723 359.191 339.591C347.158 338.647 334.937 338.176 322.951 338.647C322.338 339.213 321.536 339.591 320.45 339.591H306.341C307.238 355.721 308.465 371.805 308.842 387.935C329.841 390.718 350.886 390.246 371.649 386.945C374.81 379.776 378.963 373.833 381.464 365.532C376.037 364.541 370.658 363.315 365.514 360.957Z" fill="#D2F1FC"/>
<path d="M305.256 381.049C309.55 400.245 318.752 413.452 338.617 411.801C359.993 410.009 372.121 400.528 378.113 383.219C353.812 382.653 329.51 382.181 305.256 381.049Z" fill="#0000EF"/>
<path d="M344.469 316.763C344.469 316.763 350.226 318.178 352.396 318.979C356.502 320.536 360.654 322.894 364.523 325.677C367.024 322.092 370.847 316.527 373.536 312.565C362.164 316.244 349.659 316.432 336.824 314.782C330.832 314.027 323.046 313.225 315.637 311.386L328.614 327.894C332.577 323.979 344.469 316.763 344.469 316.763Z" fill="#D2F1FC"/>
<path d="M351.264 406.047L349.942 405.669L351.783 399.161C351.688 399.208 351.641 399.208 351.547 399.255C350.367 399.679 349.093 399.585 348.149 398.925L347.819 398.689L348.999 390.435L350.367 390.624L349.329 397.982C349.848 398.17 350.462 398.17 351.075 397.982C351.783 397.699 352.349 397.18 352.538 396.567L352.585 396.472L353.906 396.85C353.906 396.897 353.906 396.944 353.859 396.991L351.264 406.047Z" fill="#00007F"/>
<path d="M366.977 363.598C366.175 339.025 369.62 329.309 369.62 329.309C369.62 329.309 316.77 332.139 311.438 332.327C311.438 332.327 321.017 384.728 322.574 392.18C322.574 392.18 362.447 389.869 365.609 390.482C365.562 390.435 367.26 372.795 366.977 363.598Z" fill="#00007F"/>
<path d="M327.34 370.39C324.508 370.39 321.488 370.39 318.468 370.579C320.309 380.625 322.007 389.398 322.527 392.133C322.527 392.133 362.4 389.822 365.562 390.435C365.562 390.435 366.552 380.153 366.883 371.239C353.717 370.39 340.505 370.437 327.34 370.39Z" fill="#010166"/>
<path d="M318.138 356.759C318.138 356.665 316.487 347.326 314.929 334.969L316.298 334.78C317.855 347.137 319.507 356.382 319.507 356.476L318.138 356.759Z" fill="#53CAF1"/>
<path d="M350.462 331.809C348.244 347.279 347.913 355.957 351.453 356.617C353.151 356.948 357.634 353.74 359.002 336.667C360.371 319.593 359.097 320.112 355.841 319.687C352.585 319.31 351.83 322.234 350.462 331.809Z" fill="#F3CF14"/>
<path d="M359.663 332.422L349.99 331.478L350.131 330.063L358.483 330.912L358.861 330.724L359.663 332.422Z" fill="#E04136"/>
<path d="M361.551 331.478L361.739 325.96L357.728 324.97L358.059 323.649L363.155 324.875L363.061 328.365L363.533 328.696L361.551 331.478Z" fill="#F3CF14"/>
<path d="M380.048 323.271C408.927 336.053 412.136 351.618 412.136 351.618L398.404 365.06L381.605 362.702L380.048 323.271Z" fill="white"/>
<path d="M382.974 354.401C355.841 367.984 334.04 357.089 326.113 356.193C318.185 355.297 318.94 359.164 327.717 361.523C327.717 361.523 316.487 362.89 314.929 365.767C313.419 368.645 316.675 368.833 316.675 368.833C316.675 368.833 312.051 371.569 314.929 372.465C317.855 373.361 322.102 372.465 322.102 372.465C322.102 372.465 316.062 371.191 316.958 374.918C317.855 378.644 328.991 372.606 335.598 374.918C344.563 378.078 381.747 377.229 389.439 367.418C397.13 357.608 382.974 354.401 382.974 354.401Z" fill="#FFB0D8"/>
<path d="M316.817 369.352C315.967 369.352 315.118 369.305 314.222 369.211L314.363 367.843C318.988 368.362 323.753 367.324 327.717 364.918L328.425 366.098C324.98 368.267 320.922 369.352 316.817 369.352Z" fill="#00007F"/>
<path d="M318.657 373.408C318.28 373.408 317.902 373.408 317.478 373.361L317.525 371.993C321.158 372.135 324.886 371.522 328.283 370.154L328.802 371.427C325.594 372.701 322.102 373.408 318.657 373.408Z" fill="#00007F"/>
<path d="M375.613 465.711C370.752 466.324 368.44 459.91 367.638 450.571C364.335 450.288 361.032 450.146 357.728 450.099C358.295 463.211 358.767 471.559 358.767 471.559C358.767 471.559 386.56 473.682 388.259 471.559C389.958 469.437 392.27 463.588 375.613 465.711Z" fill="#FE673C"/>
<path d="M322.668 450.147C322.291 460.759 320.167 468.447 314.882 468.164C309.503 467.881 310.588 474.908 316.675 475.144C319.365 475.238 329.982 474.201 329.982 474.201C329.982 474.201 330.501 464.485 331.162 449.581C328.283 449.581 325.452 449.722 322.668 450.147Z" fill="#FE673C"/>
<path d="M368.11 454.438C364.854 432.837 372.357 387.747 372.357 387.747L355.841 392.369C356.313 416.282 357.257 439.063 357.917 453.967C361.315 454.108 364.712 454.25 368.11 454.438Z" fill="#0000EF"/>
<path d="M375.612 465.711C373.3 465.994 371.602 464.72 370.327 462.315C366.317 462.079 362.306 461.891 358.295 461.749C358.578 467.928 358.814 471.512 358.814 471.512C358.814 471.512 386.607 473.635 388.306 471.512C389.957 469.437 392.27 463.588 375.612 465.711Z" fill="#00007F"/>
<path d="M322.479 453.212C325.311 453.259 328.142 453.306 330.973 453.401C331.634 438.544 332.436 417.319 332.908 395.104L316.392 390.482C316.439 390.435 324.178 430.62 322.479 453.212Z" fill="#0000EF"/>
<path d="M321.347 460.9C320.167 465.522 318.138 468.352 314.882 468.164C309.503 467.881 310.588 474.908 316.675 475.144C319.365 475.238 329.982 474.201 329.982 474.201C329.982 474.201 330.265 469.296 330.643 461.089C327.528 461.042 324.414 460.994 321.347 460.9Z" fill="#00007F"/>
<path d="M327.434 447.977C322.149 447.364 320.922 445.902 319.507 449.769C318.091 453.637 318.28 454.438 324.886 454.721C331.492 455.004 333.049 454.297 333.333 451.609C333.616 448.873 331.587 448.496 327.434 447.977Z" fill="#0000EF"/>
<path d="M362.07 449.25C367.355 449.203 368.77 447.882 369.761 451.891C370.752 455.9 370.516 456.655 363.91 456.231C357.304 455.806 355.794 454.957 355.841 452.222C355.888 449.486 357.87 449.297 362.07 449.25Z" fill="#0000EF"/>
<path d="M364.668 402.3L357.302 407.732L358.114 408.833L365.48 403.4L364.668 402.3Z" fill="#00007F"/>
<path d="M523.876 467.833C517.033 429.016 506.888 390.907 493.628 353.835C490.703 345.675 477.585 349.212 480.557 357.419C493.817 394.538 503.962 432.648 510.805 471.418C512.315 480.049 525.386 476.417 523.876 467.833Z" fill="#0000EF"/>
<path d="M510.805 471.465C511.89 477.408 515.901 477.078 537.135 476.37C555.303 475.757 555.727 471.418 542.467 471.041C529.208 470.663 524.395 470.616 523.876 467.881C523.404 465.098 510.805 471.465 510.805 471.465Z" fill="#00007F"/>
<path d="M520.144 462.475L510.623 465.047L510.98 466.367L520.501 463.796L520.144 462.475Z" fill="#00007F"/>
<path d="M467.062 466.56C461.069 437.553 458.427 378.408 458.993 348.788C459.182 340.062 445.592 340.062 445.403 348.788C444.837 379.587 447.715 439.958 453.944 470.144C455.737 478.728 468.808 475.097 467.062 466.56Z" fill="#0000EF"/>
<path d="M453.33 467.031C441.533 473.116 432.851 467.55 431.011 471.276C429.123 475.002 452.906 476.04 461.305 474.908C469.704 473.776 467.062 466.56 467.062 466.56L453.33 467.031Z" fill="#00007F"/>
<path d="M464.05 461.148L454.239 462.152L454.378 463.513L464.189 462.508L464.05 461.148Z" fill="#00007F"/>
<path d="M445.025 267.994C450.499 259.268 461.352 253.042 471.167 256.202C477.349 258.183 482.02 263.56 484.71 269.503C487.4 275.446 488.343 282.002 489.287 288.416C492.638 311.433 495.988 334.402 499.291 357.419C499.527 359.023 499.716 360.815 498.678 362.088C497.498 363.55 495.28 363.598 493.392 363.456C484.38 362.89 475.367 362.371 466.307 361.805C459.134 361.381 450.971 360.532 446.724 353.929C442.713 347.75 437.853 351.806 436.437 317.045C436.107 309.593 436.296 302.141 437.239 294.831C438.466 285.633 439.976 276.059 445.025 267.994Z" fill="#00007F"/>
<path d="M447.196 288.463L445.827 288.369C446.016 285.02 446.96 281.719 448.612 278.794L449.838 279.455C448.281 282.238 447.385 285.35 447.196 288.463Z" fill="#53CAF1"/>
<path d="M526.377 270.776C530.859 274.031 535.012 277.71 539.306 281.247C553.604 265.635 563.183 238.421 556.954 219.272C553.651 209.178 537.654 213.471 540.958 223.658C545.676 238.185 536.805 259.74 526.377 270.776Z" fill="#FE673C"/>
<path d="M528.689 268.182C527.556 269.597 526.377 270.918 525.15 272.097C511.984 284.879 493.393 277.946 482.634 265.871C475.508 257.9 463.806 269.644 470.884 277.615C478.34 285.964 486.692 296.434 497.309 298.793C502.075 310.348 519.251 311.008 523.64 298.793C532.417 299.736 529.491 289.925 533.408 286.813C536.522 284.36 539.495 281.294 542.232 277.804C537.56 274.833 533.03 271.673 528.689 268.182Z" fill="#00007F"/>
<path d="M564.646 215.31C564.646 215.31 566.344 213.565 564.976 210.31C562.994 205.688 549.31 209.131 549.31 209.131C549.31 209.131 551.858 205.5 552.047 200.547C552.235 195.595 549.31 196.538 544.732 203.283C540.155 210.027 538.457 214.791 541.005 223.753L541.807 223.941L554.076 228.328C554.076 228.328 562.852 228.328 564.881 226.488C566.911 224.649 565.448 221.536 565.448 221.536C567.901 218.942 564.646 215.31 564.646 215.31Z" fill="#FE673C"/>
<path d="M558.181 216.678C555.68 216.678 554.217 216.159 553.651 215.121C553.038 213.942 553.651 212.433 555.538 210.499L556.529 211.442C554.595 213.47 554.783 214.272 554.878 214.461C555.067 214.838 556.341 215.97 564.127 214.65L564.362 216.017C561.862 216.442 559.832 216.678 558.181 216.678Z" fill="#00007F"/>
<path d="M556.624 223.375C554.264 223.375 553.368 222.904 552.99 222.102C552.377 220.97 553.132 219.508 555.586 216.961L556.577 217.904C554.028 220.545 554.123 221.253 554.217 221.441C554.406 221.819 555.774 222.526 564.174 221.111L564.41 222.479C560.823 223.092 558.323 223.375 556.624 223.375Z" fill="#00007F"/>
<path d="M558.7 228.705C556.199 228.611 554.595 227.95 553.84 226.771C553.273 225.828 553.321 224.601 554.028 223.187L555.255 223.8C554.783 224.79 554.689 225.545 555.019 226.111C555.444 226.865 556.765 227.29 558.7 227.384V228.705Z" fill="#00007F"/>
<path d="M552.235 219.744L550.914 219.366C551.669 216.725 551.008 213.659 549.121 211.584L550.159 210.641C552.33 213.046 553.132 216.631 552.235 219.744Z" fill="#00007F"/>
<path d="M489.853 291.954H488.485C488.485 291.576 488.627 282.096 494.478 276.672L495.422 277.71C489.995 282.709 489.853 291.859 489.853 291.954Z" fill="#53CAF1"/>
<path d="M433.417 177.342C429.217 175.267 424.168 175.408 419.686 176.682C415.203 178.002 411.097 180.36 407.039 182.719C406.001 183.332 404.963 183.945 404.255 184.888C403.547 185.832 403.217 187.199 403.831 188.237C404.822 189.888 407.228 189.652 409.116 189.227C413.504 188.19 417.845 187.152 422.234 186.115C420.724 186.728 419.214 187.435 418.081 188.614C416.996 189.793 416.43 191.633 417.185 193.095C418.364 195.265 421.479 195.029 423.885 194.557C427.943 193.708 439.363 193.378 441.675 189.416C444.176 185.218 436.626 178.993 433.417 177.342Z" fill="#2C8469"/>
<path d="M474.47 229.884C474.423 223.092 463.853 223.092 463.9 229.884C463.995 238.185 463.428 249.08 460.597 257.004C458.332 263.419 468.525 266.201 470.79 259.787C473.904 251.061 474.565 239.081 474.47 229.884Z" fill="#FE673C"/>
<path d="M434.031 227.337C440.307 235.591 450.735 240.213 461.116 240.638C472.3 241.109 483.861 236.817 491.222 228.328C498.583 219.885 501.131 207.197 496.743 196.915C491.883 185.643 479.331 178.71 467.062 179.087C455.265 179.464 441.864 187.058 433.464 195.312C425.065 203.613 427.472 218.706 434.031 227.337Z" fill="#FE673C"/>
<path d="M437.192 230.874C444.884 231.205 452.575 231.723 460.267 231.252C468.336 230.733 475.886 228.893 482.681 224.366C488.013 220.781 492.779 216.442 498.394 213.282C499.385 207.811 498.913 202.104 496.696 196.963C491.835 185.69 479.284 178.757 467.015 179.134C455.218 179.511 441.817 187.105 433.417 195.359C425.018 203.566 427.424 218.706 434.031 227.337C434.974 228.61 436.06 229.79 437.192 230.874Z" fill="#E04136"/>
<path d="M419.308 208.565C418.128 210.216 416.949 211.914 416.383 213.848C415.863 215.782 416.052 218.046 417.373 219.602C419.497 222.102 423.413 221.677 426.575 220.828C433.747 218.894 440.59 215.593 446.63 211.254C446.441 213.423 444.459 214.885 442.902 216.348C441.345 217.81 440.071 220.309 441.345 222.055C442.383 223.47 444.459 223.47 446.158 223.187C455.407 221.724 463.853 215.829 468.477 207.716C467.581 210.782 465.222 213.187 463.712 216.065C462.202 218.894 461.871 222.951 464.467 224.837C466.732 226.488 469.893 225.639 472.441 224.46C480.652 220.64 487.447 213.848 491.363 205.641C490.137 207.575 488.862 209.603 488.721 211.867C488.532 214.131 489.901 216.725 492.166 217.055C493.581 217.291 494.95 216.631 496.129 215.876C501.65 212.433 505.378 206.254 505.897 199.793C506.416 193.284 503.774 186.633 498.866 182.294C494.902 178.804 489.759 176.87 484.616 175.785C474.046 173.521 462.626 174.276 452.528 178.191C448.753 179.653 445.922 182.719 442.713 185.077C438.513 188.143 434.55 191.539 430.822 195.17C426.669 199.321 422.8 203.802 419.308 208.565Z" fill="#3CA184"/>
<path d="M467.345 229.884C466.637 229.837 465.929 229.79 465.222 229.931C464.514 230.073 463.853 230.45 463.57 231.063C463.193 231.912 463.57 232.903 464.278 233.516C464.986 234.082 465.882 234.318 466.826 234.459C471.781 235.261 477.066 233.704 480.888 230.403C481.407 229.978 481.879 229.46 482.162 228.894C482.445 228.28 482.492 227.526 482.115 226.96C480.841 224.979 477.632 227.101 476.169 227.809C473.338 229.129 470.507 229.978 467.345 229.884Z" fill="white"/>
<path d="M474.093 225.781C473.574 225.781 473.102 225.686 472.63 225.45L473.243 224.224C473.715 224.46 474.282 224.46 474.848 224.271C475.414 224.083 475.839 223.658 476.027 223.187L477.302 223.705C476.971 224.554 476.263 225.215 475.32 225.592C474.942 225.686 474.518 225.781 474.093 225.781Z" fill="#00007F"/>
<path d="M468.572 195.217C465.929 195.689 463.193 195.736 460.692 196.727C458.191 197.717 455.973 200.028 456.209 202.717C456.398 205.122 458.615 207.009 460.975 207.575C463.334 208.141 465.788 207.622 468.147 206.962C469.657 206.537 471.214 206.065 472.772 206.113C474.329 206.16 476.028 206.82 476.783 208.235C477.538 209.65 476.924 211.725 475.414 212.103C481.973 211.112 487.824 206.443 490.184 200.264C493.204 202.717 498.3 201.302 500.14 197.859C501.934 194.416 500.659 189.841 497.639 187.388C486.928 178.71 478.528 193.472 468.572 195.217Z" fill="#44AD8C"/>
<path d="M561.437 164.937C580.784 61.6452 553.462 62.3999 603.339 65.5128C633.917 67.3994 670.582 68.3899 702.292 74.6629C719.09 78.0116 723.998 79.5681 722.535 110.178C720.129 161.117 724.847 155.221 679.406 150.41C633.964 145.6 597.724 135.318 589.466 144.279C581.68 152.58 561.437 164.937 561.437 164.937Z" fill="#00007F"/>
<path d="M657.935 147.675C664.778 148.665 671.95 149.561 679.358 150.363C721.874 154.844 720.459 160.315 722.11 119.234C698.8 121.734 676.999 132.818 657.935 147.675Z" fill="#0000EF"/>
<path d="M689.126 97.2079C659.304 89.6143 628.585 86.407 597.866 87.7276L597.818 86.3599C628.679 85.0864 659.54 88.2936 689.504 95.8872L689.126 97.2079Z" fill="#F3CF14"/>
<path d="M594.482 111.561L594.298 112.917L635.819 118.542L636.003 117.186L594.482 111.561Z" fill="#F3CF14"/>
<path d="M650.7 121.061L650.564 122.422L664.65 123.83L664.786 122.469L650.7 121.061Z" fill="#F3CF14"/>
<path d="M425.82 416.895H447.479L468.194 467.362C472.017 468.022 475.839 468.446 479.708 468.777C476.877 460.57 466.92 430.478 467.251 411.329C459.182 408.452 451.065 405.764 442.666 403.877C431.813 401.424 416.382 396.944 404.68 400.245C407.558 426.328 414.872 455.193 417.657 465.475C421.196 465.334 424.735 465.286 428.274 465.239C426.717 447.741 424.168 417.366 425.82 416.895Z" fill="#00007F"/>
<path d="M407.653 420.432C410.39 436.138 413.929 450.854 416.241 460.004C421.762 455.24 426.292 448.731 426.339 441.704C426.245 440.713 426.197 439.77 426.15 438.827C424.687 430.478 416.43 421.045 407.653 420.432Z" fill="#010166"/>
<path d="M472.111 452.316C473.055 452.08 473.857 452.127 474.565 452.41C473.008 447.081 471.45 440.996 470.129 434.865C465.127 440.572 462.721 454.957 472.111 452.316Z" fill="#010166"/>
<path d="M404.68 475.663H429.265C429.029 473.399 428.651 469.107 428.179 463.777C424.546 463.73 420.912 463.777 417.279 463.918C418.223 467.409 418.789 469.437 418.789 469.437C418.789 469.437 410.437 472.408 405.86 473.021C403.736 473.304 403.264 474.531 404.68 475.663Z" fill="#E04136"/>
<path d="M493.298 476.37C494.148 475.568 494.242 474.672 493.298 474.153C491.128 472.974 484.616 471.701 480.463 470.899C480.463 470.899 479.944 469.437 479.048 466.89C475.225 466.607 471.403 466.277 467.628 465.994L471.875 476.37H493.298Z" fill="#E04136"/>
<path d="M432.426 410.339C444.082 412.32 455.548 415.904 467.298 415.385C467.015 409.914 467.392 405.056 468.808 401.472C475.839 383.077 477.679 370.72 477.679 370.72L403.5 379.917C403.406 389.114 404.444 399.679 406.001 410.292C414.259 407.462 424.404 408.971 432.426 410.339Z" fill="#2C8469"/>
<path d="M405.718 392.793C408.455 396.614 412.702 398.594 417.09 399.821C425.726 402.179 435.493 402.038 443.893 398.83C453.661 395.151 465.929 388.643 473.291 381.473C476.216 378.644 474.753 375.106 477.396 372.04C477.537 371.144 477.632 370.673 477.632 370.673L403.453 379.87C403.406 382.747 403.5 385.765 403.689 388.926C404.208 390.293 404.869 391.567 405.718 392.793Z" fill="#1A5B45"/>
<path d="M515.099 336.761C513.966 348.269 511.088 361.806 504.293 371.427C498.111 380.153 483.53 382.134 472.441 383.077C470.884 386.614 469.61 390.246 468.383 393.925C482.587 392.84 501.414 391.237 511.135 379.823C520.761 368.503 524.253 351.146 525.669 336.808C526.329 330.016 515.759 330.063 515.099 336.761Z" fill="#FE7EB2"/>
<path d="M509.012 362.749C507.69 365.862 506.133 368.786 504.293 371.427C498.111 380.153 483.53 382.134 472.441 383.077C470.884 386.614 469.61 390.246 468.383 393.925C482.587 392.84 501.414 391.237 511.135 379.823C514.344 376.049 516.845 371.616 518.827 366.852C515.571 365.437 512.268 364.069 509.012 362.749Z" fill="#2C8469"/>
<path d="M515.099 336.761C514.485 320.96 514.485 317.659 517.977 317.659C517.977 317.659 517.977 314.876 520.242 315.017C522.507 315.159 522.743 317.659 522.743 317.659C522.743 317.659 523.592 316.197 525.669 316.197C527.745 316.197 526.329 330.771 525.621 336.761C524.914 342.751 515.099 336.761 515.099 336.761Z" fill="#FE7EB2"/>
<path d="M519.208 318.272L517.84 318.294L517.959 325.651L519.328 325.629L519.208 318.272Z" fill="#00007F"/>
<path d="M523.714 317.8L522.346 317.831L522.525 325.941L523.894 325.911L523.714 317.8Z" fill="#00007F"/>
<path d="M409.021 430.007C403.028 424.158 400.386 422.554 392.223 428.922C384.059 435.289 388.07 435.478 397.555 446.845C407.087 458.164 408.502 458.73 416.288 451.986C424.121 445.241 421.007 441.704 409.021 430.007Z" fill="#00007F"/>
<path d="M408.644 430.808C403.123 425.432 400.669 423.922 393.166 429.818C385.663 435.714 391.137 434.77 399.914 445.194C408.691 455.665 408.219 457.268 415.392 451.042C422.564 444.864 419.733 441.609 408.644 430.808Z" fill="white"/>
<path d="M411.286 448.59C411.05 449.108 410.956 449.816 411.428 450.146C411.853 450.476 412.466 450.288 412.938 450.005C413.787 449.486 416.854 446.561 415.486 445.524C414.023 444.439 411.664 447.741 411.286 448.59Z" fill="#53CAF1"/>
<path d="M409.588 414.253C403.925 411.753 395.714 411.989 391.892 406.282C386.513 398.264 398.829 392.416 404.68 390.34C411.05 388.076 408.313 377.889 401.896 380.153C391.656 383.784 378.633 391.472 380.19 404.16C380.85 409.678 384.059 414.253 388.542 417.413C390.996 419.158 393.827 420.432 396.705 421.375C397.696 421.705 412.655 425.007 408.172 428.922C406.332 430.525 404.161 432.836 406.851 434.251C406.52 435.053 406.662 437.411 409.257 436.94C409.21 439.157 413.551 438.213 415.628 436.421C424.027 429.063 418.27 418.074 409.588 414.253Z" fill="#FE7EB2"/>
<path d="M399.584 392.557C395.667 391.237 392.034 389.35 389.155 386.709C383.446 390.906 379.246 396.661 380.142 404.16C380.709 408.829 383.162 412.838 386.607 415.904C388.683 413.074 390.665 410.197 392.694 407.32C392.411 406.99 392.128 406.66 391.892 406.282C387.881 400.245 393.874 395.434 399.584 392.557Z" fill="#2C8469"/>
<path d="M401.896 380.2C396.281 382.181 389.863 385.388 385.427 389.963C387.645 392.793 391.515 394.208 395.431 395.057C398.404 392.887 402.179 391.284 404.68 390.388C411.05 388.076 408.313 377.889 401.896 380.2Z" fill="#1A5B45"/>
<path d="M406.473 434.44L406.048 433.119C407.983 432.506 409.682 431.374 411.05 429.865L412.088 430.761C410.578 432.506 408.644 433.78 406.473 434.44Z" fill="#00007F"/>
<path d="M408.266 437.176L408.077 435.808C410.248 435.478 412.277 434.204 413.551 432.459L414.684 433.261C413.127 435.336 410.814 436.751 408.266 437.176Z" fill="#00007F"/>
<path d="M443.327 296.246C400.056 299.877 403.736 342.09 403.736 342.09C403.736 342.09 378.538 340.345 379.199 360.768C379.859 381.19 411.286 388.878 441.769 385.058C472.253 381.238 496.743 376.049 493.723 361.381C490.703 346.713 477.726 345.015 477.726 345.015C477.726 345.015 481.454 293.038 443.327 296.246Z" fill="#FE7EB2"/>
<path d="M426.15 337.468C427.566 345.251 435.729 351.099 443.563 350.014C451.396 348.929 457.577 341.006 456.775 333.129C455.973 325.441 447.385 317.659 439.41 318.461C431.199 319.31 424.782 329.827 426.15 337.468Z" fill="white"/>
<path d="M429.548 336.761C430.633 342.798 437.003 347.373 443.043 346.524C449.131 345.675 453.944 339.496 453.33 333.412C452.717 327.422 446.016 321.385 439.835 322.045C433.464 322.658 428.463 330.818 429.548 336.761Z" fill="#00007F"/>
<path d="M406.19 356.9C406.426 358.221 407.322 359.353 408.455 360.06C409.587 360.768 410.909 361.145 412.23 361.381C414.165 361.711 416.194 361.758 417.987 360.957C422.611 358.881 421.007 352.561 416.713 351.288C413.032 350.25 405.293 351.759 406.19 356.9Z" fill="#FFB0D8"/>
<path d="M473.432 361.853C478.293 359.777 479.189 355.014 473.81 353.127C470.554 351.995 466.496 351.948 463.334 353.457C460.597 354.778 458.71 357.325 459.842 360.39C461.683 365.72 469.61 363.456 473.432 361.853Z" fill="#FFB0D8"/>
<path d="M435.21 376.002C434.786 376.002 434.361 375.955 433.936 375.861C431.813 375.389 430.02 373.644 429.453 371.522C428.887 369.399 429.642 366.994 431.294 365.579L432.19 366.616C430.916 367.748 430.35 369.588 430.775 371.192C431.199 372.842 432.568 374.163 434.219 374.54C435.871 374.918 437.806 374.304 439.08 372.984C440.307 371.758 440.967 369.918 440.967 367.984H442.336C442.383 370.295 441.533 372.465 440.071 373.974C438.797 375.248 436.956 376.002 435.21 376.002Z" fill="#E04136"/>
<path d="M430.303 314.263L428.982 313.791C430.256 310.301 433.04 307.471 436.532 306.151C439.976 304.83 443.987 305.113 447.243 306.905L446.582 308.131C443.704 306.528 440.118 306.292 437.051 307.471C433.983 308.603 431.435 311.15 430.303 314.263Z" fill="#00007F"/>
<path d="M449.98 288.699C452.434 286.577 455.878 290.02 453.613 292.425C452.339 293.793 452.811 293.652 451.254 294.595C455.218 292.048 457.247 290.869 461.211 288.322C462.39 287.567 464.042 286.813 465.127 287.756C466.024 288.558 465.788 290.02 465.363 291.152C463.57 295.916 459.512 299.736 454.652 301.245C451.065 302.377 438.985 302.707 442.052 295.963C443.327 293.133 447.715 290.633 449.98 288.699Z" fill="#E04136"/>
<path d="M431.105 360.579C429.878 362.136 430.775 364.824 432.662 365.39C434.55 365.956 436.767 364.211 436.626 362.23C435.871 364.07 437.475 366.475 439.504 366.428C441.533 366.381 443.043 363.928 442.147 362.089C443.421 363.551 444.742 365.013 446.488 365.815C448.234 366.616 450.546 366.522 451.82 365.107C453.094 363.692 453 361.523 452.764 359.636C452.575 357.938 452.292 355.957 450.877 355.014C449.744 354.259 448.281 354.306 446.913 354.401C440.637 354.872 423.461 352.703 422.8 362.843C425.207 363.504 429.501 362.702 431.105 360.579Z" fill="#CC332F"/>
<path d="M398.593 332.28C396.611 332.327 394.629 333.412 393.591 335.11C392.27 337.28 392.458 340.015 393.025 342.515C393.874 346.382 395.573 350.061 397.885 353.316C399.253 355.202 401.094 357.089 403.453 357.231C405.105 357.325 406.709 356.57 407.983 355.533C411.475 352.797 413.221 348.033 412.372 343.694C411.381 338.317 404.302 332.233 398.593 332.28Z" fill="#0000EF"/>
<path d="M401.943 347.892C400.999 348.788 399.867 349.684 399.584 350.957C399.253 352.655 400.858 354.306 402.557 354.401C404.302 354.495 405.907 353.41 406.898 351.995C407.889 350.58 408.361 348.882 408.785 347.231C409.21 345.581 409.635 343.883 409.257 342.232C408.691 339.968 406.568 338.506 405.293 340.534C404.727 341.43 404.822 343.269 404.397 344.307C403.831 345.628 402.981 346.901 401.943 347.892Z" fill="#00007F"/>
<path d="M568.185 401.99C561.956 398.028 558.7 400.245 556.435 404.066C554.17 407.886 557.001 406.141 557.001 406.141C557.001 406.141 556.246 410.716 559.644 408.263C559.644 408.263 558.322 413.357 560.776 412.414C563.23 411.471 564.362 407.32 568.137 408.641C571.912 409.961 574.932 405.056 574.932 405.056L568.185 401.99Z" fill="#F3CF14"/>
<path d="M560.635 410.574L559.266 410.433C559.549 407.556 561.39 404.915 563.985 403.594L564.598 404.82C562.428 405.905 560.871 408.169 560.635 410.574Z" fill="#0000EF"/>
<path d="M556.718 408.216C556.671 405.716 558.322 403.216 560.682 402.32L561.154 403.594C559.313 404.301 558.039 406.188 558.087 408.169L556.718 408.216Z" fill="#0000EF"/>
<path d="M587.579 445.996C598.479 451.939 601.782 470.333 600.272 473.776C601.027 473.87 601.782 473.965 602.584 474.059C605.321 474.342 608.058 474.436 610.795 474.531C610.842 474.012 610.889 473.446 610.889 472.833C610.795 461.324 604.944 299.406 596.969 284.313C588.994 269.22 564.126 255.07 555.586 288.511C531.048 312.518 531.331 321.951 531.331 321.951H555.586C555.586 321.951 565.353 346.1 567.335 375.389C569.27 403.688 564.315 465.522 563.796 472.078C567.052 472.644 570.591 471.654 573.894 472.125C573.989 471.418 573.989 470.569 573.989 469.673C573.941 460.806 576.254 439.77 587.579 445.996Z" fill="#F3CF14"/>
<path d="M565.306 450.146C564.551 461.419 563.891 469.814 563.702 471.984C566.958 472.55 570.497 471.559 573.8 472.031C573.894 471.323 573.894 470.474 573.894 469.578C573.894 465.003 574.555 457.08 576.773 451.42C572.951 450.854 569.128 450.429 565.306 450.146Z" fill="white"/>
<path d="M599.281 453.919C597.913 453.872 596.592 453.778 595.223 453.636C599.989 461.324 601.357 471.276 600.272 473.729C601.027 473.823 601.782 473.918 602.584 474.012C605.321 474.295 608.058 474.389 610.795 474.484C610.842 473.965 610.889 473.399 610.889 472.786C610.889 470.758 610.701 464.013 610.323 454.25C606.595 454.202 602.915 454.061 599.281 453.919Z" fill="white"/>
<path d="M566.533 321.621C559.03 321.621 555.491 321.856 555.491 321.856C555.491 321.856 556.954 325.488 558.842 331.572C559.361 333.223 564.032 328.082 566.533 321.621Z" fill="#DD9903"/>
<path d="M597.394 295.397C593.241 287.331 586.257 280.728 577.905 277.144C572.337 274.738 565.07 273.512 560.163 277.946C554.783 282.756 559.691 286.624 564.127 289.595C569.034 292.897 574.602 295.114 580.453 296.104C581.822 296.34 597.677 296.01 597.394 295.397Z" fill="#3CA184"/>
<path d="M579.274 282.143C593.194 300.821 594.657 324.592 594.657 324.592C594.657 324.592 618.062 320.96 622.781 317.8C622.781 317.8 600.367 289.831 596.12 287.284C591.92 284.69 579.274 282.143 579.274 282.143Z" fill="#3CA184"/>
<path d="M598.668 290.02C598.102 287.379 597.488 285.398 596.922 284.266C589.183 269.644 565.495 255.825 556.293 285.681C570.497 286.199 584.606 287.945 598.668 290.02Z" fill="#0000EF"/>
<path d="M566.297 436.044C574.272 441.515 583.19 446.232 593.194 445.1C599.14 444.439 604.708 441.987 609.663 438.591C608.672 414.678 607.114 382.087 605.18 352.938C599.234 359.07 587.768 368.928 579.274 372.088C572.526 374.635 569.506 369.163 565.589 360.626C566.297 365.296 566.911 370.201 567.241 375.295C568.326 390.671 567.43 415.527 566.297 436.044Z" fill="#E04136"/>
<path d="M597.535 428.45C587.532 428.686 576.867 427.554 566.675 428.214C566.156 438.732 565.542 448.59 565.023 456.231C568.468 456.089 580.218 457.693 583.662 457.787C585.361 450.241 580.642 442.175 587.579 445.996C591.873 448.354 592.298 457.787 592.345 457.787C596.733 457.976 606.029 457.598 610.418 457.834C610.134 450.052 609.757 439.77 609.238 428.12C605.321 428.214 601.452 428.356 597.535 428.45Z" fill="#2C8469"/>
<path d="M603.434 386.096C602.537 385.53 602.018 384.728 601.829 383.926C596.073 389.35 595.506 410.291 594.893 415.244C593.996 422.083 591.778 428.827 584.936 431.752C579.321 434.157 572.384 433.308 566.533 431.139C566.533 431.233 566.533 431.327 566.533 431.422C572.243 434.865 585.267 442.977 591.637 443.779C599.47 444.722 602.49 437.459 609.474 433.355C608.908 420.29 608.2 405.103 607.397 389.539C606.123 388.171 604.802 386.992 603.434 386.096Z" fill="#CC332F"/>
<path d="M600.602 470.757C600.65 472.408 600.461 473.634 600.036 474.106C598.054 476.417 586.918 475.71 583.002 476.559C580.831 477.03 582.058 480.615 595.553 479.907C605.887 479.341 612.541 482.407 610.842 472.833C610.795 472.55 610.842 472.125 610.842 471.606C607.397 471.229 604 470.993 600.602 470.757Z" fill="#0000EF"/>
<path d="M563.702 471.984C562.805 474.483 559.125 475.946 550.584 475.663C543.27 475.427 543.081 480.379 557.709 480.096C564.74 479.955 570.025 480.19 572.29 478.823C574.272 477.596 574.13 475.238 573.989 471.984C570.544 471.701 567.335 472.361 563.702 471.984Z" fill="#0000EF"/>
<path d="M589.089 284.219C613.06 288.322 623.111 287.19 624.338 289.973C625.612 292.755 626.131 295.114 617.165 292.944C608.2 290.775 605.368 290.916 598.621 289.973C591.873 289.029 589.089 284.219 589.089 284.219Z" fill="#0000EF"/>
<path d="M558.842 282.143C561.814 276.625 570.638 273.889 572.384 282.143C568.326 282.143 558.842 282.143 558.842 282.143Z" fill="#3CA184"/>
<path d="M570.167 310.489C571.488 311.904 573.47 312.612 575.404 312.706C578.66 312.848 582.011 311.244 583.757 308.461C587.579 302.236 581.633 295.444 574.933 296.529C569.317 297.425 566.392 306.386 570.167 310.489Z" fill="white"/>
<path d="M572.384 308.461C573.234 309.405 574.555 309.876 575.829 309.924C578 310.018 580.218 308.933 581.35 307.094C583.851 302.99 579.934 298.462 575.499 299.217C571.818 299.83 569.883 305.773 572.384 308.461Z" fill="#0000EF"/>
<path d="M574.225 325.818L574.036 324.45C575.357 324.262 576.631 323.46 577.528 322.234C578.424 321.007 578.802 319.592 578.566 318.225L579.934 317.989C580.217 319.687 579.746 321.526 578.66 323.035C577.528 324.545 575.923 325.535 574.225 325.818Z" fill="white"/>
<path d="M579.274 293.557C577.009 291.906 574.225 290.963 571.393 290.869L571.441 289.501C574.508 289.595 577.575 290.68 580.076 292.472L579.274 293.557Z" fill="#00007F"/>
<path d="M581.067 313.272C580.123 314.263 579.698 315.866 580.406 317.046C581.02 318.13 582.294 318.602 583.521 318.744C585.786 319.074 588.192 318.555 590.127 317.329C591.307 316.574 592.392 315.395 592.297 313.98C592.156 312.612 590.835 311.574 589.466 311.339C587.06 310.867 582.86 311.433 581.067 313.272Z" fill="#FE7EB2"/>
<path d="M546.997 373.738C523.545 374.116 508.351 376.332 508.351 376.332C508.351 376.332 523.876 411.093 528.264 420.102H532.417L534.823 425.62C534.823 425.62 579.179 426.705 582.058 425.62L584.936 413.923H557.756L546.997 373.738Z" fill="#00007F"/>
<path d="M531.19 403.075L529.821 402.792C531.284 395.859 534.21 389.114 538.315 383.266L539.448 384.067C535.484 389.727 532.605 396.283 531.19 403.075Z" fill="#93D8F8"/>
<path d="M556.624 423.545C552.707 422.366 549.829 420.573 547.8 418.168C545.629 415.527 543.506 415.385 543.506 416.47C543.506 416.47 541.382 414.301 539.495 415.48C539.495 415.48 535.437 414.159 536.522 417.696C537.088 419.536 545.865 431.091 553.557 432.223C562.569 433.544 590.929 438.638 597.535 424.064C607.256 402.651 603.056 384.728 603.056 384.728L593.855 389.067C593.855 389.067 594.043 419.63 583.804 422.319C573.564 425.007 556.624 423.545 556.624 423.545Z" fill="#F3CF14"/>
<path d="M549.64 426.186C546.526 424.064 544.166 420.762 543.222 417.131L544.544 416.753C545.44 420.055 547.564 423.073 550.395 425.007L549.64 426.186Z" fill="#0000EF"/>
<path d="M543.694 426.422C540.957 423.45 539.212 419.583 538.787 415.574L540.155 415.432C540.533 419.158 542.184 422.743 544.732 425.479L543.694 426.422Z" fill="#0000EF"/>
</svg>
