<svg width="450" height="87" viewBox="0 0 450 87" fill="none" xmlns="http://www.w3.org/2000/svg">
<path d="M23.5354 67.5354L66.5354 24.5354L59.4644 17.4644L16.4644 60.4644L23.5354 67.5354Z" fill="#0053EA"/>
<path d="M40.5354 24.5354L23.5354 41.5354L16.4644 34.4644L33.4644 17.4644L40.5354 24.5354Z" fill="#0053EA"/>
<path d="M49.5354 67.5354L66.5354 50.5354L59.4644 43.4644L42.4644 60.4644L49.5354 67.5354Z" fill="#0053EA"/>
<path fill-rule="evenodd" clip-rule="evenodd" d="M0 84V0H84V84H0ZM10 10H74V74H10V10Z" fill="#0053EA"/>
<path d="M165.494 36.608H152.71C152.54 35.2955 152.19 34.1108 151.662 33.054C151.134 31.9972 150.435 31.0937 149.565 30.3438C148.696 29.5938 147.665 29.0227 146.472 28.6307C145.295 28.2216 143.991 28.017 142.56 28.017C140.02 28.017 137.83 28.6392 135.989 29.8835C134.165 31.1278 132.759 32.9261 131.77 35.2784C130.798 37.6307 130.312 40.4773 130.312 43.8182C130.312 47.2955 130.807 50.2102 131.795 52.5625C132.801 54.8977 134.207 56.6619 136.014 57.8551C137.838 59.0312 139.994 59.6193 142.483 59.6193C143.881 59.6193 145.151 59.4403 146.293 59.0824C147.452 58.7244 148.466 58.2045 149.335 57.5227C150.222 56.8239 150.946 55.9801 151.509 54.9915C152.088 53.9858 152.489 52.8523 152.71 51.5909L165.494 51.6676C165.273 53.9858 164.599 56.2699 163.474 58.5199C162.366 60.7699 160.841 62.8239 158.898 64.6818C156.955 66.5227 154.585 67.9886 151.79 69.0795C149.011 70.1705 145.824 70.7159 142.227 70.7159C137.489 70.7159 133.244 69.6761 129.494 67.5966C125.761 65.5 122.813 62.4489 120.648 58.4432C118.483 54.4375 117.401 49.5625 117.401 43.8182C117.401 38.0568 118.5 33.1733 120.699 29.1676C122.898 25.1619 125.872 22.1193 129.622 20.0398C133.372 17.9602 137.574 16.9205 142.227 16.9205C145.398 16.9205 148.33 17.3636 151.023 18.25C153.716 19.1193 156.085 20.3977 158.131 22.0852C160.176 23.7557 161.838 25.8097 163.116 28.2472C164.395 30.6847 165.188 33.4716 165.494 36.608ZM198.075 53.0483V30.7273H210.552V70H198.637V62.6875H198.228C197.359 65.0909 195.876 67 193.779 68.4148C191.7 69.8125 189.185 70.5114 186.237 70.5114C183.56 70.5114 181.208 69.8977 179.18 68.6705C177.151 67.4432 175.575 65.7301 174.45 63.5312C173.325 61.3153 172.754 58.7244 172.737 55.7585V30.7273H185.239V53.304C185.256 55.4347 185.819 57.1136 186.927 58.3409C188.035 59.5682 189.543 60.1818 191.452 60.1818C192.697 60.1818 193.813 59.9091 194.802 59.3636C195.808 58.8011 196.6 57.9915 197.18 56.9347C197.776 55.8608 198.075 54.5653 198.075 53.0483ZM218.51 70V30.7273H230.655V37.8864H231.064C231.78 35.2955 232.947 33.3693 234.567 32.108C236.186 30.8295 238.07 30.1903 240.217 30.1903C240.797 30.1903 241.393 30.233 242.007 30.3182C242.621 30.3864 243.192 30.4972 243.72 30.6506V41.517C243.124 41.3125 242.339 41.1506 241.368 41.0312C240.413 40.9119 239.561 40.8523 238.811 40.8523C237.328 40.8523 235.99 41.1847 234.797 41.8494C233.621 42.4972 232.692 43.4091 232.01 44.5852C231.345 45.7443 231.013 47.108 231.013 48.6761V70H218.51ZM248.815 70V30.7273H260.96V37.8864H261.369C262.085 35.2955 263.252 33.3693 264.871 32.108C266.491 30.8295 268.374 30.1903 270.522 30.1903C271.102 30.1903 271.698 30.233 272.312 30.3182C272.925 30.3864 273.496 30.4972 274.025 30.6506V41.517C273.428 41.3125 272.644 41.1506 271.673 41.0312C270.718 40.9119 269.866 40.8523 269.116 40.8523C267.633 40.8523 266.295 41.1847 265.102 41.8494C263.925 42.4972 262.996 43.4091 262.315 44.5852C261.65 45.7443 261.317 47.108 261.317 48.6761V70H248.815ZM279.119 70V30.7273H291.622V70H279.119ZM285.384 26.1506C283.628 26.1506 282.119 25.571 280.858 24.4119C279.597 23.2358 278.966 21.821 278.966 20.1676C278.966 18.5312 279.597 17.1335 280.858 15.9744C282.119 14.7983 283.628 14.2102 285.384 14.2102C287.156 14.2102 288.665 14.7983 289.909 15.9744C291.17 17.1335 291.801 18.5312 291.801 20.1676C291.801 21.821 291.17 23.2358 289.909 24.4119C288.665 25.571 287.156 26.1506 285.384 26.1506ZM317.913 70.7415C313.771 70.7415 310.217 69.8892 307.251 68.1847C304.302 66.4801 302.035 64.1108 300.45 61.0767C298.864 58.0256 298.072 54.4972 298.072 50.4915C298.072 46.4687 298.864 42.9403 300.45 39.9062C302.052 36.8551 304.327 34.4773 307.276 32.7727C310.242 31.0682 313.779 30.2159 317.887 30.2159C321.518 30.2159 324.68 30.8722 327.373 32.1847C330.083 33.4972 332.197 35.3551 333.714 37.7585C335.248 40.1449 336.058 42.9489 336.143 46.1705H324.458C324.219 44.1591 323.538 42.5824 322.413 41.4403C321.305 40.2983 319.856 39.7273 318.066 39.7273C316.617 39.7273 315.347 40.1364 314.256 40.9545C313.165 41.7557 312.313 42.9489 311.7 44.5341C311.103 46.1023 310.805 48.0455 310.805 50.3636C310.805 52.6818 311.103 54.642 311.7 56.2443C312.313 57.8295 313.165 59.0312 314.256 59.8494C315.347 60.6506 316.617 61.0511 318.066 61.0511C319.225 61.0511 320.248 60.804 321.134 60.3097C322.038 59.8153 322.779 59.0909 323.359 58.1364C323.938 57.1648 324.305 55.9886 324.458 54.608H336.143C336.023 57.8466 335.214 60.6761 333.714 63.0966C332.231 65.517 330.143 67.4006 327.45 68.7472C324.773 70.0767 321.594 70.7415 317.913 70.7415ZM367.879 53.0483V30.7273H380.357V70H368.442V62.6875H368.033C367.163 65.0909 365.68 67 363.584 68.4148C361.504 69.8125 358.99 70.5114 356.041 70.5114C353.365 70.5114 351.013 69.8977 348.984 68.6705C346.956 67.4432 345.379 65.7301 344.254 63.5312C343.129 61.3153 342.558 58.7244 342.541 55.7585V30.7273H355.044V53.304C355.061 55.4347 355.624 57.1136 356.732 58.3409C357.839 59.5682 359.348 60.1818 361.257 60.1818C362.501 60.1818 363.618 59.9091 364.607 59.3636C365.612 58.8011 366.405 57.9915 366.984 56.9347C367.581 55.8608 367.879 54.5653 367.879 53.0483ZM400.817 17.6364V70H388.315V17.6364H400.817ZM427.108 70.7415C422.983 70.7415 419.438 69.8977 416.472 68.2102C413.523 66.5057 411.247 64.1364 409.645 61.1023C408.06 58.0511 407.267 54.5142 407.267 50.4915C407.267 46.4517 408.06 42.9148 409.645 39.8807C411.247 36.8295 413.523 34.4602 416.472 32.7727C419.438 31.0682 422.983 30.2159 427.108 30.2159C431.233 30.2159 434.77 31.0682 437.719 32.7727C440.685 34.4602 442.96 36.8295 444.545 39.8807C446.148 42.9148 446.949 46.4517 446.949 50.4915C446.949 54.5142 446.148 58.0511 444.545 61.1023C442.96 64.1364 440.685 66.5057 437.719 68.2102C434.77 69.8977 431.233 70.7415 427.108 70.7415ZM427.185 61.3068C428.685 61.3068 429.955 60.8466 430.994 59.9261C432.034 59.0057 432.827 57.7273 433.372 56.0909C433.935 54.4545 434.216 52.5625 434.216 50.4148C434.216 48.233 433.935 46.3239 433.372 44.6875C432.827 43.0511 432.034 41.7727 430.994 40.8523C429.955 39.9318 428.685 39.4716 427.185 39.4716C425.634 39.4716 424.321 39.9318 423.247 40.8523C422.19 41.7727 421.381 43.0511 420.818 44.6875C420.273 46.3239 420 48.233 420 50.4148C420 52.5625 420.273 54.4545 420.818 56.0909C421.381 57.7273 422.19 59.0057 423.247 59.9261C424.321 60.8466 425.634 61.3068 427.185 61.3068Z" fill="#0053EA"/>
</svg>
