<svg width="523" height="523" viewBox="0 0 523 523" fill="none" xmlns="http://www.w3.org/2000/svg">
<path d="M159.633 90.445L52.3 214.566L117.212 392.862L458.488 347.238L470.7 169.612L159.633 90.445Z" fill="#FFEADC"/>
<path d="M130.912 138.885H78.7351C76.7955 138.885 75.2231 140.457 75.2231 142.396C75.2231 144.335 76.7955 145.907 78.7351 145.907H130.912C132.852 145.907 134.424 144.335 134.424 142.396C134.424 140.457 132.852 138.885 130.912 138.885Z" fill="black" stroke="black" stroke-width="5" stroke-miterlimit="10"/>
<path d="M53.916 124.736C53.916 124.736 55.6524 106.394 66.8498 106.394C78.0472 106.394 84.6135 124.736 74.9563 124.736C65.2991 124.736 68.6803 105.908 80.3615 105.908C91.2713 105.908 94.119 124.736 89.5323 124.736C84.9456 124.736 86.3473 113.923 93.0077 113.923C99.6681 113.923 100.445 124.736 100.445 124.736H147.776" stroke="black" stroke-width="5" stroke-linecap="round" stroke-linejoin="round"/>
<path d="M198.259 399.148C198.259 399.148 197.257 412.786 197.046 416.857C196.917 419.383 196.917 421.914 197.046 424.441H226.179L245.175 430.296L280.095 429.652C280.095 429.652 279.596 423.512 273.819 419.085C268.043 414.658 254.539 415.871 248.755 411.444C242.97 407.017 235.612 392.292 235.612 392.292L198.259 399.148Z" fill="#FF2B4A"/>
<path d="M245.318 432.555C242.107 432.555 238.504 431.067 234.688 429.49C231.106 428.013 227.403 426.483 224.466 426.483H197.616C197.146 426.483 196.696 426.296 196.364 425.964C196.032 425.632 195.845 425.182 195.845 424.713C195.845 424.243 196.032 423.793 196.364 423.461C196.696 423.129 197.146 422.942 197.616 422.942H224.466C228.106 422.942 232.139 424.605 236.04 426.216C239.367 427.589 242.811 429.012 245.318 429.012C246.953 429.012 254.701 428.852 262.193 428.698C270.059 428.536 278.194 428.368 280.025 428.368C280.483 428.386 280.916 428.58 281.234 428.911C281.552 429.241 281.73 429.682 281.73 430.14C281.73 430.598 281.552 431.039 281.234 431.369C280.916 431.7 280.483 431.894 280.025 431.912C278.231 431.912 270.114 432.079 262.266 432.241C254.419 432.403 246.989 432.555 245.318 432.555Z" fill="black"/>
<path d="M225.18 425.149L224.396 432.518H198.615L197.616 424.856L225.18 425.149Z" fill="black"/>
<path d="M219.754 421.143C218.306 414.297 210.288 409.425 199.75 408.782" stroke="white" stroke-width="4" stroke-linecap="round" stroke-linejoin="round"/>
<path d="M261.239 416.502C256.239 416.321 248.634 420.57 246.134 426.962" stroke="white" stroke-width="4" stroke-linecap="round" stroke-linejoin="round"/>
<path d="M251.887 414.538C251.887 414.538 247.353 415.822 244.461 420C244.461 420 239.32 417.43 234.822 416.862C230.324 416.295 227.288 417.715 227.714 421.734" stroke="white" stroke-width="4" stroke-linecap="round" stroke-linejoin="round"/>
<path d="M255.24 213.334C255.24 213.334 265.352 214.171 268.859 214.673C272.365 215.175 286.489 218.75 286.379 222.257C286.269 225.763 283.33 225.104 283.33 225.104C283.33 225.104 286.248 226.033 288.183 226.443C290.223 226.877 293.544 226.836 293.442 229.375C293.442 229.375 295.55 230.073 295.194 231.859C294.839 233.645 291.272 233.867 291.272 233.867C291.272 233.867 292.289 236.352 288.808 236.294C288.808 236.294 289.773 238.723 282.88 238.216C279.201 237.955 268.432 236.043 262.483 234.424C256.534 232.806 248.425 229.074 248.425 229.074L251.728 215.513L255.24 213.334Z" fill="#FEB0A3"/>
<path d="M288.623 235.873C288.558 235.687 288.45 235.519 288.308 235.382C288.165 235.246 287.993 235.145 287.804 235.088C287.439 234.989 287.06 234.947 286.682 234.966C283.988 234.93 281.325 234.378 278.837 233.342" stroke="black" stroke-width="4" stroke-linecap="round" stroke-linejoin="round"/>
<path d="M290.558 233.344C290.493 233.158 290.386 232.99 290.243 232.853C290.101 232.717 289.928 232.616 289.739 232.56C289.374 232.461 288.996 232.42 288.618 232.44C285.94 232.408 282.642 231.655 280.137 230.609" stroke="black" stroke-width="4" stroke-linecap="round" stroke-linejoin="round"/>
<path d="M292.645 229.474C291.922 229.75 291.156 229.894 290.383 229.898C289.435 229.931 288.487 229.881 287.548 229.749C285.686 229.53 283.872 229.014 282.174 228.219C281.724 227.994 281.327 228.669 281.779 228.896C284.629 230.2 287.749 230.802 290.88 230.651C291.622 230.601 292.351 230.432 293.04 230.151C293.502 229.953 293.102 229.275 292.645 229.474Z" fill="black"/>
<path d="M281.978 224.869L275.702 222.563C275.702 222.563 275.093 223.828 273.197 224.869C271.301 225.91 268.861 226.135 268.861 226.135" stroke="black" stroke-width="4" stroke-linecap="round" stroke-linejoin="round"/>
<path d="M263.995 164.342C267.036 164.342 269.502 161.877 269.502 158.835C269.502 155.794 267.036 153.328 263.995 153.328C260.953 153.328 258.488 155.794 258.488 158.835C258.488 161.877 260.953 164.342 263.995 164.342Z" fill="black" stroke="black" stroke-width="5" stroke-miterlimit="10"/>
<path d="M81.928 237.162C84.7919 237.162 87.1135 234.841 87.1135 231.977C87.1135 229.113 84.7919 226.791 81.928 226.791C79.0641 226.791 76.7424 229.113 76.7424 231.977C76.7424 234.841 79.0641 237.162 81.928 237.162Z" fill="black" stroke="black" stroke-width="5" stroke-miterlimit="10"/>
<path d="M60.9296 319.132C61.6459 319.132 62.2267 318.551 62.2267 317.835C62.2267 317.119 61.6459 316.538 60.9296 316.538C60.2133 316.538 59.6326 317.119 59.6326 317.835C59.6326 318.551 60.2133 319.132 60.9296 319.132Z" fill="black" stroke="black" stroke-width="5" stroke-miterlimit="10"/>
<path d="M227.675 262.355C229.108 262.355 230.269 261.194 230.269 259.761C230.269 258.328 229.108 257.167 227.675 257.167C226.242 257.167 225.081 258.328 225.081 259.761C225.081 261.194 226.242 262.355 227.675 262.355Z" fill="black" stroke="black" stroke-width="5" stroke-miterlimit="10"/>
<path d="M90.0581 370.807C90.0581 370.807 81.0076 375.415 77.6342 377.345C74.2609 379.274 71.2065 381.468 71.2065 381.468L76.0809 396.465L83.0969 409.104L84.9275 421.637L92.8143 429.545L104.529 430.528L129.04 430.005C129.04 430.005 129.793 427.785 126.597 422.16C123.067 415.947 110.868 408.866 108.923 406.949C105.228 403.306 107.207 392.166 107.207 392.166L90.0581 370.807Z" fill="#FF2B4A"/>
<path d="M70.2964 381.722C70.2964 381.722 71.5804 389.766 75.4375 396.084C79.2946 402.401 82.7098 407.205 83.5675 418.133C84.4252 429.061 96.3261 430.813 99.2183 430.813H129.965" stroke="black" stroke-width="11" stroke-linecap="round" stroke-linejoin="round"/>
<path d="M69.1171 382.258L62.7966 386.442C62.7966 386.442 64.567 394.133 66.4393 398.866C68.3666 403.74 74.0437 410.649 74.0437 410.649L80.6858 407.971" fill="black"/>
<path d="M85.8844 375.836C87.2968 378.239 88.0491 380.972 88.0653 383.759C88.0653 388.919 85.636 394.138 81.4729 398.403" stroke="white" stroke-width="4" stroke-linecap="round" stroke-linejoin="round"/>
<path d="M115.356 414.143C109.979 413.745 99.9846 417.317 97.2703 425.887" stroke="white" stroke-width="4" stroke-linecap="round" stroke-linejoin="round"/>
<path d="M85.5105 406.86C85.5105 406.86 87.5397 406.11 89.3807 408.181C91.2217 410.252 92.2729 418.379 93.7373 420.748C93.7373 420.748 96.6975 416.826 98.5097 415.5C101.221 413.502 105.079 412.179 105.079 412.179C105.079 412.179 101.248 408.358 100.233 404.072C99.2183 399.786 98.3188 393.503 100.345 388.861" stroke="white" stroke-width="5" stroke-linecap="round" stroke-linejoin="round"/>
<path d="M461.702 107.095H314.791V407.77H461.702V107.095Z" fill="white" stroke="black" stroke-width="5" stroke-miterlimit="10"/>
<path d="M200.074 177.344L207.37 198.337L255.603 213.334C255.603 213.334 251.961 219.976 251.32 226.409C250.679 232.842 251.106 240.07 251.106 240.07L194.237 225.117L188.981 193.411L200.074 177.344Z" fill="white"/>
<path d="M252.47 324.365C252.47 324.365 254.092 306.219 265.352 306.219C275.864 306.219 278.61 324.365 274.191 324.365C269.771 324.365 271.121 313.944 277.54 313.944C283.96 313.944 284.706 324.365 284.706 324.365H321.627" stroke="black" stroke-width="5" stroke-linecap="round" stroke-linejoin="round"/>
<path d="M292.841 207.767C295.032 207.767 296.808 205.991 296.808 203.8C296.808 201.609 295.032 199.833 292.841 199.833C290.65 199.833 288.874 201.609 288.874 203.8C288.874 205.991 290.65 207.767 292.841 207.767Z" stroke="black" stroke-width="10" stroke-linecap="round" stroke-linejoin="round"/>
<path d="M292.841 223.295V208.449" stroke="black" stroke-width="7" stroke-linecap="round" stroke-linejoin="round"/>
<path d="M292.841 221.046H297.116" stroke="black" stroke-width="5" stroke-linecap="round" stroke-linejoin="round"/>
<path d="M292.841 218.342H295.618" stroke="black" stroke-width="5" stroke-linecap="round" stroke-linejoin="round"/>
<path d="M293.191 202.166C294.179 202.166 294.98 199.468 294.98 196.141C294.98 192.813 294.179 190.116 293.191 190.116C292.203 190.116 291.403 192.813 291.403 196.141C291.403 199.468 292.203 202.166 293.191 202.166Z" stroke="black" stroke-width="5" stroke-linecap="round" stroke-linejoin="round"/>
<path d="M347.601 195.079C347.601 195.079 317.916 178.487 314.791 177.514C311.666 176.541 300.932 177.062 299.072 177.935C297.213 178.808 290.299 187.713 292.433 189.535C295.048 191.768 299.899 183.641 299.899 183.641C299.899 183.641 310.408 181.766 309.726 187.163C308.797 194.485 293.484 185.239 292.749 190.845C292.161 195.325 306.151 198.429 315.1 201.975C324.048 205.521 344.225 216.232 344.225 216.232L347.601 195.079Z" fill="#FEB0A3"/>
<path d="M314.791 177.514C311.277 176.016 303.024 173.704 300.649 173.945C294.232 174.596 283.605 175.427 284.109 178.652C284.695 182.407 298.989 179.141 298.989 179.141L313.295 178.963L314.791 177.514Z" fill="#FEB0A3"/>
<path d="M461.702 407.77L333.465 424.354V91.0072L461.702 107.095V407.77Z" fill="black" stroke="black" stroke-width="5" stroke-linecap="round" stroke-linejoin="round"/>
<path d="M192.694 202.838C192.694 202.838 216.752 270.524 227.675 302.017C238.598 333.509 260.284 396.499 260.284 396.499C260.284 396.499 241.142 399.274 231.182 400.558C221.221 401.842 204.022 400.736 196.481 401.057C196.481 401.057 187.017 359.458 183.448 347.238C179.878 335.018 157.06 266.992 157.06 266.992L169.714 202.979L192.694 202.838Z" fill="#0061FA"/>
<path d="M140.253 223.386C140.253 223.386 165.744 294.237 175.215 321.629C184.687 349.022 206.496 412.281 206.496 412.281" stroke="white" stroke-miterlimit="10"/>
<path d="M148.833 223.386C148.833 223.386 174.324 294.237 183.795 321.629C193.267 349.022 215.076 412.281 215.076 412.281" stroke="white" stroke-miterlimit="10"/>
<path d="M157.423 223.386C157.423 223.386 182.914 294.237 192.388 321.629C201.862 349.022 223.656 412.281 223.656 412.281" stroke="white" stroke-miterlimit="10"/>
<path d="M165.995 223.386C165.995 223.386 191.484 294.237 200.958 321.629C210.432 349.022 232.238 412.281 232.238 412.281" stroke="white" stroke-miterlimit="10"/>
<path d="M174.575 223.386C174.575 223.386 200.066 294.237 209.537 321.629C219.009 349.022 240.818 412.281 240.818 412.281" stroke="white" stroke-miterlimit="10"/>
<path d="M183.155 223.386C183.155 223.386 208.646 294.237 218.117 321.629C227.589 349.022 249.398 412.281 249.398 412.281" stroke="white" stroke-miterlimit="10"/>
<path d="M183.929 206.941C183.929 206.941 217.226 294.237 226.7 321.629C236.174 349.021 257.98 412.281 257.98 412.281" stroke="white" stroke-miterlimit="10"/>
<g style="mix-blend-mode:multiply">
<path d="M182.341 216.334L168.087 211.148L157.06 266.992C157.06 266.992 168.539 301.211 176.486 325.468C180.032 304.888 182.284 286.416 182.982 276.957C185.438 243.755 182.341 216.334 182.341 216.334Z" fill="#0043AE"/>
</g>
<path d="M186.91 202.979C186.91 202.979 186.972 235.143 181.099 266.997C176.628 291.246 150.206 383.652 131.995 408.73C131.995 408.73 109.715 398.874 102.218 391.805C94.7205 384.737 86.5774 368.668 86.5774 368.668C86.5774 368.668 114.856 306.74 120.212 292.6C125.567 278.461 121.074 219.976 121.074 219.976L145.64 202.979H186.91Z" fill="#0061FA"/>
<path d="M174.068 194.483C174.068 194.483 171.57 242.133 163.571 274.314C155.572 306.494 132.293 380.919 113.81 408.013" stroke="white" stroke-miterlimit="10"/>
<path d="M183.401 194.483C183.401 194.483 180.903 242.133 172.904 274.314C164.905 306.494 141.626 380.914 123.143 408.008" stroke="white" stroke-miterlimit="10"/>
<path d="M164.745 194.483C164.745 194.483 162.248 242.133 154.249 274.319C146.249 306.504 122.957 380.919 104.477 408.013" stroke="white" stroke-miterlimit="10"/>
<path d="M155.402 194.483C155.402 194.483 152.904 242.133 144.902 274.319C136.901 306.504 113.624 380.919 95.1443 408.013" stroke="white" stroke-miterlimit="10"/>
<path d="M146.066 194.483C146.066 194.483 143.564 242.133 135.57 274.314C127.576 306.494 104.292 380.914 85.8088 408.008" stroke="white" stroke-miterlimit="10"/>
<path d="M136.733 194.483C136.733 194.483 134.236 242.133 126.237 274.319C118.237 306.504 94.9587 380.919 76.4758 408.013" stroke="white" stroke-miterlimit="10"/>
<path d="M318.117 332.61H265.94C264.001 332.61 262.428 334.181 262.428 336.12C262.428 338.059 264.001 339.631 265.94 339.631H318.117C320.057 339.631 321.629 338.059 321.629 336.12C321.629 334.181 320.057 332.61 318.117 332.61Z" fill="black" stroke="black" stroke-width="5" stroke-miterlimit="10"/>
<path d="M186.876 206.261C186.745 213.75 186.12 233.088 183.152 254.267" stroke="white" stroke-width="5" stroke-linecap="round" stroke-linejoin="round"/>
<path d="M104.216 266.037C104.216 266.037 103.217 279.319 103.502 284.889C103.787 290.459 104.621 298.241 109.192 296.395C109.192 296.395 109.43 299.826 111.501 302.61C113.572 305.395 115.392 301.86 115.392 301.86C115.392 301.86 116.271 304.213 118.713 303.69C120.999 303.191 120.426 300.477 120.426 300.477C120.426 300.477 121.388 302.265 123.564 301.083C125.277 300.155 124.087 291.669 124.087 291.669C124.087 291.669 126.441 294.109 127.764 292.739C129.62 290.812 126.979 287.705 126.336 282.493C125.75 277.744 125.975 262.475 125.975 262.475L104.216 266.037Z" fill="#FEB0A3"/>
<path d="M108.039 284.886C108.201 287.925 108.414 290.95 108.677 293.963" stroke="black" stroke-width="4" stroke-linecap="round" stroke-linejoin="round"/>
<path d="M113.25 285.249C113.575 290.333 114.043 295.377 114.655 300.382" stroke="black" stroke-width="4" stroke-linecap="round" stroke-linejoin="round"/>
<path d="M118.598 285.234C118.921 289.915 119.364 294.561 119.929 299.172" stroke="black" stroke-width="4" stroke-linecap="round" stroke-linejoin="round"/>
<path d="M123.093 283.019C123.287 285.459 123.513 287.892 123.773 290.317" stroke="black" stroke-width="4" stroke-linecap="round" stroke-linejoin="round"/>
<path d="M180.84 206.261C180.84 206.261 180.197 221.796 179.664 229.296C179.487 231.424 179.871 233.561 180.776 235.494C181.681 237.428 183.076 239.091 184.823 240.319" stroke="white" stroke-width="5" stroke-linecap="round" stroke-linejoin="round"/>
<path d="M194.033 207.605C194.033 207.605 192.252 208.596 186.805 209.153C173.835 210.479 141.438 207.605 141.438 207.605L134.416 195.267L176.191 194.483L193.67 200.589L194.033 207.605Z" fill="black"/>
<path d="M202.574 149.081C204.336 159.418 207.521 176.128 193.79 202.979C193.79 202.979 191.06 204.226 184.823 204.362C173.505 204.624 145.635 202.979 145.635 202.979L138.778 210.549C138.778 210.549 135.353 228.875 133.925 240.057C132.497 251.239 131.78 263.385 131.78 263.385C131.78 263.385 123.64 265.956 117.356 266.67C111.072 267.384 103.497 266.67 103.497 266.67C103.497 266.67 104.354 244.819 104.924 236.964C105.494 229.108 107.087 211.951 107.783 208.031C109.21 199.972 134.194 158.268 147.771 154.544C158.503 151.605 179.389 150.92 186.711 146.885L202.574 149.081Z" fill="white"/>
<path d="M156.061 155.42C163.487 159.418 163.906 170.987 162.203 177.344C160.501 183.701 147.776 199.98 147.776 199.98" stroke="black" stroke-width="4" stroke-linecap="round" stroke-linejoin="round"/>
<path d="M201.405 183.984C199.867 189.431 197.574 195.448 194.237 202.095" stroke="black" stroke-width="4" stroke-linecap="round" stroke-linejoin="round"/>
<path d="M197.171 152.991C197.171 152.991 195.448 155.606 194.446 156.848C193.445 158.09 190.984 160.247 190.984 160.247C190.984 160.247 188.411 155.854 187.412 154.562C186.413 153.27 183.448 149.813 183.448 149.813" stroke="black" stroke-width="4" stroke-linecap="round" stroke-linejoin="round"/>
<path d="M198.8 152.779L201.502 158.027L203.594 155.6" stroke="black" stroke-width="4" stroke-linecap="round" stroke-linejoin="round"/>
<path d="M198.478 156.142C198.837 159.999 200.309 165.99 197.252 176.701C194.195 187.412 187.545 201.122 187.545 201.122" stroke="black" stroke-width="4" stroke-linecap="round" stroke-linejoin="round"/>
<path d="M188.829 191.839C188.664 192.231 188.5 192.623 188.34 192.995" stroke="black" stroke-width="4" stroke-linecap="round" stroke-linejoin="round"/>
<path d="M193.079 180.804C192.961 181.157 192.838 181.507 192.715 181.863" stroke="black" stroke-width="4" stroke-linecap="round" stroke-linejoin="round"/>
<path d="M195.887 169.047C195.845 169.418 195.798 169.795 195.749 170.174" stroke="black" stroke-width="4" stroke-linecap="round" stroke-linejoin="round"/>
<path d="M195.819 158.027C195.856 158.364 195.892 158.712 195.926 159.073" stroke="black" stroke-width="4" stroke-linecap="round" stroke-linejoin="round"/>
<path d="M190.843 129.016H189.718C189.718 129.016 189.195 124.678 186.505 123.284C183.814 121.89 176.222 120.978 176.758 114.741C177.295 108.504 180.561 109.467 181.727 106.145C182.893 102.824 180.317 99.791 183.777 96.9328C186.131 94.9794 187.137 98.0573 188.636 97.7383C190.134 97.4192 189.441 94.3623 192.119 94.0956C194.797 93.8288 196.826 97.04 197.158 100.372C197.366 102.349 197.237 104.347 196.779 106.281L196.052 128.397L190.843 129.016Z" fill="black"/>
<path d="M201.02 132.175C201.342 136.801 202.574 149.081 202.574 149.081C202.574 149.081 202.14 151.652 197.956 151.49C193.772 151.327 186.711 146.885 186.711 146.885C186.711 146.885 190.032 137.337 190.354 133.48C190.675 129.623 190.299 124.001 190.299 124.001C190.299 124.001 189.577 127.107 186.844 126.678C184.112 126.25 180.338 123.653 181.222 120.625C182.106 117.597 186.471 118.109 188.774 121.054L190.89 119.223C190.89 119.223 189.603 118.269 189.389 116.744C189.174 115.22 190.513 114.226 190.649 112.56C190.785 110.894 187.14 110.445 187.543 107.592C187.945 104.739 190.192 104.977 192.843 106.064C195.495 107.152 196.781 106.279 196.781 106.279C200.584 111.637 210.437 127.863 206.42 130.81C202.404 133.757 195.121 131.775 192.281 126.626" fill="#FEB0A3"/>
<path d="M192.835 126.678C194.533 129.754 197.82 131.697 201.047 132.133L201.502 137.923C201.502 137.923 194.611 134.605 193.217 132.675L192.835 126.678Z" fill="#FD8571"/>
<path d="M196.36 122C197.78 122 198.931 121.009 198.931 119.785C198.931 118.562 197.78 117.57 196.36 117.57C194.941 117.57 193.79 118.562 193.79 119.785C193.79 121.009 194.941 122 196.36 122Z" fill="#FF2B4A"/>
<path d="M200.074 113.431L203.858 121.142L208.536 120.429L200.074 113.431Z" fill="#FF2B4A" stroke="#FF2B4A" stroke-width="5" stroke-linecap="round" stroke-linejoin="round"/>
<path d="M197.466 114.362C196.943 114.932 195.829 115.324 194.64 115.002" stroke="black" stroke-width="3" stroke-linecap="round" stroke-linejoin="round"/>
<path d="M204.755 125.714C203.857 125.945 202.921 125.995 202.004 125.86" stroke="black" stroke-width="3" stroke-linecap="round" stroke-linejoin="round"/>
<path d="M196.444 93.9125C197.246 95.7536 197.665 97.7382 197.676 99.7461C197.688 101.754 197.292 103.743 196.512 105.594" stroke="black" stroke-width="3" stroke-linecap="round" stroke-linejoin="round"/>
<path d="M247.902 213.334C246.325 216.668 245.311 220.239 244.903 223.904C244.33 229.689 244.33 232.534 244.33 232.534" stroke="black" stroke-width="4" stroke-linecap="round" stroke-linejoin="round"/>
<path d="M247.083 233.76L247.128 235.972" stroke="black" stroke-width="4" stroke-linecap="round" stroke-linejoin="round"/>
<path d="M130.282 254.267C127.209 255.081 124.083 255.673 120.925 256.04C117.147 256.435 108.677 256.824 108.677 256.824" stroke="black" stroke-width="5" stroke-linecap="round" stroke-linejoin="round"/>
<path d="M107.074 261.751H110.358" stroke="black" stroke-width="5" stroke-linecap="round" stroke-linejoin="round"/>
<path d="M354.586 247.154C357.603 247.154 360.049 243.834 360.049 239.738C360.049 235.642 357.603 232.322 354.586 232.322C351.569 232.322 349.124 235.642 349.124 239.738C349.124 243.834 351.569 247.154 354.586 247.154Z" fill="white" stroke="white" stroke-width="5" stroke-miterlimit="10"/>
<path d="M342.196 239.829H352.337" stroke="white" stroke-width="8" stroke-linecap="round" stroke-linejoin="round"/>
<path d="M343.303 268.712C344.26 268.712 345.036 267.936 345.036 266.978C345.036 266.021 344.26 265.245 343.303 265.245C342.345 265.245 341.569 266.021 341.569 266.978C341.569 267.936 342.345 268.712 343.303 268.712Z" fill="white" stroke="white" stroke-width="2" stroke-linecap="round" stroke-linejoin="round"/>
<path d="M341.412 274.319L343.303 266.639L345.193 274.319H341.412Z" fill="white" stroke="white" stroke-width="2" stroke-linecap="round" stroke-linejoin="round"/>
</svg>
