<svg width="517" height="517" viewBox="0 0 517 517" fill="none" xmlns="http://www.w3.org/2000/svg">
<path d="M429.774 415.906L465.3 214.697L301.631 93.4142L55.2517 158.504L51.7 356.609L152.238 423.586L429.774 415.906Z" fill="#FFEADC"/>
<path d="M169.318 195.315H135.519C135.22 195.306 134.924 195.363 134.65 195.482C134.376 195.6 134.132 195.778 133.934 196.002C133.737 196.226 133.591 196.49 133.508 196.777C133.424 197.063 133.405 197.365 133.451 197.659L136.93 225.983L141.583 220.813H172.236C172.557 220.821 172.876 220.759 173.17 220.63C173.464 220.501 173.726 220.309 173.938 220.068C174.15 219.826 174.305 219.541 174.395 219.233C174.484 218.924 174.504 218.6 174.454 218.283L171.921 197.634C171.833 197.001 171.523 196.42 171.046 195.995C170.569 195.57 169.956 195.329 169.318 195.315Z" fill="white"/>
<path d="M140.185 204.355C149.086 204.474 157.971 204.474 166.841 204.355" stroke="#231F20" stroke-width="5" stroke-linecap="round" stroke-linejoin="round"/>
<path d="M140.968 210.74C148.056 210.836 155.134 210.855 162.201 210.796" stroke="#231F20" stroke-width="5" stroke-linecap="round" stroke-linejoin="round"/>
<path d="M182.884 200.498H216.69C217.336 200.513 217.955 200.758 218.437 201.187C218.92 201.616 219.234 202.203 219.324 202.842L222.804 231.166L216.879 225.996H186.234C185.537 225.979 184.869 225.716 184.348 225.252C183.827 224.789 183.488 224.156 183.39 223.465L180.854 202.814C180.808 202.524 180.825 202.226 180.906 201.944C180.988 201.661 181.13 201.4 181.324 201.178C181.518 200.957 181.758 200.781 182.028 200.664C182.297 200.546 182.59 200.489 182.884 200.498Z" fill="white"/>
<path d="M214.245 209.538C205.373 209.653 196.487 209.653 187.586 209.538" stroke="#231F20" stroke-width="5" stroke-linecap="round" stroke-linejoin="round"/>
<path d="M215.028 215.922C207.962 216.019 200.89 216.038 193.81 215.979" stroke="#231F20" stroke-width="5" stroke-linecap="round" stroke-linejoin="round"/>
<path d="M144.972 187.689H182.129L178.882 161.257H141.725L144.972 187.689Z" fill="#FF2B4A"/>
<path d="M149.054 169.413C156.224 169.511 166.425 169.612 173.593 169.71" stroke="white" stroke-width="5" stroke-linecap="round" stroke-linejoin="round"/>
<path d="M149.638 174.164C156.806 174.263 167.009 174.361 174.177 174.462" stroke="white" stroke-width="5" stroke-linecap="round" stroke-linejoin="round"/>
<path d="M150.271 179.327C155.291 179.396 161.8 179.466 167.712 179.533" stroke="white" stroke-width="5" stroke-linecap="round" stroke-linejoin="round"/>
<path d="M86.321 290.846H119.706L110.7 217.494H77.3123L86.321 290.846Z" fill="#FF2B4A"/>
<path d="M84.4804 227.739L101.223 227.969L105.99 228.036C106.489 228.036 106.489 227.26 105.99 227.26L89.2471 227.028L84.4804 226.963C83.9815 226.963 83.9815 227.739 84.4804 227.739Z" fill="#231F20"/>
<path d="M91.0617 239.503C95.146 239.56 99.2303 239.658 103.312 239.733C104.691 239.759 106.064 239.781 107.432 239.8C107.535 239.8 107.634 239.759 107.707 239.687C107.779 239.614 107.82 239.515 107.82 239.412C107.82 239.31 107.779 239.211 107.707 239.138C107.634 239.065 107.535 239.025 107.432 239.025C103.348 238.968 99.2665 238.867 95.1822 238.792C93.8035 238.77 92.43 238.748 91.0617 238.727C90.5628 238.727 90.5628 239.503 91.0617 239.503Z" fill="#231F20"/>
<path d="M92.6309 252.275L108.994 252.5C109.493 252.5 109.493 251.725 108.994 251.725L92.6309 251.5C92.5281 251.5 92.4294 251.541 92.3567 251.613C92.284 251.686 92.2432 251.785 92.2432 251.888C92.2432 251.99 92.284 252.089 92.3567 252.162C92.4294 252.234 92.5281 252.275 92.6309 252.275Z" fill="#231F20"/>
<path d="M92.9438 254.842L102.568 254.974C103.067 254.974 103.067 254.199 102.568 254.199L92.9438 254.067C92.4449 254.067 92.4449 254.842 92.9438 254.842Z" fill="#231F20"/>
<path d="M94.2 265.048L110.56 265.273C110.663 265.273 110.762 265.232 110.835 265.159C110.907 265.086 110.948 264.988 110.948 264.885C110.948 264.782 110.907 264.683 110.835 264.611C110.762 264.538 110.663 264.497 110.56 264.497L94.2 264.272C94.0972 264.272 93.9985 264.313 93.9258 264.386C93.8531 264.459 93.8123 264.557 93.8123 264.66C93.8123 264.763 93.8531 264.862 93.9258 264.934C93.9985 265.007 94.0972 265.048 94.2 265.048Z" fill="#231F20"/>
<path d="M85.3981 238.275C85.9586 238.972 86.5703 239.626 87.2283 240.232C87.2704 240.273 87.3213 240.304 87.3772 240.323C87.433 240.342 87.4924 240.348 87.5508 240.34C87.6093 240.333 87.6653 240.312 87.7146 240.28C87.764 240.248 87.8054 240.205 87.8358 240.154C88.6578 238.82 89.4437 237.465 90.1933 236.088C90.4337 235.651 89.7642 235.258 89.5238 235.698C88.7742 237.076 87.9883 238.431 87.1663 239.761L87.7763 239.684C87.119 239.077 86.5073 238.423 85.9462 237.727C85.8731 237.655 85.7747 237.615 85.6722 237.615C85.5696 237.615 85.4712 237.655 85.3981 237.727C85.3274 237.801 85.2878 237.899 85.2878 238.001C85.2878 238.103 85.3274 238.201 85.3981 238.275Z" fill="#231F20"/>
<path d="M88.5673 264.107C89.13 264.803 89.7426 265.457 90.4001 266.064C90.4424 266.104 90.4933 266.135 90.5491 266.154C90.6049 266.172 90.6641 266.178 90.7224 266.17C90.7807 266.163 90.8366 266.143 90.8859 266.111C90.9353 266.079 90.9768 266.036 91.0076 265.986C91.8296 264.652 92.6154 263.297 93.3651 261.92C93.6055 261.483 92.936 261.09 92.6956 261.53C91.9459 262.908 91.1601 264.263 90.338 265.593L90.9481 265.516C90.2907 264.909 89.679 264.255 89.1179 263.559C89.0445 263.487 88.9456 263.446 88.8426 263.446C88.7396 263.446 88.6408 263.487 88.5673 263.559C88.4971 263.633 88.458 263.731 88.458 263.833C88.458 263.935 88.4971 264.033 88.5673 264.107Z" fill="#231F20"/>
<path d="M89.8623 251.332L88.195 254.865C88.1498 254.954 88.1391 255.055 88.1649 255.151C88.1907 255.247 88.2512 255.329 88.3346 255.382C88.422 255.43 88.5242 255.442 88.6203 255.416C88.7163 255.391 88.7991 255.33 88.8516 255.245L90.5189 251.709C90.5647 251.621 90.5758 251.519 90.5499 251.423C90.5241 251.328 90.4632 251.245 90.3793 251.192C90.2904 251.141 90.1849 251.127 90.0858 251.153C89.9866 251.179 89.9017 251.244 89.8494 251.332H89.8623Z" fill="#231F20"/>
<path d="M87.6315 251.906L90.6017 255.155C90.6378 255.191 90.6807 255.22 90.7279 255.239C90.7751 255.258 90.8256 255.268 90.8766 255.268C90.9276 255.268 90.9781 255.258 91.0252 255.238C91.0723 255.219 91.115 255.19 91.151 255.154C91.187 255.118 91.2155 255.075 91.2349 255.028C91.2543 254.98 91.2642 254.93 91.2641 254.879C91.264 254.828 91.2538 254.777 91.2342 254.73C91.2146 254.683 91.1859 254.64 91.1497 254.604L88.1821 251.358C88.1087 251.285 88.0098 251.245 87.9068 251.245C87.8039 251.245 87.705 251.285 87.6315 251.358C87.5613 251.432 87.5222 251.53 87.5222 251.632C87.5222 251.734 87.5613 251.832 87.6315 251.906Z" fill="#231F20"/>
<path d="M296.404 201.801C296.404 201.801 301.985 194.581 297.859 178.82C293.734 163.059 287.943 160.94 274.527 165.181C261.111 169.423 260.142 164.207 260.142 164.207C260.142 164.207 260.917 174.356 268.106 179.024C275.295 183.693 291.888 186.128 291.888 186.128L296.404 201.801Z" fill="black" stroke="black" stroke-width="3" stroke-linecap="round" stroke-linejoin="round"/>
<path d="M269.975 178.476C267.635 178.298 263.9 176.093 262.109 174.575C260.317 173.058 258.867 171.184 257.43 169.328" stroke="black" stroke-width="5" stroke-linecap="round" stroke-linejoin="round"/>
<path d="M267.806 177.589C265.762 176.657 263.974 175.243 262.596 173.469C261.217 171.695 260.289 169.613 259.891 167.402" stroke="black" stroke-width="5" stroke-linecap="round" stroke-linejoin="round"/>
<path d="M300.359 228.85L295.279 194.134C295.279 194.134 297.228 197.114 300.897 196.083C304.565 195.051 306.741 184.507 302.499 181.526C298.257 178.546 294.018 183.015 294.018 183.015L288.848 173.503C288.848 173.503 277.042 178.546 268.331 177.515C268.331 177.515 266.728 187.596 266.612 193.8C266.495 200.004 266.612 209.388 275.323 209.388L275.437 232.769L293.547 234.604L300.359 228.85Z" fill="#FEB0A3"/>
<path d="M289.779 201.801C289.779 201.801 283.931 209.364 275.336 209.364L275.38 218.19C275.38 218.19 283.187 215.84 289.779 209.824V201.801Z" fill="#FD8571"/>
<path d="M297.017 184.621C297.792 183.675 299.25 183.442 300.344 183.98C300.882 184.269 301.338 184.692 301.667 185.208C301.996 185.724 302.188 186.316 302.223 186.927C302.276 188.159 301.871 189.367 301.085 190.318" stroke="#231F20" stroke-width="5" stroke-linecap="round" stroke-linejoin="round"/>
<path d="M275.29 183.695L271.464 194.638L278.26 192.792L275.29 183.695Z" fill="#FF2B4A" stroke="#FF2B4A" stroke-width="2" stroke-linecap="round" stroke-linejoin="round"/>
<path d="M281.956 185.239C282.447 185.239 282.846 184.764 282.846 184.179C282.846 183.593 282.447 183.119 281.956 183.119C281.465 183.119 281.067 183.593 281.067 184.179C281.067 184.764 281.465 185.239 281.956 185.239Z" fill="black"/>
<path d="M270.719 186.128C271.131 186.128 271.464 185.73 271.464 185.239C271.464 184.747 271.131 184.349 270.719 184.349C270.308 184.349 269.975 184.747 269.975 185.239C269.975 185.73 270.308 186.128 270.719 186.128Z" fill="black"/>
<path d="M284.677 191.283C286.326 191.073 287.55 190.025 287.412 188.941C287.274 187.858 285.826 187.15 284.177 187.36C282.529 187.57 281.305 188.618 281.443 189.702C281.581 190.785 283.029 191.493 284.677 191.283Z" fill="#FF2B4A"/>
<path d="M267.312 189.889C267.152 189.889 266.991 189.899 266.832 189.917C266.723 191.28 266.648 192.601 266.625 193.777C266.852 193.812 267.082 193.83 267.312 193.831C268.974 193.831 270.321 192.944 270.321 191.854C270.321 190.763 268.974 189.889 267.312 189.889Z" fill="#FF2B4A"/>
<path d="M283.236 195.496C283.147 196.332 282.757 197.108 282.139 197.679C281.521 198.25 280.717 198.576 279.875 198.598" stroke="#231F20" stroke-width="5" stroke-linecap="round" stroke-linejoin="round"/>
<path d="M150.052 373.315V376.792C150.052 377.139 150.085 377.979 151.073 377.979H286.222C287.581 377.979 289.786 376.877 291.133 375.518L307.248 360.672V353.886" fill="black"/>
<path d="M306.922 353.886H173.939C172.712 353.886 170.579 354.884 169.155 356.112L151.259 371.669C149.845 372.899 149.708 373.894 150.925 373.894H283.908C285.136 373.894 287.268 372.899 288.693 371.669L306.581 356.11C308.003 354.882 308.153 353.886 306.922 353.886Z" fill="black"/>
<path d="M152.238 373.892H283.908C285.136 373.892 287.268 372.897 288.693 371.666L304.531 357.898" stroke="white" stroke-width="5" stroke-linecap="round" stroke-linejoin="round"/>
<path d="M381.727 300.894L335.481 348.68L228.103 349.233L228.925 340.501L254.829 243.998C259.676 242.416 270.081 239.384 274.933 237.794C275.093 235.447 274.729 232.216 274.886 229.869C283.257 232.591 293.299 232.694 301.512 228.25C301.527 230.523 301.884 234.532 301.907 236.845C315.515 239.847 327.967 242.548 340.54 247.206C353.207 251.898 361.22 253.302 368.624 264.603C373.967 272.774 378.728 288.103 381.727 300.876" fill="#FF2B4A"/>
<path d="M106.114 362.735C106.099 362.846 106.088 362.955 106.078 363.066C104.982 374.778 126.215 374.024 137.584 372.517C146.613 371.32 152.835 365.935 155.219 361.435L151.178 345.384L129.227 344.867L109.503 353.886L106.114 362.735Z" fill="black"/>
<path d="M122.439 344.547C119.998 345.064 113.585 346.742 112.241 347.791C110.049 349.502 105.119 356.283 103.816 359.778C102.614 363.006 106.034 363.836 109.64 360.812" fill="#FEB0A3"/>
<path d="M136.356 338.78C133.071 339.772 122.865 342.944 120.461 344.777C117.584 346.969 111.731 353.954 110.121 357.312C107.585 362.585 112.587 362.792 115.738 360.052C119.137 357.095 121.971 353.134 124.23 351.557C125.22 350.87 127.965 350.324 130.739 349.929L147.541 347.23L149.033 335.556L136.356 338.78Z" fill="#FEB0A3"/>
<path d="M118.393 346.648C115.376 349.67 111.414 354.644 110.121 357.319C109.842 357.872 109.636 358.459 109.506 359.064" stroke="#231F20" stroke-width="5" stroke-linecap="round" stroke-linejoin="round"/>
<path d="M140.761 340.421C135.426 344.265 127.081 353.395 124.993 358.956C122.666 365.121 128.552 364.299 131.566 361.282C133.893 358.956 138.546 352.377 141.842 351.555C145.138 350.733 148.418 354.158 148.418 354.158C148.418 354.158 143.623 357.172 139.787 359.227C135.95 361.282 133.895 366.486 141.842 365.255C149.788 364.025 154.855 361.282 164.848 357.857C166.283 357.366 225.433 340.504 225.433 340.504" fill="#FEB0A3"/>
<path d="M140.761 340.421C138.189 342.275 134.919 345.356 131.985 348.673" stroke="#231F20" stroke-width="5" stroke-linecap="round" stroke-linejoin="round"/>
<path d="M210.06 340.507H264.412C269.375 340.507 272.836 336.371 272.138 331.26L260.105 243.207C259.407 238.102 254.816 233.963 249.85 233.963H127.562C122.596 233.963 119.137 238.099 119.835 243.207L131.869 331.26C132.567 336.365 137.157 340.507 142.123 340.507H175.333" fill="#0061FA"/>
<path d="M193.5 386.561H214.054C220.433 386.561 219.482 382.267 211.469 380.799C208.785 380.308 206.262 379.765 203.677 379.248" fill="#0143AE"/>
<path d="M209.145 311.12H187.12C185.409 311.12 183.905 312.33 183.419 314.09L173.999 340.507H211.223L212.968 315.874C213.307 313.372 211.502 311.12 209.145 311.12ZM202.387 326.113C201.845 329.973 198.277 333.093 194.418 333.093C190.559 333.093 187.873 329.965 188.416 326.113C188.958 322.262 192.523 319.134 196.383 319.134C200.242 319.134 202.923 322.264 202.387 326.121V326.113Z" fill="#0143AE"/>
<path d="M187.121 311.12H209.145C211.502 311.12 213.307 313.372 212.96 315.874L203.631 383.03C203.349 385.059 201.726 386.561 199.815 386.561H168.643C166.058 386.561 164.215 383.901 164.944 381.246L183.419 314.09C183.905 312.33 185.409 311.12 187.121 311.12Z" fill="#0061FA"/>
<path d="M199.841 330.885C202.868 328.063 203.334 323.642 200.882 321.012C198.43 318.381 193.988 318.537 190.96 321.359C187.933 324.181 187.467 328.601 189.919 331.232C192.371 333.862 196.813 333.707 199.841 330.885Z" fill="#0143AE"/>
<path d="M413.145 349.239H433.179" stroke="#231F20" stroke-width="5" stroke-linecap="round" stroke-linejoin="round"/>
<path d="M211.438 349.239H260.677" stroke="#231F20" stroke-width="5" stroke-linecap="round" stroke-linejoin="round"/>
<path d="M89.5083 349.239H106.037" stroke="#231F20" stroke-width="5" stroke-linecap="round" stroke-linejoin="round"/>
<path d="M123.475 371.917C120.401 369.43 118.535 366.46 118.884 363.195C119.305 359.271 122.818 356.001 126.98 353.463" stroke="white" stroke-width="5" stroke-linecap="round" stroke-linejoin="round"/>
<path d="M329.849 301.579L335.898 328.918L344.565 326.845L338.839 313.912L334.31 315.057L329.849 301.579Z" fill="#DE0020"/>
<path d="M384.24 313.328C383.671 309.828 382.815 305.526 381.727 300.886L337.371 314.357L340.54 323.875C340.54 323.875 302.869 332.643 293.69 334.969C284.51 337.296 271.909 339.622 263.28 347.3C256.835 353.028 252.389 357.299 252.389 360.313C252.389 360.975 252.648 361.838 253.514 361.972C252.48 363.412 251.771 364.79 251.875 365.793C251.952 366.543 252.723 366.827 253.793 366.827C253.526 367.338 253.418 367.917 253.483 368.489C253.963 371.229 259.1 369.311 259.1 369.311L259.208 369.27C258.242 371.498 261.612 372.455 264.717 371.126C268.411 369.541 283.758 362.975 287.256 362.104C288.922 361.718 290.596 361.368 292.278 361.052C311.219 357.498 329.784 357.774 349.019 356.676C372.861 355.313 380.352 348.83 384.328 339.056C387.492 331.307 385.667 322.127 384.24 313.328Z" fill="#FEB0A3"/>
<path d="M260.24 368.223C260.416 367.639 260.904 366.956 261.791 366.199C265.831 362.774 278.71 356.609 278.71 356.609" stroke="#231F20" stroke-width="5" stroke-linecap="round" stroke-linejoin="round"/>
<path d="M274.985 350.068C274.985 350.068 265.679 355.786 262.791 357.808C260.382 359.501 255.931 363.019 254.829 365.726" stroke="#231F20" stroke-width="5" stroke-linecap="round" stroke-linejoin="round"/>
<path d="M254.623 360.672C256.344 358.278 258.989 355.712 260.351 354.416C266.514 348.561 271.942 345.925 271.942 345.925" stroke="#231F20" stroke-width="5" stroke-linecap="round" stroke-linejoin="round"/>
<path d="M398.697 343.291H353.899C347.999 343.291 343.216 348.074 343.216 353.974V353.977C343.216 359.877 347.999 364.661 353.899 364.661H398.697C404.598 364.661 409.381 359.877 409.381 353.977V353.974C409.381 348.074 404.598 343.291 398.697 343.291Z" fill="black"/>
<path d="M390.625 323.818C394.624 315.696 402.629 309.678 405.155 300.964C405.349 300.297 405.506 299.583 405.333 298.911C405.16 298.239 404.558 297.619 403.855 297.686C402.955 297.758 402.5 298.779 402.216 299.635C399.92 306.514 396.345 311.966 391.917 317.707" fill="white"/>
<path d="M361.81 326.796C363.578 322.536 365.612 318.353 365.687 313.791C365.73 313.257 365.631 312.722 365.4 312.24C365.142 311.774 364.557 311.449 364.053 311.632C363.402 311.87 363.278 312.718 363.234 313.413C363.026 316.91 362.352 320.363 361.23 323.681" fill="white"/>
<path d="M375.342 327.633C380.06 319.62 387.807 313.224 390.4 304.283C390.617 303.536 390.795 302.732 390.599 301.987C390.402 301.243 389.722 300.553 388.947 300.615C387.939 300.698 387.43 301.838 387.112 302.797C384.545 310.492 380.543 316.593 375.59 323.014" fill="white"/>
<path d="M394.954 299.105C393.254 297.001 391.436 294.995 389.508 293.098C387.468 291.066 385.449 288.763 384.948 285.929C384.775 284.952 385.046 283.631 386.031 283.515C386.959 283.406 387.533 284.466 387.887 285.325C389.541 289.362 392.023 292.943 395.409 296.742" fill="white"/>
<path d="M362.745 332.172C360.317 330.864 357.814 329.699 355.249 328.683C352.581 327.605 349.82 326.271 348.269 323.854C347.729 323.022 347.465 321.701 348.329 321.21C349.141 320.749 350.081 321.502 350.743 322.161C353.845 325.237 357.671 327.693 362.272 329.874" fill="white"/>
<path d="M376.012 308.701C374.218 306.341 371.695 303.737 370.294 302.344C368.254 300.312 366.238 298.009 365.734 295.176C365.563 294.199 365.834 292.878 366.817 292.764C367.745 292.653 368.319 293.713 368.673 294.574C370.327 298.611 372.809 302.192 376.195 305.992" fill="white"/>
<path d="M395.081 361.732L393.535 367.372H359.062L357.516 361.732" fill="black"/>
<path d="M380.716 258.221C378.25 276.406 374.861 319.558 374.861 342.983" stroke="#231F20" stroke-width="5" stroke-linecap="round" stroke-linejoin="round"/>
<path d="M399.827 276.406C395.82 296.132 390.263 318.94 388.115 343.291" stroke="#231F20" stroke-width="5" stroke-linecap="round" stroke-linejoin="round"/>
<path d="M352.977 295.515C358.922 314.214 362.12 326.338 364.997 343.291" stroke="#231F20" stroke-width="5" stroke-linecap="round" stroke-linejoin="round"/>
<path d="M382.203 260.341C379.005 261.08 375.419 258.88 374.628 255.688C373.837 252.495 375.978 248.881 379.15 248.036C382.321 247.191 385.979 249.274 386.874 252.43C387.768 255.587 385.747 259.276 382.606 260.224" fill="#0061FA"/>
<path d="M379.235 250.804C378.46 248.54 377.449 246.014 376.686 243.75C377.516 244.179 378.809 244.874 378.809 244.874C379.141 244.024 379.408 243.15 379.607 242.258C379.796 242.887 380.533 243.809 380.941 244.311L382.521 242.488L383.219 244.65C383.878 243.902 384.643 243.254 385.488 242.726L384.857 245.634C385.477 244.974 386.194 244.412 386.982 243.967L383.829 250.43" fill="#0061FA"/>
<path d="M401.551 277.37C398.796 277.567 396.105 275.271 395.864 272.521C395.624 269.771 397.873 267.041 400.618 266.754C403.363 266.467 406.132 268.675 406.463 271.407C406.794 274.139 404.633 276.949 401.898 277.324" fill="#0061FA"/>
<path d="M400.272 269.173C400.515 266.201 400.675 262.982 400.91 262.005C401.047 262.54 401.631 263.334 401.944 263.781L403.343 262.31L403.86 264.151C404.446 263.554 405.114 263.043 405.845 262.636L405.204 265.056C405.751 264.524 406.375 264.079 407.055 263.735L404.157 269.047" fill="#0061FA"/>
<path d="M355.223 296.848C352.927 298.384 349.451 297.725 347.879 295.455C346.307 293.186 346.91 289.698 349.153 288.09C351.397 286.483 354.892 287.025 356.539 289.243C358.185 291.461 357.697 294.964 355.505 296.647" fill="#0061FA"/>
<path d="M350.053 290.365C348.791 287.664 347.336 284.789 347.057 283.825C347.439 284.221 348.349 284.621 348.841 284.859L349.327 282.889L350.676 284.239C350.884 283.427 351.209 282.649 351.64 281.93L352.281 284.35C352.491 283.616 352.812 282.918 353.235 282.282L353.351 288.331" fill="#0061FA"/>
<path d="M342.099 328.365L340.548 323.875C340.548 323.875 335.119 325.136 327.881 326.829L342.099 328.365Z" fill="#FD8571"/>
<path d="M83.0561 210.23H126.332L122.785 181.358L99.1607 165.176L79.5095 181.358L83.0561 210.23Z" fill="#0043AE"/>
<path d="M87.6806 199.394H119.044L115.552 170.951H84.1882L87.6806 199.394Z" fill="white"/>
<path d="M83.0561 210.23H126.332L122.785 181.358L102.984 196.305L79.5095 181.358L83.0561 210.23Z" fill="#0061FA"/>
<path d="M89.2393 176.677C95.8724 176.767 105.31 176.861 111.943 176.951" stroke="#231F20" stroke-width="5" stroke-linecap="round" stroke-linejoin="round"/>
<path d="M89.7771 181.071C96.4102 181.162 105.848 181.255 112.481 181.346" stroke="#231F20" stroke-width="5" stroke-linecap="round" stroke-linejoin="round"/>
<path d="M90.3638 185.861C95.0168 185.926 101.029 185.991 106.499 186.053" stroke="#231F20" stroke-width="5" stroke-linecap="round" stroke-linejoin="round"/>
<path d="M220.852 197.856L230.14 186.379" stroke="#231F20" stroke-width="5" stroke-linecap="round" stroke-linejoin="round"/>
<path d="M184.295 161.521L192.151 158.055" stroke="#231F20" stroke-width="5" stroke-linecap="round" stroke-linejoin="round"/>
<path d="M185.862 165.634L190.463 165.287" stroke="#231F20" stroke-width="5" stroke-linecap="round" stroke-linejoin="round"/>
<path d="M65.491 216.163L72.4524 216.623" stroke="#231F20" stroke-width="5" stroke-linecap="round" stroke-linejoin="round"/>
<path d="M65.3074 226.467L73.0857 221.26" stroke="#231F20" stroke-width="5" stroke-linecap="round" stroke-linejoin="round"/>
<path d="M224.119 201.315L235.362 197.672" stroke="#231F20" stroke-width="5" stroke-linecap="round" stroke-linejoin="round"/>
<path d="M447.745 195.188C447.745 195.188 446.021 176.987 434.908 176.987C423.795 176.987 417.281 195.188 426.861 195.188C436.441 195.188 433.088 176.509 421.497 176.509C410.671 176.509 407.846 195.188 412.395 195.188C416.945 195.188 415.557 184.46 408.947 184.46C402.337 184.46 401.569 195.188 401.569 195.188H354.597" stroke="black" stroke-width="5" stroke-linecap="round" stroke-linejoin="round"/>
<path d="M392.338 143.69H333.152C331.341 143.69 329.872 145.158 329.872 146.97V147.12C329.872 148.932 331.341 150.4 333.152 150.4H392.338C394.15 150.4 395.619 148.932 395.619 147.12V146.97C395.619 145.158 394.15 143.69 392.338 143.69Z" fill="black" stroke="black" stroke-width="5" stroke-miterlimit="10"/>
<path d="M449.015 401.05C449.015 401.05 447.407 383.043 436.232 383.043C425.799 383.043 423.074 401.05 427.461 401.05C431.848 401.05 430.509 390.71 424.137 390.71C417.764 390.71 417.025 401.05 417.025 401.05H358.307" stroke="black" stroke-width="5" stroke-linecap="round" stroke-linejoin="round"/>
<path d="M424.105 146.368C428.838 146.368 432.675 142.531 432.675 137.799C432.675 133.066 428.838 129.229 424.105 129.229C419.373 129.229 415.536 133.066 415.536 137.799C415.536 142.531 419.373 146.368 424.105 146.368Z" fill="black" stroke="black" stroke-width="5" stroke-miterlimit="10"/>
<path d="M69.1978 380.292C72.7327 380.292 75.5983 377.427 75.5983 373.892C75.5983 370.357 72.7327 367.491 69.1978 367.491C65.6629 367.491 62.7974 370.357 62.7974 373.892C62.7974 377.427 65.6629 380.292 69.1978 380.292Z" fill="black" stroke="black" stroke-width="5" stroke-miterlimit="10"/>
<path d="M103.571 131.662C107.106 131.662 109.971 128.796 109.971 125.261C109.971 121.726 107.106 118.861 103.571 118.861C100.036 118.861 97.1702 121.726 97.1702 125.261C97.1702 128.796 100.036 131.662 103.571 131.662Z" fill="black" stroke="black" stroke-width="5" stroke-miterlimit="10"/>
<path d="M136.372 115.407C137.255 115.407 137.972 114.691 137.972 113.807C137.972 112.923 137.255 112.207 136.372 112.207C135.488 112.207 134.771 112.923 134.771 113.807C134.771 114.691 135.488 115.407 136.372 115.407Z" fill="black" stroke="black" stroke-width="5" stroke-miterlimit="10"/>
<path d="M100.59 404.25C101.474 404.25 102.19 403.534 102.19 402.65C102.19 401.766 101.474 401.05 100.59 401.05C99.7064 401.05 98.99 401.766 98.99 402.65C98.99 403.534 99.7064 404.25 100.59 404.25Z" fill="black" stroke="black" stroke-width="5" stroke-miterlimit="10"/>
<path d="M435.28 309.182C436.164 309.182 436.88 308.465 436.88 307.581C436.88 306.698 436.164 305.981 435.28 305.981C434.397 305.981 433.68 306.698 433.68 307.581C433.68 308.465 434.397 309.182 435.28 309.182Z" fill="black" stroke="black" stroke-width="5" stroke-miterlimit="10"/>
</svg>
