<svg width="652" height="431" viewBox="0 0 652 431" fill="none" xmlns="http://www.w3.org/2000/svg">
<path d="M381.726 312.899C355.34 319.178 289.766 327.798 233.939 328.884V342.221C233.939 342.221 438.436 352.232 438.164 332.481C437.893 312.696 408.111 306.621 381.726 312.899Z" fill="#E04136"/>
<path d="M283.111 237.084C279.443 239.595 279.273 238.815 283.111 260.501C286.948 282.186 282.907 333.329 286.167 335.467C289.427 337.605 290.751 300.207 290.751 300.207C290.751 300.207 341.451 296.949 342.266 300.207C343.081 303.465 340.67 334.89 343.149 335.569C345.628 336.214 348.956 297.797 349.194 294.234C349.431 290.671 290.717 294.505 290.717 291.553C290.717 288.6 289.868 266.032 288.17 252.831C286.54 239.629 285.895 235.15 283.111 237.084Z" fill="#FE7EB2"/>
<path d="M411.507 200.602L413.477 246.417C413.477 246.417 459.694 243.227 464.788 244.55C464.788 244.55 462.886 199.041 464.788 196.258L411.507 200.602Z" fill="#D2F1FC"/>
<path d="M457.215 203.35L419.08 206.473L420.472 239.29C420.472 239.29 453.581 236.982 457.215 237.932C457.215 237.932 455.857 205.353 457.215 203.35Z" fill="white"/>
<path d="M358.091 185.5C359.008 194.221 358.091 215.738 358.091 215.738H386.616L384.103 182.751L358.091 185.5Z" fill="#D2F1FC"/>
<path d="M383.525 212.038H361.215L361.249 211.529C361.249 211.36 361.928 195.409 361.249 189.029L361.215 188.554L381.59 186.416L383.525 212.038ZM362.2 211.088H382.507L380.707 187.468L362.234 189.402C362.777 195.443 362.301 208.407 362.2 211.088Z" fill="white"/>
<path d="M295.777 235.251C294.181 238.136 293.366 241.36 293.196 244.652L291.363 276.688C291.023 282.39 290.955 288.736 294.792 292.944C298.086 296.542 303.452 297.492 308.308 297.017C313.164 296.542 335.101 293.453 339.991 293.521C346.409 293.623 341.791 313.985 344.677 313.374C350.552 314.969 362.336 313.951 363.218 308.895C363.49 306.315 357.038 309.879 355.306 307.775C352.861 304.788 354.763 296.372 354.729 294.404C354.695 291.044 354.016 286.394 351.197 284.528C348.65 282.831 344.507 283.747 342.402 281.507C339.923 278.86 342.402 267.491 342.436 260.636C346.647 259.652 350.79 257.752 353.506 254.392C356.223 251.032 357.072 245.975 354.729 242.344C352.352 238.747 342.809 230.568 340.195 228.362C336.595 225.342 331.535 224.867 327.087 225.376C316.356 226.699 302.467 223.068 295.777 235.251Z" fill="#53CAF1"/>
<path d="M317.409 233.69C318.19 230.806 322.265 229.482 324.37 231.858C327.494 235.387 333.505 234.878 337.614 233.453C339.617 232.774 341.179 231.654 342.436 230.297C341.519 229.482 340.738 228.837 340.229 228.43C336.629 225.41 331.569 224.934 327.121 225.444C316.39 226.665 302.501 223.068 295.777 235.217C294.181 238.102 293.366 241.326 293.196 244.618L293.162 245.432C302.908 247.638 314.522 244.312 317.409 233.69Z" fill="#3DB5C9"/>
<path d="M355.306 307.809C352.861 304.822 354.763 296.406 354.729 294.438C354.695 291.078 354.016 286.428 351.197 284.562C348.65 282.865 344.507 283.781 342.402 281.541C339.957 278.928 342.334 267.695 342.436 260.84C325.592 258.159 308.919 254.426 292.959 248.283L291.329 276.655C290.989 282.356 290.921 288.702 294.758 292.91C298.052 296.508 303.418 297.458 308.274 296.983C313.13 296.508 335.067 293.419 339.957 293.487C346.375 293.589 341.757 313.951 344.643 313.34C350.518 314.935 362.301 313.917 363.184 308.861C363.49 306.349 357.038 309.879 355.306 307.809Z" fill="#FFB0D8"/>
<path d="M343.59 309.438C350.11 309.404 356.597 309.336 363.117 309.268C363.15 309.132 363.184 309.03 363.218 308.895C363.49 306.315 357.038 309.879 355.306 307.775C352.861 304.788 354.763 296.372 354.729 294.404C354.695 291.044 354.016 286.394 351.197 284.528C348.65 282.831 344.507 283.747 342.402 281.508C341.111 280.15 341.179 276.383 341.519 272.141C336.12 272.073 330.686 272.039 325.287 271.971C314.149 271.835 302.773 272.582 291.634 271.53L291.329 276.621C290.989 282.322 290.921 288.668 294.758 292.876C298.052 296.474 303.418 297.424 308.274 296.949C313.13 296.474 335.067 293.385 339.957 293.453C344.507 293.589 343.556 303.668 343.59 309.438Z" fill="#00007F"/>
<path d="M355.306 307.809C355 307.435 354.797 306.994 354.593 306.519C350.925 306.757 347.258 306.96 343.624 307.13C343.556 310.761 343.59 313.612 344.677 313.408C350.552 315.003 362.335 313.985 363.218 308.929C363.49 306.349 357.038 309.879 355.306 307.809Z" fill="#E04136"/>
<path d="M343.115 245.195C344.304 244.007 344.609 242.208 344.847 240.546C345.492 236.303 335.678 235.76 334.354 239.46C332.758 243.939 339.651 248.69 343.115 245.195Z" fill="white"/>
<path d="M340.161 237.016C339.549 240.037 339.074 243.091 338.666 246.179C340.229 246.654 341.892 246.451 343.149 245.229C344.337 244.041 344.643 242.242 344.881 240.579C345.186 238.374 342.775 237.186 340.161 237.016Z" fill="#0000D8"/>
<path d="M341.211 253.573L340.905 254.472L346.274 256.298L346.58 255.399L341.211 253.573Z" fill="#00007F"/>
<path d="M334.999 234.878L334.082 234.708C334.625 231.824 337.376 229.516 340.296 229.482C340.33 229.482 340.364 229.482 340.398 229.482C343.285 229.482 346.035 231.654 346.715 234.471L345.798 234.674C345.22 232.231 342.809 230.33 340.296 230.432C337.817 230.466 335.474 232.435 334.999 234.878Z" fill="#00007F"/>
<path d="M367.429 272.582C366.444 268.51 364.203 265.048 360.23 263.725C356.257 262.401 351.842 262.842 348.005 264.471C344.677 265.863 341.281 268.17 337.784 267.288C335.339 266.677 333.471 264.539 332.554 262.197C332.452 261.926 332.35 261.654 332.248 261.383C325.593 264.302 319.005 267.39 312.62 270.817C314.047 275.874 317.239 280.456 321.755 283.171C329.294 287.752 339.787 286.802 346.375 280.931C348.718 278.827 354.151 277.401 355 278.589C355.849 279.777 357.242 280.693 358.702 280.557C359.789 280.456 360.841 279.607 361.113 278.589C361.351 279.098 361.894 279.539 362.505 279.505C363.456 279.471 364.237 278.589 364.441 277.639C364.475 277.435 364.509 277.232 364.509 276.994C364.78 277.265 365.086 277.503 365.46 277.571C366.648 277.842 367.871 276.994 368.38 275.908C368.923 274.856 367.735 273.77 367.429 272.582Z" fill="#53CAF1"/>
<path d="M319.582 281.643C320.261 282.22 320.974 282.763 321.755 283.204C326.917 286.36 333.505 286.87 339.244 285.003C335.101 278.114 325.083 275.229 319.582 281.643Z" fill="#3DB5C9"/>
<path d="M331.705 259.075C325.762 259.279 319.786 259.415 313.843 259.72C313.639 259.856 313.435 259.991 313.266 260.127C314.556 259.89 312.417 260.297 312.417 260.297C311.16 265.32 312.009 270.783 314.488 275.331C320.431 270.851 326.407 266.372 332.656 262.299C332.622 262.265 332.622 262.231 332.588 262.163C332.146 261.213 331.875 260.161 331.705 259.075Z" fill="#FFB0D8"/>
<path d="M360.332 279.234C359.958 277.503 359.075 275.874 357.785 274.686L358.43 274.007C359.856 275.365 360.875 277.164 361.249 279.064L360.332 279.234Z" fill="#00007F"/>
<path d="M364.509 276.722C364.475 274.415 363.422 272.107 361.724 270.58L362.369 269.867C364.271 271.598 365.426 274.143 365.46 276.689L364.509 276.722Z" fill="#00007F"/>
<path d="M312.113 264.685L311.165 264.751L311.638 271.556L312.586 271.49L312.113 264.685Z" fill="#0000D8"/>
<path d="M333.369 260.195H332.418V263.317H333.369V260.195Z" fill="#0000D8"/>
<path d="M399.146 236.643L384.816 220.082L380.503 223.509L399.146 239.867V236.643Z" fill="#F3CF14"/>
<path d="M379.654 241.699L380.503 246.417H392.558L393.611 243.566L379.654 241.699Z" fill="#F3CF14"/>
<path d="M391.2 254.052L386.616 255.885L389.842 259.075L392.592 255.885L391.2 254.052Z" fill="#F3CF14"/>
<path d="M456.774 270.885C458.234 264.777 461.698 258.905 467.097 255.647C472.496 252.39 479.933 252.22 484.857 256.157C487.608 258.329 489.442 262.129 488.151 265.387C486.725 269.053 482.344 270.342 478.779 271.971C472.089 275.026 466.655 280.829 464.075 287.718C463.226 289.992 462.105 293.046 459.083 292.639C457.079 292.367 456.604 290.84 456.332 289.042C455.381 283.17 455.381 276.654 456.774 270.885Z" fill="#D2F1FC"/>
<path d="M462.343 288.668C466.044 285.41 471.308 283.951 476.164 284.867C477.997 285.207 479.831 285.919 481.054 287.311C482.276 288.702 482.684 290.942 481.597 292.435C480.341 294.234 477.726 294.37 475.552 293.928C473.413 293.487 471.206 292.673 469.066 293.182C466.757 293.725 465.093 295.727 463.939 297.763C462.682 299.935 461.596 303.431 459.286 304.686C457.249 305.806 456.23 304.788 456.264 302.752C456.298 297.763 458.505 292.028 462.343 288.668Z" fill="#D2F1FC"/>
<path d="M460.339 278.555C459.456 275.127 458.03 271.768 455.789 269.053C453.547 266.304 450.355 264.233 446.858 263.792C443.36 263.351 439.523 264.675 437.417 267.525C435.312 270.376 435.312 274.72 437.723 277.333C440.609 280.421 445.839 280.489 448.42 283.849C449.54 285.308 449.982 287.209 450.22 289.041C450.457 290.874 450.559 292.741 451.102 294.505C452.427 298.544 458.234 300.987 460.475 296.372C462.92 291.383 461.664 283.578 460.339 278.555Z" fill="#A8E4F4"/>
<path d="M457.283 296.304C454.363 293.385 450.05 292.096 445.907 292.401C441.798 292.707 437.859 294.437 434.463 296.779C433.648 297.356 432.765 298.069 432.629 299.053C432.425 300.309 433.546 301.462 434.769 301.768C435.991 302.073 437.281 301.768 438.504 301.395C439.726 301.021 440.983 300.614 442.239 300.784C444.82 301.055 446.552 303.465 447.809 305.739C449.031 308.012 450.288 310.558 452.631 311.61C456.162 313.205 459.286 310.49 460.068 307.266C460.984 303.261 460.237 299.29 457.283 296.304Z" fill="#D2F1FC"/>
<path d="M441.9 305.671L445.737 334.144L463.905 333.974L466.893 304.992C460 308.182 441.9 305.671 441.9 305.671Z" fill="#3DB5C9"/>
<path d="M456.128 294.981L455.177 294.947C455.687 281.813 450.152 275.772 446.484 271.802C446.145 271.428 445.805 271.055 445.499 270.716L446.212 270.105C446.518 270.444 446.824 270.783 447.163 271.157C450.967 275.263 456.672 281.474 456.128 294.981Z" fill="white"/>
<path d="M461.63 280.523L460.713 280.218C462.818 273.702 472.87 263.012 479.22 260.5L479.56 261.383C473.549 263.792 463.633 274.347 461.63 280.523Z" fill="white"/>
<path d="M462.988 294.166L462.105 293.793C462.886 291.926 464.482 290.365 466.35 289.618C468.251 288.872 470.459 288.974 472.293 289.856L471.885 290.704C470.289 289.924 468.353 289.856 466.689 290.501C465.059 291.146 463.667 292.503 462.988 294.166Z" fill="white"/>
<path d="M452.427 303.77H451.476C451.476 302.379 450.865 301.021 449.812 300.139C448.759 299.257 447.299 298.849 445.941 299.087L445.771 298.171C447.401 297.899 449.133 298.374 450.389 299.426C451.714 300.478 452.461 302.107 452.427 303.77Z" fill="white"/>
<path d="M454.091 313.815C451.374 313.815 448.657 313.612 445.941 313.205L446.077 312.254C452.053 313.137 458.064 313.035 464.007 311.949L464.176 312.865C460.815 313.51 457.453 313.815 454.091 313.815Z" fill="white"/>
<path d="M407.092 286.089C407.364 285.241 400.674 287.413 400.674 287.413C401.999 307.843 406.244 334.313 406.244 334.313L409.877 335.535C409.877 335.535 406.821 286.937 407.092 286.089Z" fill="#1A5B45"/>
<path d="M362.03 286.089C357.717 311.44 355.51 334.313 355.51 334.313C355.51 334.313 358.125 334.856 358.77 328.883C359.415 322.911 368.55 287.412 368.55 287.412L362.03 286.089Z" fill="#1A5B45"/>
<path d="M378.228 284.358C355.612 284.969 348.243 281.372 349.363 285.58C350.484 289.788 347.258 292.164 378.228 291.315C409.198 290.467 418.367 291.315 418.944 287.412C419.487 283.544 417.144 283.34 378.228 284.358Z" fill="#2C8469"/>
<path d="M483.974 302.141C482.887 302.141 481.801 302.107 480.714 302.005L480.816 301.055C493.89 302.243 507.405 295.931 514.401 285.274C521.668 274.245 521.6 259.177 514.231 248.622C509.273 241.496 501.123 236.948 492.668 235.93C490.189 239.969 486.962 243.498 483.125 246.247C480.375 248.215 476.537 249.573 474.058 247.367C472.055 245.602 472.292 242.344 473.617 240.342C474.771 238.611 476.673 237.355 479.56 236.337C483.601 234.912 487.913 234.505 492.158 234.946C496.403 227.819 498.372 219.165 497.388 210.545C495.961 197.785 488.219 185.568 476.775 177.864C466.146 170.737 452.597 167.479 438.64 168.667C419.691 170.262 401.421 180.205 389.74 195.24L388.993 194.663C400.81 179.425 419.318 169.346 438.538 167.717C452.733 166.529 466.486 169.855 477.284 177.083C489 184.923 496.844 197.412 498.339 210.443C499.323 219.131 497.388 227.853 493.177 235.082C501.734 236.235 509.952 240.919 514.978 248.113C522.551 258.939 522.619 274.449 515.182 285.817C508.56 295.829 496.335 302.141 483.974 302.141ZM488.966 235.692C485.876 235.692 482.786 236.168 479.865 237.22C477.182 238.17 475.417 239.324 474.398 240.851C473.277 242.514 473.074 245.195 474.67 246.62C476.741 248.453 480.103 247.231 482.548 245.432C486.147 242.853 489.204 239.561 491.581 235.794C490.732 235.726 489.849 235.692 488.966 235.692Z" fill="#3DB5C9"/>
<path d="M257.981 320.196C255.435 314.325 255.57 307.367 258.321 301.598C261.072 295.829 266.403 291.349 272.55 289.618L272.821 290.535C266.913 292.198 261.819 296.474 259.17 302.005C256.521 307.537 256.419 314.189 258.83 319.822L257.981 320.196Z" fill="#3DB5C9"/>
<path d="M415.752 229.075C410.047 226.869 408.247 227.887 408.247 227.887L395.173 280.557H355.374C355.374 280.557 356.427 286.361 361.622 287.447C366.818 288.532 397.958 287.447 397.958 287.447L398.467 281.949C399.35 281.983 402.848 282.186 402.848 282.186C402.848 282.186 420.268 230.84 415.752 229.075Z" fill="#0000D8"/>
<path d="M406.515 229.245L392.932 277.062H399.995L412.696 231.62L406.515 229.245Z" fill="#A8E4F4"/>
<path d="M399.588 253.679L392.966 277.062H400.029L403.017 266.406C401.897 262.163 400.708 257.921 399.588 253.679Z" fill="#D2F1FC"/>
<path d="M450.254 78.6659C459.388 80.4307 468.897 81.2791 477.964 79.2768C487.064 77.2745 495.758 72.1161 500.444 64.107C505.13 56.0978 505.096 45.0683 499.052 37.9755C493.415 31.4256 483.567 29.3555 475.315 31.9686C467.063 34.5818 460.509 41.3013 456.807 49.1068C448.216 44.9325 436.84 47.7493 431.169 55.4191C425.498 63.0888 426.143 74.7632 432.663 81.7542C432.527 81.6185 420.404 93.3267 432.357 93.0213C439.387 92.8177 447.231 84.1977 450.254 78.6659Z" fill="#FFB0D8"/>
<path d="M479.219 56.7534L441.936 58.4288L441.978 59.3781L479.261 57.7027L479.219 56.7534Z" fill="white"/>
<path d="M474.839 67.2631H463.327V68.2133H474.839V67.2631Z" fill="white"/>
<path d="M454.498 105.239L453.242 105.714C451.646 106.732 450.084 107.886 449.099 109.515C448.148 111.144 447.944 113.35 449.099 114.843C450.254 116.336 452.936 116.472 453.921 114.877C453.819 116.608 455.347 118.135 457.045 118.474C458.743 118.813 460.509 118.203 461.969 117.286C464.652 115.589 466.655 112.739 466.859 109.583C467.063 106.426 465.263 103.135 462.309 101.981C459.354 100.827 455.585 102.286 454.498 105.239Z" fill="#FFB0D8"/>
<path d="M398.297 119.424C394.46 115.827 388.823 116.675 383.933 117.897C363.32 123.123 343.489 132.083 325.287 144.198C316.084 150.341 307.289 157.298 299.037 164.968C291.668 171.857 281.379 180.273 276.693 189.911C272.108 199.38 282.398 217.468 287.933 202.502C289.97 197.038 292.008 191.54 294.045 186.077C292.517 190.522 290.955 195.138 291.193 199.923C291.464 204.708 294.079 209.663 298.222 210.613C301.109 211.292 304.097 209.866 306.27 207.627C308.444 205.387 309.904 202.4 311.16 199.414C313.096 194.832 314.624 190.013 315.813 185.126C317.646 190.794 322.4 195.511 327.562 194.527C333.063 193.475 336.255 186.959 338.191 181.02C340.432 174.097 342.062 166.902 343.081 159.572C343.081 164.594 343.387 169.583 343.998 174.572C344.575 178.984 346.035 184.21 349.873 185.296C354.423 186.586 358.057 181.054 360.06 176.235C363.184 168.599 365.765 160.658 367.735 152.513C367.769 153.836 367.871 155.16 368.074 156.483C369.365 164.696 375.613 172.57 382.948 171.789C389.842 171.042 394.494 163.441 397.109 156.178C399.52 149.56 401.116 142.603 401.863 135.51C402.474 129.741 402.203 123.089 398.297 119.424Z" fill="#F3CF14"/>
<path d="M346.069 181.868C346.952 183.531 348.175 184.787 349.873 185.262C354.423 186.552 358.057 181.02 360.06 176.201C362.166 171.009 364.033 165.714 365.629 160.284C356.427 160.861 349.839 171.552 346.069 181.868Z" fill="#FFD833"/>
<path d="M325.559 194.595C326.204 194.663 326.883 194.629 327.562 194.493C331.433 193.746 334.184 190.285 336.12 186.212C337.003 182.887 338.157 179.425 339.583 176.031C332.622 179.662 327.155 186.993 325.559 194.595Z" fill="#FFD833"/>
<path d="M392.355 146.167C387.091 148.949 382.982 153.09 380.13 158.282C378.16 161.879 376.768 165.714 375.749 169.719C377.888 171.246 380.333 172.061 382.948 171.789C389.842 171.042 394.494 163.441 397.109 156.178C398.637 151.97 399.825 147.592 400.708 143.18C397.72 143.655 394.766 144.911 392.355 146.167Z" fill="#FFD833"/>
<path d="M428.181 299.63C426.041 298.272 423.121 298.713 420.948 300.037C418.774 301.36 417.212 303.465 415.684 305.501C409.436 313.849 403.187 322.198 396.939 330.546C398.739 326.202 400.539 321.621 400.233 316.938C399.927 312.22 396.803 307.367 392.117 306.689C387.227 306.01 382.982 309.879 379.756 313.646C374.051 320.297 368.923 327.424 364.475 334.958C368.007 329.528 365.494 321.383 359.789 318.329C353.472 314.969 345.322 317.548 340.161 322.503C335.305 327.187 332.52 333.499 329.973 339.777C355.408 340.015 380.809 342.051 405.972 345.886C411.643 346.734 418.231 347.413 422.272 343.341C424.751 340.829 425.532 337.13 426.177 333.669C427.637 326.033 429.064 318.431 430.524 310.795C431.271 306.824 431.61 301.802 428.181 299.63Z" fill="#F3CF14"/>
<path d="M329.43 328.103C328.649 323.895 326.611 319.721 323.08 317.311C316.39 312.729 307.153 315.784 300.26 320.026C291.838 325.218 284.435 332.006 278.526 339.947C279.002 335.603 274.757 331.429 270.41 331.938C266.064 332.447 262.939 337.537 264.434 341.644L268.509 342.696C288.782 340.558 309.191 339.574 329.6 339.777C329.905 335.875 330.143 331.938 329.43 328.103Z" fill="#F3CF14"/>
<path d="M358.566 317.786C352.454 315.309 344.983 317.888 340.161 322.503C339.583 323.08 339.04 323.657 338.497 324.268C337.58 325.727 336.561 327.085 335.474 328.374C334.761 329.494 334.116 330.682 333.505 331.87C342.572 334.687 352.046 326.915 358.566 317.786Z" fill="#FFD833"/>
<path d="M384.68 324.981C390.215 321.519 394.8 316.462 398.094 310.693C396.667 308.589 394.63 307.028 392.117 306.689C387.227 306.01 382.982 309.879 379.756 313.646C377.073 316.768 374.527 320.026 372.115 323.352C371.199 324.981 370.18 326.542 369.127 328.069C371.674 331.021 382.677 326.236 384.68 324.981Z" fill="#FFD833"/>
<path d="M425.905 312.628C427.671 310.761 429.369 308.793 430.965 306.79C431.067 303.906 430.49 301.089 428.147 299.63C426.007 298.272 423.087 298.713 420.914 300.037C418.74 301.36 417.178 303.465 415.65 305.501L402.984 322.435C411.711 321.757 419.385 318.024 425.905 312.628Z" fill="#FFD833"/>
<path d="M323.148 317.345C323.114 317.345 323.114 317.311 323.08 317.311C316.39 312.729 307.153 315.784 300.26 320.026C296.558 322.3 293.06 324.913 289.766 327.798C302.705 332.617 314.013 326.576 323.148 317.345Z" fill="#FFD833"/>
<path d="M478.099 352.368C473.345 362.753 236.248 351.214 185.175 354.234C185.175 354.234 107.648 333.465 152.677 314.426C135.562 317.073 98.4113 278.148 177.364 272.005C177.364 272.005 146.632 250.353 174.784 235.659C101.162 241.292 118.039 200.602 156.582 201.043C143.61 198.871 122.012 175.42 159.604 170.737C190.778 193.678 202.052 182.853 217.639 170.296C217.979 170.024 218.352 169.753 218.726 169.447C225.823 164.153 242.836 154.312 263.007 143.486C294.453 126.619 333.641 107.241 355.34 98.4512C391.709 83.7565 409.911 64.2766 417.688 85.4873C425.464 106.698 426.347 110.159 417.688 116.641C409.028 123.123 417.246 131.37 409.47 137.411C401.659 143.486 396.022 125.906 373.949 130.148C351.876 134.39 283.009 180.273 263.958 227.887C244.908 275.501 241.885 334.789 241.885 334.789C241.885 334.789 371.81 339.132 402.101 338.691C432.426 338.25 444.718 322.537 461.188 325.592C477.658 328.578 482.854 341.983 478.099 352.368Z" fill="#2C8469"/>
<path d="M361.826 122.886C351.231 127.094 341.757 133.848 334.218 142.366C329.837 147.287 326.204 152.717 323.283 158.486C343.828 142.841 363.83 132.083 373.983 130.114C396.056 125.872 401.693 143.452 409.504 137.377C417.28 131.336 409.062 123.09 417.721 116.608C422.272 113.18 424.174 110.601 423.868 105.849C416.295 111.619 406.923 114.436 397.109 115.895C385.054 117.727 373.236 118.338 361.826 122.886Z" fill="#1A5B45"/>
<path d="M467.946 327.594C464.686 332.854 460.611 337.605 455.755 341.61C446.96 348.872 436.67 353.624 425.804 356.746C455.925 356.542 476.741 355.354 478.133 352.368C482.14 343.578 479.016 332.583 467.946 327.594Z" fill="#1A5B45"/>
<path d="M201.271 322.945C193.868 320.026 187.484 322.978 181.677 298.714C179.334 288.838 180.523 279.573 185.446 271.326C183.035 269.833 180.455 268.679 177.84 267.627C177.806 267.627 177.738 267.627 177.704 267.627C175.666 267.322 173.595 267.118 171.524 266.982C174.614 270.071 177.364 272.005 177.364 272.005C98.4113 278.148 135.562 317.073 152.677 314.426C107.648 333.465 185.175 354.234 185.175 354.234C191.491 353.861 200.66 353.725 211.866 353.725C211.255 353.081 210.644 352.436 210.066 351.723C203.92 344.528 197.807 332.413 201.271 322.945Z" fill="#1A5B45"/>
<path d="M306.508 152.207C305.455 160.352 298.969 167.004 291.566 170.499C284.129 173.995 275.776 174.911 267.592 175.794C259.136 176.71 250.68 177.592 242.225 178.509C236.35 179.119 230 179.662 224.872 176.71C222.054 175.081 219.948 172.434 218.726 169.413C225.823 164.119 242.836 154.278 263.007 143.452C270.173 143.011 277.236 142.026 283.722 139.447C294.521 135.205 308.41 137.547 306.508 152.207Z" fill="#1A5B45"/>
<path d="M274.214 168.667C272.244 156.789 250.171 157.468 245.077 171.246C243.413 175.895 241.715 180.613 241.24 185.534C240.765 190.454 241.648 195.681 244.704 199.583C247.998 203.792 253.703 205.998 258.966 205.047C266.098 203.758 271.395 197.276 273.433 190.285C275.436 183.294 274.825 175.895 274.214 168.667Z" fill="#1A5B45"/>
<path d="M256.487 205.692C251.835 205.692 247.183 203.52 244.33 199.821C241.512 196.19 240.255 191.065 240.799 185.432C241.274 180.409 243.006 175.658 244.67 171.042L245.553 171.348C243.923 175.895 242.191 180.613 241.749 185.5C241.24 190.896 242.429 195.783 245.111 199.21C248.269 203.283 253.805 205.421 258.898 204.504C265.249 203.35 270.75 197.717 272.991 190.081C275.029 183.124 274.383 175.42 273.772 168.667L274.723 168.599C275.3 175.454 275.979 183.226 273.908 190.387C271.599 198.328 265.758 204.267 259.068 205.455C258.185 205.624 257.336 205.692 256.487 205.692Z" fill="white"/>
<path d="M288.578 118.746C275.911 123.802 260.936 122.682 247.454 123.497C243.447 123.734 239.372 123.972 235.569 125.295C229.389 127.433 224.159 132.66 222.733 139.04C221.273 145.42 224.057 152.716 229.728 156.008C234.856 158.961 241.172 158.418 247.047 157.807C255.503 156.891 263.958 156.008 272.414 155.092C280.598 154.21 288.951 153.293 296.388 149.798C303.825 146.302 310.311 139.651 311.364 131.506C313.198 116.811 299.343 114.469 288.578 118.746Z" fill="#3DB5C9"/>
<path d="M253.533 139.922C263.686 137.784 273.229 133.983 280.869 126.721C283.382 124.345 285.658 121.732 287.797 119.017C274.417 123.429 259.034 122.139 247.454 123.497C243.447 123.972 239.372 123.972 235.569 125.295C229.389 127.433 224.159 132.66 222.733 139.04C222.529 139.922 222.427 140.839 222.393 141.755C232.852 142.977 243.787 141.992 253.533 139.922Z" fill="#53CAF1"/>
<path d="M199.675 323.42C194.106 321.621 189.25 317.65 186.295 312.594C183.375 307.537 182.39 301.327 183.613 295.625C184.564 291.213 186.737 287.413 189.759 284.833C193.121 281.983 197.705 280.727 201.645 281.643L201.441 282.56C197.773 281.745 193.529 282.899 190.37 285.546C187.518 287.956 185.446 291.621 184.53 295.795C183.341 301.293 184.292 307.232 187.11 312.119C189.929 316.972 194.615 320.773 199.947 322.503L199.675 323.42Z" fill="#3DB5C9"/>
<path d="M222.869 296.813C216.688 296.813 210.61 293.25 207.587 287.854C204.531 282.322 204.803 275.093 208.266 269.799C211.73 264.505 218.318 261.417 224.566 262.062L224.465 263.012C218.522 262.401 212.308 265.353 209.048 270.342C205.754 275.331 205.516 282.186 208.402 287.413C211.289 292.639 217.231 296.033 223.242 295.863L223.276 296.813C223.14 296.813 223.004 296.813 222.869 296.813Z" fill="#3DB5C9"/>
<path d="M210.406 249.369C205.448 249.369 200.388 248.894 195.634 247.265C188.129 244.686 180.421 238 180.081 228.973C179.809 221.676 184.733 214.414 192.34 210.851C198.419 208.034 205.991 207.389 214.854 208.984L214.685 209.9C206.025 208.339 198.656 208.95 192.748 211.699C185.582 215.025 180.76 222.118 181.032 228.939C181.371 237.491 188.978 243.973 195.94 246.349C203.852 249.064 212.681 248.487 220.492 247.944L220.559 248.894C217.333 249.131 213.904 249.369 210.406 249.369Z" fill="#3DB5C9"/>
<path d="M396.566 113.451L396.362 112.535L410.862 109.175L411.032 89.933C409.062 90.9172 406.685 91.9693 404.206 93.0553C394.868 97.2295 383.254 102.422 382.269 107.377C382.031 108.531 382.405 109.583 383.39 110.635L382.71 111.279C381.522 109.99 381.08 108.632 381.386 107.173C382.507 101.743 394.358 96.449 403.867 92.2068C406.651 90.9512 409.266 89.7973 411.337 88.7453L412.017 88.4059L411.813 109.956L396.566 113.451Z" fill="#3DB5C9"/>
<path d="M276.896 193.373L276.047 192.932C278.526 188.316 279.851 183.09 279.817 177.83H280.768C280.801 183.226 279.477 188.622 276.896 193.373Z" fill="#3DB5C9"/>
<path d="M368.53 138.449L367.268 156.357L368.216 156.424L369.478 138.516L368.53 138.449Z" fill="white"/>
<path d="M343.696 152.197L341.824 162.274L342.759 162.448L344.631 152.371L343.696 152.197Z" fill="white"/>
<path d="M315.079 176.994L314.624 187.097L315.574 187.14L316.028 177.037L315.079 176.994Z" fill="white"/>
<path d="M365.673 332.451L364.752 334.751L365.635 335.104L366.556 332.803L365.673 332.451Z" fill="white"/>
<path d="M397.795 326.926L394.575 333.361L395.425 333.786L398.645 327.351L397.795 326.926Z" fill="white"/>
</svg>
