<svg width="517" height="517" viewBox="0 0 517 517" fill="none" xmlns="http://www.w3.org/2000/svg">
<path d="M465.3 191.644L454.337 350.787L87.8976 367.954L53.7549 303.97L195.808 103.374L465.3 191.644Z" fill="#FFEADC"/>
<path d="M421.541 76.1929H251.151C243.794 76.1929 237.831 82.1567 237.831 89.5134V414.815C237.831 422.172 243.794 428.135 251.151 428.135H421.541C428.898 428.135 434.862 422.172 434.862 414.815V89.5134C434.862 82.1567 428.898 76.1929 421.541 76.1929Z" fill="black" stroke="black" stroke-width="5" stroke-miterlimit="10"/>
<path d="M408.13 84.6458H251.151C243.794 84.6458 237.831 90.6096 237.831 97.9663V414.812C237.831 422.169 243.794 428.133 251.151 428.133H408.13C415.487 428.133 421.451 422.169 421.451 414.812V97.9663C421.451 90.6096 415.487 84.6458 408.13 84.6458Z" fill="white" stroke="black" stroke-width="5" stroke-miterlimit="10"/>
<path d="M425.377 158.07H427.006C427.471 158.071 427.931 157.979 428.361 157.802C428.791 157.624 429.181 157.363 429.51 157.035C429.839 156.706 430.1 156.316 430.278 155.886C430.456 155.457 430.547 154.996 430.547 154.531V134.885C430.547 134.42 430.456 133.96 430.278 133.53C430.1 133.101 429.839 132.711 429.51 132.382C429.181 132.053 428.791 131.793 428.361 131.615C427.931 131.437 427.471 131.346 427.006 131.346H425.377" stroke="white" stroke-width="5" stroke-linecap="round" stroke-linejoin="round"/>
<path d="M430.547 205.831V195.186C430.547 194.721 430.456 194.26 430.278 193.83C430.1 193.401 429.839 193.01 429.51 192.681C429.181 192.353 428.791 192.092 428.361 191.914C427.932 191.736 427.471 191.644 427.006 191.644H425.377" stroke="white" stroke-width="5" stroke-linecap="round" stroke-linejoin="round"/>
<path d="M425.377 210.029H427.006C427.471 210.029 427.932 209.937 428.361 209.759C428.791 209.581 429.181 209.32 429.51 208.991C429.839 208.663 430.1 208.272 430.278 207.842C430.456 207.413 430.547 206.952 430.547 206.487V197.494" stroke="white" stroke-width="5" stroke-linecap="round" stroke-linejoin="round"/>
<path d="M430.547 226.043V215.395C430.547 214.93 430.456 214.47 430.278 214.04C430.1 213.611 429.839 213.221 429.51 212.892C429.181 212.563 428.791 212.303 428.361 212.125C427.931 211.947 427.471 211.856 427.006 211.856H425.377" stroke="white" stroke-width="5" stroke-linecap="round" stroke-linejoin="round"/>
<path d="M425.377 230.241H427.006C427.945 230.241 428.846 229.868 429.51 229.204C430.174 228.539 430.547 227.639 430.547 226.699V217.709" stroke="white" stroke-width="5" stroke-linecap="round" stroke-linejoin="round"/>
<path d="M398.271 141.627H259.022V171.432H398.271V141.627Z" stroke="black" stroke-width="5" stroke-linecap="round" stroke-linejoin="round"/>
<path d="M398.271 203.463H259.022V233.268H398.271V203.463Z" stroke="black" stroke-width="5" stroke-linecap="round" stroke-linejoin="round"/>
<path d="M398.271 265.296H259.022V295.101H398.271V265.296Z" stroke="black" stroke-width="5" stroke-linecap="round" stroke-linejoin="round"/>
<path d="M246.563 286.992L259.529 303.257L237.831 309.83L246.563 286.992Z" fill="#0061FA"/>
<path d="M262.84 400.042V440.807H272.663V424.594H278.609V440.807H321.778C327.486 440.807 332.17 434.184 319.951 426.877C307.731 419.569 296.2 416.715 296.2 416.715V400.499L262.84 400.042Z" fill="#231F20"/>
<path d="M294.463 417.736C292.101 419.136 289.91 420.807 287.936 422.715" stroke="white" stroke-width="5" stroke-linecap="round" stroke-linejoin="round"/>
<path d="M293.935 412.527C291.343 413.431 288.863 414.632 286.547 416.107" stroke="white" stroke-width="5" stroke-linecap="round" stroke-linejoin="round"/>
<path d="M299.565 420.236C297.621 422.175 295.908 424.333 294.462 426.667" stroke="white" stroke-width="5" stroke-linecap="round" stroke-linejoin="round"/>
<path d="M128.663 374.267H87.8901V384.09H104.106V390.035H87.8901V433.205C87.8901 438.915 94.5129 443.596 101.821 431.38C109.129 419.163 111.985 407.626 111.985 407.626H128.216L128.663 374.267Z" fill="#231F20"/>
<path d="M110.958 405.892C109.561 403.529 107.891 401.339 105.985 399.364" stroke="white" stroke-width="5" stroke-linecap="round" stroke-linejoin="round"/>
<path d="M116.178 405.364C115.276 402.771 114.075 400.291 112.598 397.976" stroke="white" stroke-width="5" stroke-linecap="round" stroke-linejoin="round"/>
<path d="M108.472 410.994C106.534 409.049 104.376 407.337 102.041 405.892" stroke="white" stroke-width="5" stroke-linecap="round" stroke-linejoin="round"/>
<path d="M241.791 307.548C241.791 307.548 271.942 295.207 285.868 291.712C299.793 288.217 306.646 290.533 309.696 291.712C318.451 295.101 326.475 305.93 325.982 316.575C325.41 329.096 329.634 329.893 329.975 335.792C330.317 341.69 327.008 342.148 327.008 347.972C327.008 353.796 330.255 358.829 330.001 364.415C329.748 370.001 327.463 369.895 327.463 374.807C327.463 379.718 330.66 385.426 330.66 390.108C330.66 394.789 329.862 394.562 329.862 396.389C329.862 398.217 333.173 400.957 332.832 406.895L260.206 405.294L262.274 354.37L235.667 361.794C235.667 361.794 247.912 380.825 251.539 393.044C255.165 405.263 256.336 422.314 242.328 430.079C230.841 436.438 209.626 433.505 204.717 434.301C199.808 435.097 193.182 438.411 188.615 438.178C184.047 437.946 177.652 434.867 171.486 434.983C165.321 435.099 158.696 439.895 153.443 439.665C148.19 439.435 145.794 436.012 141.34 436.012C136.886 436.012 127.18 438.982 123.868 438.855V374.122L165.205 375.833L153.549 326.39L219.893 289.76L241.791 307.548Z" fill="#FF2B4A"/>
<path d="M254.609 356.503L262.269 354.365L261.4 375.9L268.548 352.54L254.609 356.503Z" fill="#DE0020"/>
<path d="M235.662 361.789L242.455 359.894L227.328 350.784C230.313 354.291 233.095 357.965 235.662 361.789Z" fill="#DE0020"/>
<path d="M169.658 376.177L162.201 363.079L165.205 375.833L161.663 375.686L169.658 376.177Z" fill="#DE0020"/>
<path d="M274.845 242.194C274.251 243.27 273.272 244.081 272.105 244.467C270.937 244.852 269.668 244.782 268.55 244.272C267.432 243.761 266.547 242.847 266.074 241.713C265.601 240.579 265.573 239.307 265.997 238.153C265.341 239.193 264.316 239.946 263.129 240.263C261.941 240.58 260.678 240.437 259.591 239.862C258.546 239.307 257.731 238.401 257.29 237.303C256.849 236.205 256.811 234.986 257.182 233.862C256.496 234.803 255.496 235.468 254.362 235.735C253.229 236.002 252.037 235.854 251.003 235.319C249.969 234.783 249.161 233.895 248.725 232.815C248.29 231.735 248.255 230.535 248.628 229.432L172.161 382.87C171.231 384.591 170.656 386.483 170.471 388.431C170.287 390.379 170.496 392.345 171.086 394.211C171.676 396.076 172.636 397.805 173.908 399.292C175.179 400.78 176.737 401.996 178.489 402.87C180.24 403.743 182.149 404.255 184.102 404.375C186.056 404.496 188.013 404.222 189.859 403.571C191.704 402.92 193.4 401.904 194.845 400.584C196.29 399.264 197.454 397.667 198.27 395.888L275.114 241.677V241.586C275.038 241.795 274.949 241.998 274.845 242.194Z" fill="black"/>
<path d="M249.533 228.788C249.533 228.788 247.297 233.5 251.412 235.176C253.601 236.065 255.713 236.049 257.068 234.196C256.311 236.365 256.828 239.516 258.916 240.622C261.101 241.78 264.487 240.26 265.785 238.203C264.937 240.395 265.937 242.644 268.062 243.771C268.607 244.06 269.204 244.239 269.818 244.297C270.432 244.355 271.052 244.292 271.642 244.111C272.232 243.93 272.78 243.634 273.256 243.241C273.731 242.847 274.125 242.364 274.413 241.819C274.512 241.629 274.599 241.433 274.672 241.232L274.026 236.812L271.102 216.788L253.938 226.353L249.543 228.801" fill="white"/>
<path d="M249.533 228.788C249.533 228.788 247.297 233.5 251.412 235.176C253.601 236.065 255.713 236.049 257.068 234.196C256.311 236.365 256.828 239.516 258.916 240.622C261.101 241.78 264.487 240.26 265.785 238.203C264.937 240.395 265.937 242.644 268.062 243.771C268.607 244.06 269.204 244.239 269.818 244.297C270.432 244.355 271.052 244.292 271.642 244.111C272.232 243.93 272.78 243.634 273.256 243.241C273.731 242.847 274.125 242.364 274.413 241.819C274.512 241.629 274.599 241.433 274.672 241.232L274.026 236.812L271.102 216.788L253.938 226.353L249.543 228.801" stroke="black" stroke-width="5" stroke-linecap="round" stroke-linejoin="round"/>
<path d="M272.066 223.403L271.099 216.788L265.257 220.038C265.918 221.222 266.923 222.177 268.139 222.778C269.355 223.378 270.724 223.594 272.066 223.398V223.403Z" fill="black"/>
<path d="M193.754 253.193C189.101 243.143 176.414 245.022 167.813 242.507C159.332 240.028 157.698 218.593 145.479 217.251C135.454 216.15 129.465 225.443 127.182 240.061C124.9 254.679 104.574 258.673 97.036 266.844C89.4981 275.016 84.7004 299.439 103.772 309.942C122.845 320.444 149.219 313.48 149.219 313.48L193.754 253.193Z" fill="black"/>
<path d="M176.896 329.218C176.896 329.218 192.714 322.215 195.085 320.261C198.321 317.596 201.03 314.628 203.687 312.115C206.345 309.603 210.196 311.885 208.904 314.931C207.611 317.976 203.338 323.241 204.145 325.552C205.249 328.711 215.002 328.864 219.559 328.026C224.117 327.189 225.531 326.584 227.86 325.958C231.321 325.043 232.084 327.633 231.551 329.725C231.551 329.725 233.72 329.916 233.834 331.932C233.947 333.948 231.892 335.207 231.892 335.207C232.371 336.178 232.454 337.297 232.122 338.327C231.551 340.002 228.762 341.184 228.762 341.184C228.941 341.573 229.031 341.997 229.024 342.425C229.017 342.853 228.914 343.275 228.723 343.658C227.658 346.018 221.948 347.995 217.228 348.378C212.507 348.76 200.138 350.704 196.064 352.793C191.99 354.882 187.094 358.281 187.094 358.281L177.848 339.977L176.896 329.218Z" fill="#FEB0A3"/>
<path d="M214.656 340.367C220.267 339.865 225.733 338.313 230.771 335.792" stroke="#231F20" stroke-width="5" stroke-linecap="round" stroke-linejoin="round"/>
<path d="M215.049 344.643C219.252 344.297 223.385 343.363 227.328 341.866" stroke="#231F20" stroke-width="5" stroke-linecap="round" stroke-linejoin="round"/>
<path d="M214.296 335.075C219.845 334.527 225.242 332.949 230.212 330.422" stroke="#231F20" stroke-width="5" stroke-linecap="round" stroke-linejoin="round"/>
<path d="M228.953 269.08C228.953 269.08 209.359 255.933 200.518 253.648C191.678 251.363 169.687 260.082 169.687 260.082L147.04 270.74C147.04 270.74 129.721 279.229 125 287.449C120.28 295.67 116.447 322.468 115.319 339.977C114.192 357.485 112.515 372.548 123.333 380.021C134.151 387.494 147.389 381.848 164.9 371.49C182.411 361.132 187.433 358.09 187.433 358.09C187.433 358.09 183.171 350.782 181.488 343.932C179.805 337.081 178.3 328.554 178.3 328.554L154.642 339.669L155.242 328.706L214.488 297.945L228.953 269.08Z" fill="#0061FA"/>
<path d="M155.056 332.558L155.03 332.591L154.764 337.467L155.056 332.558Z" fill="#0043AE"/>
<path d="M154.764 337.467L155.03 332.591L146.593 343.254L154.648 339.599L154.764 337.467Z" fill="#0043AE"/>
<path d="M155.289 328.688L160.919 325.79L156.413 309.83L155.289 328.688Z" fill="#0043AE"/>
<path d="M212.262 299.113L214.488 297.957L215.1 296.735L209.512 288.535L212.262 299.113Z" fill="#0043AE"/>
<path d="M128.663 279.343C128.663 279.343 141.33 286.079 141.226 291.79C141.123 297.5 132.549 299.545 122.956 287.912" stroke="white" stroke-width="5" stroke-linecap="round" stroke-linejoin="round"/>
<path d="M133.101 275.561C133.101 275.561 151.181 282.657 151.398 292.935C151.615 303.213 142.937 307.207 135.402 304.567C127.867 301.928 117.131 288.887 117.131 288.887" stroke="white" stroke-width="5" stroke-linecap="round" stroke-linejoin="round"/>
<path d="M138.6 272.02C138.6 272.02 151.398 274.545 156.527 283.112C161.697 291.746 160.296 311.03 141.226 313.943C124.563 316.479 115.33 307.548 115.33 307.548" stroke="white" stroke-width="5" stroke-linecap="round" stroke-linejoin="round"/>
<path d="M116.178 315.75C116.178 315.75 121.242 320.452 127.409 320.566C138.553 320.773 146.593 323.65 136.087 330.41C125.093 337.485 108.472 334.667 108.472 334.667" stroke="white" stroke-width="5" stroke-linecap="round" stroke-linejoin="round"/>
<path d="M157.127 312.353C162.472 309.409 161.836 304.34 165.14 305.606C168.242 306.785 163.256 312.875 159.944 315.75C156.633 318.624 146.244 325.361 145.9 320.279C145.556 315.197 154.412 313.847 157.127 312.353Z" stroke="white" stroke-width="5" stroke-linecap="round" stroke-linejoin="round"/>
<path d="M156.012 263.127C160.981 265.754 166.577 273.061 166.805 279.343C167.032 285.624 164.519 297.27 168.175 298.754C171.83 300.237 179.032 288.45 177.881 272.02C176.731 255.589 175.482 253.33 175.482 253.33" stroke="white" stroke-width="5" stroke-linecap="round" stroke-linejoin="round"/>
<path d="M188.387 251.479C188.615 257.425 188.958 280.198 183.933 295.101C179.916 307.02 155.464 342.688 114.5 341.866" stroke="white" stroke-width="5" stroke-linecap="round" stroke-linejoin="round"/>
<path d="M108.942 349.931C113.869 350.847 129.279 349.802 142.082 342.51C154.886 335.218 166.898 332.118 161.265 342.51C155.633 352.902 129.532 362.285 115.299 366.672" stroke="white" stroke-width="5" stroke-linecap="round" stroke-linejoin="round"/>
<path d="M183.967 332.744C181.454 336.001 167.009 350.787 152.869 359.734C142.47 366.31 126.04 372.77 116.178 375.055" stroke="white" stroke-width="5" stroke-linecap="round" stroke-linejoin="round"/>
<path d="M122.956 384.989C128.539 383.389 145.484 375.942 156.447 367.954C167.41 359.966 179.575 353.695 178.003 364.718" stroke="white" stroke-width="5" stroke-linecap="round" stroke-linejoin="round"/>
<path d="M199.384 249.53C199.04 254.584 195.385 268.17 200.64 271.482C205.895 274.793 208.747 255.496 208.747 250.357" stroke="white" stroke-width="5" stroke-linecap="round" stroke-linejoin="round"/>
<path d="M190.703 296.375C195.385 289.76 196.98 275.346 201.666 281.762C206.12 287.858 196.985 311.286 192.303 313.765C187.622 316.244 178.823 313.16 190.703 296.375Z" stroke="white" stroke-width="5" stroke-linecap="round" stroke-linejoin="round"/>
<path d="M217.424 255.724C216.282 259.265 210.46 284.234 207.146 295.101C203.832 305.968 201.78 309.298 201.78 309.298" stroke="white" stroke-width="5" stroke-linecap="round" stroke-linejoin="round"/>
<path d="M225.303 259.379C224.269 262.918 217.548 280.767 217.424 285.986C217.3 291.205 221.364 292.265 221.364 292.265" stroke="white" stroke-width="5" stroke-linecap="round" stroke-linejoin="round"/>
<path d="M151.085 219.849C151.085 219.849 157.744 225.673 159.952 228.604C162.16 231.536 165.352 237.445 163.512 240.441C163.071 241.201 162.45 241.841 161.705 242.305C160.96 242.77 160.112 243.045 159.236 243.106L169.703 260.082C169.703 260.082 168.446 268.685 162.889 271.045C157.331 273.405 147.055 270.74 147.055 270.74L142.868 239.565C142.354 240.032 141.74 240.375 141.072 240.565C140.404 240.756 139.702 240.79 139.019 240.663C136.734 240.209 132.815 237.43 133.117 234.118C133.42 230.807 135.86 230.197 137.382 230.197C138.551 230.191 139.702 230.479 140.73 231.034L140.846 226.733C140.846 226.733 146.668 226.087 148.648 224.665C150.628 223.243 151.085 219.849 151.085 219.849Z" fill="#FEB0A3"/>
<path d="M159.236 243.106C157.598 243.156 155.958 243.111 154.325 242.972C151.776 242.744 147.436 241.659 147.436 241.659L148.501 246.798C151.046 248.177 153.842 249.031 156.723 249.31C161.596 249.804 163.062 249.31 163.062 249.31L159.236 243.106Z" fill="#FD8571"/>
<path d="M154.643 226.128L159.44 232.523L163.55 230.011L154.643 226.128Z" fill="#FF2B4A" stroke="#FF2B4A" stroke-width="5" stroke-linecap="round" stroke-linejoin="round"/>
<path d="M152.838 235.673C154.132 234.692 154.54 233.052 153.749 232.008C152.959 230.965 151.269 230.914 149.975 231.894C148.681 232.874 148.273 234.515 149.064 235.558C149.854 236.602 151.544 236.653 152.838 235.673Z" fill="#FF2B4A"/>
<path d="M158.039 237.044C157.183 237.96 155.413 238.595 153.502 238.078" stroke="black" stroke-width="5" stroke-linecap="round" stroke-linejoin="round"/>
<path d="M150.261 228.103L150.762 228.698" stroke="black" stroke-width="5" stroke-linecap="round" stroke-linejoin="round"/>
<path d="M136.858 232.694C136.858 232.694 135.175 232.867 135.402 234.808C135.547 236.047 136.972 237.076 138.6 237.652" stroke="black" stroke-width="5" stroke-linecap="round" stroke-linejoin="round"/>
<path d="M86.2615 289.574C86.2615 289.574 84.5864 279.069 90.992 270.391C97.3977 261.713 113.451 255.915 119.541 247.4C125.631 238.885 129.584 226.679 133.546 222.124C138.021 216.987 144.605 217.841 144.605 217.841" stroke="black" stroke-width="5" stroke-linecap="round" stroke-linejoin="round"/>
<path d="M273.154 286.992C273.154 286.992 269.044 274.584 269.119 270.931C269.194 267.279 270.564 262.481 271.135 260.501C271.707 258.521 269.119 256.161 266.759 258.368C264.399 260.576 262.496 265.526 262.496 265.526C262.496 265.526 260.157 260.93 258.415 258.759C256.672 256.587 253.56 252.813 251.277 253.392C250.672 253.506 250.137 253.856 249.789 254.364C249.441 254.873 249.309 255.498 249.421 256.104C249.421 256.104 246.624 253.307 244.768 255.248C242.912 257.189 245.027 260.901 245.027 260.901C244.427 260.937 243.852 261.153 243.378 261.522C242.904 261.892 242.553 262.396 242.372 262.969C241.63 265.037 243.316 268.222 243.316 268.222C243.316 268.222 241.449 268.139 240.775 269.905C239.947 272.076 241.152 274.336 245.115 281.781C248.682 288.502 250.908 298.911 251.422 303.164C251.43 303.217 251.441 303.27 251.456 303.321C251.581 303.145 251.749 303.003 251.944 302.908C252.138 302.813 252.354 302.768 252.57 302.778C252.88 302.778 253.162 302.778 253.431 302.778C253.422 302.572 253.456 302.367 253.53 302.174C253.605 301.982 253.719 301.808 253.865 301.662C253.983 301.457 254.152 301.286 254.355 301.165C254.557 301.043 254.788 300.976 255.024 300.969C255.261 300.962 255.495 301.016 255.704 301.125C255.914 301.234 256.093 301.395 256.223 301.592C256.912 301.06 257.689 300.65 258.518 300.382C259.906 299.95 261.318 299.607 262.654 298.991C263.872 298.433 265.058 297.828 266.301 297.324C266.469 297.245 266.652 297.207 266.837 297.214C267.022 297.22 267.203 297.272 267.364 297.363C270.75 295.388 273.33 293.744 273.33 293.744L273.154 286.992Z" fill="#FEB0A3"/>
<path d="M259.017 270.032C256.851 265.436 254.029 261.179 250.642 257.394" stroke="#231F20" stroke-width="5" stroke-linecap="round" stroke-linejoin="round"/>
<path d="M254.881 275.303C252.648 270.479 249.696 266.023 246.125 262.085" stroke="#231F20" stroke-width="5" stroke-linecap="round" stroke-linejoin="round"/>
<path d="M251.309 281.765C249.524 277.325 247.14 273.15 244.223 269.357" stroke="#231F20" stroke-width="5" stroke-linecap="round" stroke-linejoin="round"/>
<path d="M275.649 294.799L273.155 286.992L250.647 302.903L251.006 303.875C257.862 301.191 267.411 297.557 275.649 294.799Z" fill="#0061FA"/>
<path d="M174.912 377.34L172.161 382.87C171.231 384.591 170.656 386.483 170.471 388.431C170.287 390.379 170.496 392.345 171.086 394.211C171.676 396.076 172.636 397.805 173.908 399.292C175.179 400.78 176.737 401.996 178.489 402.869C180.24 403.743 182.149 404.255 184.102 404.375C186.056 404.496 188.013 404.222 189.859 403.571C191.704 402.92 193.4 401.904 194.845 400.584C196.29 399.264 197.454 397.667 198.27 395.888L200.707 390.997L174.912 377.34Z" fill="#FEB0A3"/>
<path d="M202.476 392.046L172.59 376.177" stroke="#231F20" stroke-width="5" stroke-linecap="round" stroke-linejoin="round"/>
<path d="M124.209 162.524H75.2235C72.7636 162.524 70.7695 164.518 70.7695 166.978C70.7695 169.438 72.7636 171.432 75.2235 171.432H124.209C126.669 171.432 128.663 169.438 128.663 166.978C128.663 164.518 126.669 162.524 124.209 162.524Z" fill="black" stroke="black" stroke-width="5" stroke-miterlimit="10"/>
<path d="M58.6797 154.066C58.6797 154.066 60.7477 132.37 73.9803 132.37C87.2129 132.37 94.9783 154.066 83.5603 154.066C72.1424 154.066 76.1362 131.807 89.9582 131.807C102.862 131.807 106.231 154.074 100.815 154.074C95.3996 154.074 97.0462 141.286 104.925 141.286C112.804 141.286 113.714 154.074 113.714 154.074H169.705" stroke="black" stroke-width="5" stroke-linecap="round" stroke-linejoin="round"/>
<path d="M368.846 361.921C368.846 361.921 370.836 339.653 384.653 339.653C397.555 339.653 400.923 361.921 395.51 361.921C390.097 361.921 391.744 349.133 399.623 349.133C407.502 349.133 408.412 361.921 408.412 361.921H464.403" stroke="black" stroke-width="5" stroke-linecap="round" stroke-linejoin="round"/>
<path d="M220.932 122.912C225.038 122.912 228.367 119.583 228.367 115.477C228.367 111.371 225.038 108.043 220.932 108.043C216.826 108.043 213.498 111.371 213.498 115.477C213.498 119.583 216.826 122.912 220.932 122.912Z" fill="black" stroke="black" stroke-width="5" stroke-miterlimit="10"/>
<path d="M186.903 232.751C188.795 232.751 190.328 231.217 190.328 229.326C190.328 227.434 188.795 225.901 186.903 225.901C185.012 225.901 183.478 227.434 183.478 229.326C183.478 231.217 185.012 232.751 186.903 232.751Z" fill="black" stroke="black" stroke-width="5" stroke-miterlimit="10"/>
<path d="M57.1804 243.122C60.207 243.122 62.6606 240.668 62.6606 237.642C62.6606 234.615 60.207 232.161 57.1804 232.161C54.1538 232.161 51.7002 234.615 51.7002 237.642C51.7002 240.668 54.1538 243.122 57.1804 243.122Z" fill="black" stroke="black" stroke-width="5" stroke-miterlimit="10"/>
<path d="M446.98 195.395C451.043 195.395 454.337 192.101 454.337 188.038C454.337 183.975 451.043 180.681 446.98 180.681C442.917 180.681 439.623 183.975 439.623 188.038C439.623 192.101 442.917 195.395 446.98 195.395Z" fill="black" stroke="black" stroke-width="5" stroke-miterlimit="10"/>
<path d="M265.692 131.794C265.175 133.218 266.436 134.867 268.37 135.263C270.469 135.692 272.72 134.71 273.894 133.358C275.067 132.006 275.401 130.367 275.703 128.78C275.933 127.601 275.827 126.019 274.263 125.706C273.815 125.632 273.354 125.677 272.928 125.835C272.502 125.994 272.125 126.261 271.834 126.611C271.345 127.231 271.252 127.976 271.169 128.679C270.993 130.191 270.833 131.781 271.655 133.174C272.477 134.567 274.636 135.663 276.598 135.18C277.663 134.921 278.498 134.203 278.681 133.389C278.865 132.574 278.389 131.695 277.487 131.202C277.035 132.088 276.854 133.096 277.337 133.973C277.82 134.849 279.105 135.524 280.372 135.351C281.638 135.177 282.502 133.965 281.763 133.192C280.886 134.12 281.817 135.635 283.345 135.777C284.872 135.919 286.253 134.596 285.694 133.541C284.885 134.149 285.593 135.389 286.752 135.392C287.91 135.395 288.621 134.156 287.817 133.544C286.863 134.024 287.041 135.227 287.992 135.71C288.944 136.193 290.296 136.046 291.244 135.56" stroke="black" stroke-width="5" stroke-linecap="round" stroke-linejoin="round"/>
<path d="M265.847 197.734C266.796 196.896 267.562 195.87 268.096 194.72C268.63 193.571 268.92 192.324 268.949 191.057C268.994 190.392 268.853 189.728 268.54 189.139C268.196 188.576 267.506 188.172 266.873 188.32C265.865 188.555 265.562 189.837 265.58 190.871C265.609 192.422 265.927 194.015 266.837 195.266C267.747 196.517 269.336 197.354 270.856 197.049C272.376 196.744 273.583 195.093 273.131 193.611C272.812 193.7 272.524 193.877 272.302 194.122C272.079 194.368 271.931 194.671 271.875 194.998C271.818 195.324 271.855 195.66 271.982 195.966C272.109 196.272 272.321 196.535 272.592 196.726C272.863 196.916 273.182 197.025 273.513 197.041C273.844 197.057 274.173 196.978 274.461 196.814C274.749 196.651 274.984 196.408 275.139 196.116C275.295 195.823 275.364 195.493 275.339 195.162C275.242 195.333 275.188 195.525 275.182 195.721C275.176 195.917 275.219 196.111 275.305 196.287C275.392 196.463 275.521 196.615 275.68 196.73C275.84 196.844 276.025 196.918 276.219 196.945C276.414 196.971 276.612 196.949 276.796 196.882C276.98 196.814 277.145 196.702 277.275 196.555C277.406 196.409 277.499 196.233 277.546 196.042C277.592 195.852 277.592 195.652 277.544 195.462C277.197 195.721 277.285 196.326 277.67 196.54C277.864 196.633 278.082 196.665 278.294 196.631C278.506 196.596 278.702 196.498 278.857 196.349C279.161 196.043 279.379 195.664 279.49 195.248C279.499 195.717 279.653 196.173 279.932 196.55C280.211 196.928 280.6 197.21 281.046 197.357C281.493 197.504 281.973 197.508 282.422 197.37C282.871 197.231 283.265 196.957 283.551 196.584" stroke="black" stroke-width="5" stroke-linecap="round" stroke-linejoin="round"/>
<path d="M265.57 162.359C266.862 163.455 268.876 163.393 270.318 162.516C271.761 161.64 272.676 160.055 273.121 158.422C273.565 156.788 273.594 155.061 273.617 153.381C273.617 152.634 273.632 151.856 273.309 151.181C272.986 150.506 272.229 149.979 271.5 150.173C270.696 150.388 270.344 151.313 270.163 152.125C269.708 154.167 269.577 156.328 270.163 158.329C270.75 160.329 272.102 162.188 274.02 163.031C275.938 163.874 278.415 163.532 279.803 161.974C280.287 161.47 280.564 160.803 280.578 160.105C280.558 159.412 280.098 158.709 279.42 158.554C278.585 158.37 277.737 159.127 277.647 159.981C277.556 160.834 278.071 161.661 278.771 162.154C279.247 162.487 279.8 162.692 280.378 162.749C280.955 162.805 281.538 162.712 282.069 162.478C282.6 162.245 283.062 161.878 283.411 161.414C283.759 160.95 283.982 160.403 284.058 159.828C283.13 160.603 283.541 162.413 284.717 162.71C285.893 163.008 287.121 161.637 286.687 160.505C285.973 160.937 286.082 162.142 286.772 162.612C287.462 163.083 288.444 162.907 289.098 162.395C289.752 161.883 290.164 161.102 290.487 160.34C291.408 158.154 291.876 155.803 291.862 153.43C291.862 152.443 291.526 151.186 290.543 151.07C289.45 150.941 288.887 152.321 288.695 153.396C288.323 155.524 287.948 157.724 288.46 159.823C288.972 161.922 290.613 163.905 292.764 164.104C294.982 164.308 297.133 162.266 297.042 160.04C295.853 160.735 295.92 162.803 297.151 163.421C298.381 164.039 300.077 162.855 299.924 161.488C299.899 162.405 300.529 163.245 301.323 163.703C302.117 164.16 303.055 164.3 303.97 164.372C306.146 164.536 308.333 164.361 310.456 163.855" stroke="black" stroke-width="5" stroke-linecap="round" stroke-linejoin="round"/>
</svg>
