<svg width="15" height="16" viewBox="0 0 15 16" fill="none" xmlns="http://www.w3.org/2000/svg">
<path d="M5.44954 12.9303C6.7011 12.9303 7.71569 12.0342 7.71569 10.6641V0.5H10.4334C10.281 2.35365 12.1237 4.14423 14.1559 4.10328V6.65888C12.418 6.65888 10.9401 5.92401 10.4257 5.51618V10.6641C10.4257 12.9303 8.64297 15.5 5.44954 15.5C2.25611 15.5 0.512268 12.9303 0.512268 10.6641C0.512268 7.46564 3.89705 5.61065 6.13887 6.06403V8.66707C6.02609 8.62717 5.73525 8.56818 5.48753 8.56818C4.22557 8.52166 3.18339 9.54518 3.18339 10.6641C3.18339 11.9157 4.19798 12.9303 5.44954 12.9303Z" fill="black"/>
</svg>
