<svg width="70" height="61" viewBox="0 0 70 61" fill="none" xmlns="http://www.w3.org/2000/svg">
<path d="M3.05619 52.2064C2.98773 52.1413 2.91762 52.0927 2.84587 52.0606C2.77576 52.0119 2.69741 51.9625 2.61081 51.9123C2.47637 51.8406 2.33905 51.7561 2.19883 51.6589C2.05861 51.5617 1.91796 51.4269 1.77688 51.2547C1.72076 51.1492 1.69145 51.0671 1.68895 51.0086C1.67902 50.941 1.67652 50.8825 1.68144 50.833L1.53536 50.5436L1.73935 50.3766C1.8193 50.3262 1.89555 50.2714 1.96807 50.212C2.04967 50.1451 2.12673 50.082 2.19926 50.0226C2.54378 49.7405 2.88622 49.4373 3.22659 49.1131C3.56696 48.7889 3.91269 48.4527 4.26376 48.1046C4.63626 47.7086 5.05162 47.3003 5.50985 46.8796C5.4735 46.7427 5.44873 46.657 5.43552 46.6223C5.43137 46.5803 5.42352 46.5337 5.41195 46.4826L5.49471 46.2785C5.69581 46.0986 5.86314 46.007 5.99672 46.0037C6.12286 45.9912 6.23088 45.9937 6.32076 46.0109C6.54163 45.7997 6.76332 45.5803 6.98583 45.3526C7.20092 45.1159 7.42507 44.8717 7.65829 44.6201C7.98381 44.2778 8.31386 43.9317 8.64845 43.582C8.98303 43.2322 9.32712 42.9125 9.6807 42.6229C9.83482 42.4967 9.98359 42.3824 10.127 42.2801C10.2704 42.1778 10.413 42.0838 10.5548 41.9979L10.8182 41.9867C10.9065 42.0204 11.0001 42.0422 11.099 42.0521C11.198 42.0619 11.306 42.0643 11.4231 42.0593C11.6482 42.0568 11.891 42.0851 12.1516 42.1443C12.4212 42.1961 12.6679 42.3956 12.8915 42.7426L12.9349 42.9343C12.9283 43.0002 12.9127 43.0736 12.888 43.1544L12.8968 43.4426L12.7472 43.5651C12.6565 43.6394 12.5959 43.7041 12.5655 43.7594C12.5276 43.8056 12.488 43.8682 12.4468 43.9474C12.4254 43.9953 12.3995 44.0468 12.369 44.1021C12.3311 44.1483 12.2923 44.2027 12.2528 44.2654C12.1456 44.338 12.0649 44.3966 12.0105 44.4411C11.9561 44.4857 11.8926 44.5376 11.8201 44.597C11.5481 44.8198 11.2683 45.0793 10.9807 45.3754C10.6931 45.6715 10.4182 45.9648 10.1562 46.2552C9.96086 46.4606 9.77461 46.6585 9.59743 46.8491C9.41283 47.0306 9.24636 47.1972 9.09802 47.349C9.20041 47.659 9.28959 47.9343 9.36557 48.1751C9.44154 48.4158 9.51299 48.6602 9.57989 48.9084C9.6468 49.1565 9.72196 49.4055 9.80536 49.6553C9.88133 49.896 9.9804 50.1557 10.1026 50.4343C10.1274 50.6866 10.1667 50.9195 10.2204 51.133C10.2667 51.3375 10.3451 51.5535 10.4557 51.781C10.446 52.0465 10.4836 52.2959 10.5686 52.5292C10.6627 52.7551 10.7391 52.9501 10.7977 53.1141L10.9104 53.3626C10.8989 53.4781 10.899 53.5614 10.9105 53.6125C10.9312 53.6562 10.9419 53.7155 10.9428 53.7906C11.0121 53.9307 11.0686 54.0737 11.1124 54.2196C11.1314 54.2798 11.1541 54.3445 11.1805 54.4138C11.1995 54.474 11.2247 54.5139 11.256 54.5337C11.3196 54.6483 11.3555 54.7476 11.3638 54.8317C11.4083 54.8861 11.4484 54.9442 11.4838 55.0061C11.5193 55.0679 11.5548 55.1297 11.5903 55.1915C11.6241 55.2698 11.6588 55.3399 11.6943 55.4017C11.7223 55.4545 11.764 55.4961 11.8193 55.5266C11.8762 55.5406 11.9331 55.5546 11.99 55.5686C12.0469 55.5825 12.1067 55.6093 12.1693 55.6489C12.2023 55.6521 12.2361 55.6472 12.2707 55.634C12.3054 55.6208 12.3392 55.6158 12.3722 55.6191C12.4967 55.6231 12.5944 55.6037 12.6652 55.5608L12.9349 55.6126C13.2566 55.8944 13.4146 56.1891 13.409 56.4967C13.4166 56.8389 13.23 57.1659 12.8492 57.4777L12.6477 57.6201C12.5323 57.6086 12.4626 57.5975 12.4387 57.5868C12.3274 57.6173 12.2334 57.6413 12.1567 57.6587C12.0875 57.6851 12.0042 57.6851 11.9069 57.6588C11.8739 57.6555 11.8438 57.665 11.8166 57.6873C11.782 57.7005 11.7482 57.7054 11.7152 57.7022C11.6023 57.7492 11.5038 57.7769 11.4197 57.7852L11.2032 57.8261C11.138 57.728 11.0906 57.6608 11.0609 57.6246C10.9067 57.5842 10.7587 57.5237 10.6168 57.443C10.484 57.3548 10.352 57.2584 10.2209 57.1538C10.112 57.0763 10.0106 57.0079 9.91654 56.9486C9.83158 56.8818 9.74045 56.8353 9.64314 56.809C9.10524 56.1892 8.7298 55.6106 8.51681 55.0731C8.29639 54.5265 8.10071 53.9824 7.92976 53.4408C7.84222 53.1489 7.74643 52.8563 7.6424 52.5628C7.53836 52.2693 7.42155 51.9787 7.29196 51.691L7.31903 51.4189C7.33794 51.3126 7.35275 51.2474 7.36346 51.2235C7.26693 51.1056 7.19678 50.9737 7.15301 50.8278C7.10182 50.6728 7.05515 50.5141 7.01302 50.3517C6.98988 50.2495 6.96221 50.151 6.93001 50.0562C6.90687 49.9539 6.87756 49.8719 6.84208 49.8101C6.77861 49.8621 6.7234 49.9149 6.67643 49.9685C6.63109 50.0056 6.58494 50.051 6.53797 50.1046C6.44239 50.2283 6.3402 50.3347 6.2314 50.4238C6.14981 50.4907 6.08717 50.5344 6.04348 50.555C6.00065 50.6507 5.95121 50.7291 5.89518 50.7901C5.83171 50.8421 5.76825 50.8941 5.70479 50.946L5.5416 51.0797L5.3784 51.2133C5.26961 51.3024 5.19462 51.3866 5.15343 51.4658C5.02651 51.5697 4.94491 51.6365 4.90865 51.6662C4.87238 51.6959 4.83158 51.7294 4.78625 51.7665L4.62306 51.9001L4.45987 52.0338C4.38734 52.0932 4.30203 52.1555 4.20395 52.2207C4.09843 52.2768 3.97354 52.3185 3.82926 52.3458L3.64496 52.3149C3.50889 52.2598 3.41447 52.2462 3.36172 52.2743L3.17871 52.356L3.05619 52.2064ZM18.5286 49.9862C18.7259 50.4305 18.8617 50.7813 18.936 51.0385C19.012 51.2792 19.0546 51.5624 19.0638 51.8881C18.9311 51.9665 18.8607 52.0469 18.8525 52.1294C18.8443 52.2118 18.8278 52.2935 18.8031 52.3743C18.7364 52.4592 18.6774 52.5075 18.6263 52.5191C18.5752 52.5306 18.5249 52.534 18.4754 52.529C18.4334 52.5332 18.3786 52.5402 18.311 52.5501C18.2599 52.5617 18.1935 52.6009 18.1119 52.6677C18.0344 52.6101 17.956 52.5606 17.8768 52.5194C17.8067 52.4708 17.7292 52.4964 17.6444 52.5962C17.6031 52.5089 17.5594 52.4462 17.5132 52.4083C17.4595 52.3613 17.4088 52.3271 17.361 52.3057C17.3148 52.2678 17.2723 52.2345 17.2335 52.2056C17.1874 52.1677 17.1473 52.1096 17.1135 52.0313C17.0682 52.0684 17.0059 52.0664 16.9267 52.0252C16.8476 51.984 16.7639 51.9465 16.6756 51.9128C16.5692 51.7273 16.4701 51.5509 16.3785 51.3836C16.2869 51.2162 16.2073 51.0542 16.1396 50.8976C16.081 50.7336 16.0133 50.5769 15.9365 50.4277C15.8598 50.2785 15.7385 50.1582 15.5727 50.0668C15.6313 50.0643 15.6547 50.0375 15.6432 49.9863C15.6242 49.9262 15.5932 49.8606 15.5503 49.7897C15.5 49.7098 15.4488 49.6381 15.3969 49.5746C15.3375 49.5021 15.2847 49.4469 15.2385 49.409C15.1361 49.099 15.0118 48.7993 14.8658 48.51C14.7213 48.2042 14.5715 47.9103 14.4164 47.6284C14.2703 47.3391 14.1279 47.0542 13.9892 46.774C13.8506 46.4937 13.7449 46.2167 13.6722 45.943C13.7571 45.8432 13.877 45.7677 14.032 45.7165C14.1886 45.6488 14.3065 45.6356 14.3857 45.6767C14.4729 45.3024 14.5033 44.914 14.4767 44.5116C14.4427 44.1002 14.4206 43.6941 14.4105 43.2934C14.4004 42.8927 14.4307 42.5043 14.5015 42.1283C14.5813 41.7449 14.7831 41.3902 15.107 41.0644C15.3997 41.0519 15.7142 41.029 16.0506 40.9959C16.3887 40.9463 16.723 40.9754 17.0537 41.0832C17.1559 41.0601 17.2483 41.0526 17.3307 41.0608C17.4148 41.0525 17.5117 41.0414 17.6214 41.0273L17.755 41.1905C17.9455 41.2011 18.1281 41.2484 18.303 41.3324C18.4795 41.4 18.658 41.4885 18.8386 41.5981C19.0118 41.6986 19.1888 41.8036 19.3694 41.9132C19.5426 42.0137 19.7211 42.1023 19.905 42.1789C19.924 42.239 19.9484 42.2873 19.9781 42.3235C20.0004 42.3507 20.0309 42.3787 20.0697 42.4076C20.1175 42.429 20.1608 42.4541 20.1996 42.483C20.2383 42.5118 20.2792 42.5617 20.3221 42.6326C20.6216 43.0537 20.7537 43.4833 20.7185 43.9211C20.6923 44.3515 20.5828 44.782 20.3901 45.2125C20.19 45.6339 19.9486 46.0512 19.666 46.4645C19.3834 46.8777 19.1444 47.2703 18.9492 47.6422C18.9789 47.6785 19.0074 47.6855 19.0346 47.6632C19.0708 47.6335 19.103 47.6451 19.131 47.6978C19.46 47.6556 19.7214 47.6233 19.9151 47.601C20.1089 47.5786 20.2824 47.5501 20.4358 47.5154C20.5982 47.4732 20.7614 47.4229 20.9255 47.3642C21.0912 47.2891 21.3141 47.1822 21.5944 47.0436C21.8747 46.9049 22.0931 46.8017 22.2498 46.7341C22.408 46.6499 22.5527 46.5768 22.6838 46.5149C22.8074 46.444 22.9311 46.373 23.0547 46.302C23.18 46.2146 23.3543 46.0945 23.5777 45.9419C23.7261 45.9566 23.8758 46.0007 24.0267 46.074C24.1793 46.1308 24.3129 46.2107 24.4276 46.3137C24.5348 46.4077 24.6284 46.5127 24.7085 46.629C24.7811 46.7361 24.8162 46.8437 24.8137 46.9517C24.8451 46.9715 24.8744 46.9702 24.9016 46.948C24.9304 46.9092 24.9667 46.8795 25.0104 46.8588C24.9857 46.9397 24.9774 47.0221 24.9857 47.1062C24.994 47.1903 25.0023 47.2744 25.0106 47.3585C25.0189 47.4426 25.0152 47.5214 24.9996 47.5947C24.9914 47.6772 24.9502 47.7564 24.876 47.8323C24.6841 48.1712 24.3342 48.4654 23.8264 48.7146C23.3261 48.9729 22.6455 49.2425 21.7849 49.5232C21.3545 49.6636 20.998 49.7739 20.7152 49.854C20.4341 49.9176 20.1793 49.9672 19.9509 50.0028C19.7242 50.0219 19.5028 50.029 19.2868 50.0241C19.0798 50.0119 18.8271 49.9992 18.5286 49.9862ZM16.653 43.7289C16.6721 43.9557 16.6665 44.1799 16.6361 44.4017C16.6147 44.6161 16.5971 44.8351 16.5832 45.0585C16.5709 45.2655 16.5826 45.4831 16.6181 45.7115C16.6463 45.9308 16.7239 46.1551 16.851 46.3842C17.1386 46.0881 17.399 45.7309 17.6321 45.3128C17.8578 44.8856 18.0728 44.4823 18.2771 44.1029C18.0107 43.8515 17.7253 43.7065 17.4211 43.6679C17.1259 43.6219 16.8699 43.6422 16.653 43.7289ZM26.1931 40.119C26.1742 40.2254 26.1755 40.3379 26.197 40.4566C26.2111 40.5663 26.2289 40.6805 26.2504 40.7992C26.2867 40.936 26.3148 41.0721 26.3347 41.2073C26.3545 41.3425 26.3533 41.4798 26.3311 41.6191C26.3972 41.7923 26.441 41.9382 26.4625 42.0569C26.4765 42.1666 26.4745 42.3121 26.4565 42.4935C26.6628 42.9304 26.7728 43.4993 26.7863 44.2001C26.8441 44.2891 26.8837 44.393 26.9052 44.5117C26.9283 44.614 26.9469 44.7199 26.961 44.8296C26.9652 44.8716 26.973 44.9182 26.9846 44.9693C26.9887 45.0113 26.9937 45.0451 26.9995 45.0707L27.0837 45.229C27.0977 45.3386 27.0998 45.4429 27.09 45.5419C27.0801 45.6408 27.0711 45.7315 27.0629 45.814C27.0671 45.856 27.065 45.9183 27.0568 46.0007L26.9197 46.2494C26.1836 46.7008 25.4905 46.6776 24.8406 46.1799L24.7428 46.0328C24.7238 45.9726 24.7003 45.9162 24.6722 45.8634C24.6458 45.7941 24.6194 45.7249 24.593 45.6557C24.5253 45.499 24.4621 45.3387 24.4035 45.1746C24.3539 45.0032 24.3382 44.8267 24.3562 44.6453C24.3224 44.567 24.2815 44.4339 24.2336 44.2459C24.1783 44.0489 24.1126 43.7467 24.0365 43.3394C23.9852 43.0179 23.9439 42.7639 23.9125 42.5776C23.881 42.3913 23.8583 42.2433 23.8442 42.1336C23.6347 42.0628 23.4183 42.0205 23.1948 42.0066C22.8913 41.8764 22.6089 41.7442 22.3474 41.61C22.0951 41.4683 21.8794 41.3344 21.7004 41.2083C21.5948 41.0979 21.4995 41.0093 21.4146 40.9426C21.3296 40.8758 21.2409 40.8045 21.1485 40.7287C21.0397 40.6513 20.9353 40.5701 20.8355 40.4852C20.7357 40.4004 20.6413 40.3035 20.5522 40.1947C20.4548 40.1684 20.3757 40.1272 20.3146 40.0712L20.2304 39.9129C20.2057 39.8272 20.1434 39.7418 20.0436 39.657C19.9363 39.563 19.8246 39.4728 19.7083 39.3863C19.6159 39.3105 19.5115 39.2293 19.3952 39.1428C19.288 39.0488 19.1944 38.9438 19.1143 38.8275C19.0343 38.7113 18.9798 38.5893 18.9509 38.4615C18.9236 38.3172 18.9392 38.1606 18.9977 37.9915L19.2177 37.7886C19.3364 37.7671 19.4506 37.7493 19.5603 37.7352C19.6716 37.7047 19.782 37.6824 19.8917 37.6683C20.0286 37.6319 20.1609 37.5993 20.2887 37.5704C20.4165 37.5415 20.5599 37.5224 20.719 37.5133L20.9702 37.6257L21.2695 37.6305L21.392 37.7801C21.4308 37.8089 21.4761 37.8551 21.5281 37.9185C21.6246 38.0364 21.7022 38.0941 21.7607 38.0916L21.9488 38.2102C22.0527 38.3371 22.1665 38.4484 22.2903 38.544C22.4066 38.6305 22.5192 38.7125 22.628 38.7899C22.7369 38.8674 22.8495 38.9494 22.9658 39.0359C23.0821 39.1224 23.1832 39.2366 23.269 39.3783C23.3011 39.3066 23.3204 39.2377 23.327 39.1718C23.3303 39.1388 23.3373 39.1103 23.348 39.0864C23.3587 39.0625 23.3657 39.0341 23.369 39.0011L23.2803 37.256L23.1417 37.1423L23.2046 36.6364C23.2177 36.5045 23.23 36.3808 23.2415 36.2654C23.262 36.1425 23.2653 36.0262 23.2512 35.9166L23.3117 35.6853C23.2306 34.9943 23.4129 34.3754 23.8587 33.8286L24.0268 33.6454L24.226 33.7777C24.3439 33.8477 24.4907 33.879 24.6663 33.8715C24.851 33.8565 25.0365 33.8333 25.2229 33.8019L25.4121 33.7833C25.5317 33.8368 25.61 33.8862 25.6471 33.9316C25.6843 33.9769 25.7131 34.0214 25.7338 34.0651L25.8996 34.1566C26.0052 34.4335 26.0445 34.6665 26.0174 34.8553C25.9993 35.0367 25.9739 35.209 25.941 35.3723C25.9188 35.5117 25.8974 35.6428 25.8768 35.7656C25.8579 35.872 25.8675 35.9854 25.9055 36.1057L25.8994 36.2925C25.7981 36.5572 25.7945 36.8025 25.8886 37.0284L25.9814 37.225L25.8183 37.3586C25.8092 37.3661 25.8014 37.4028 25.7948 37.4687C25.7899 37.5182 25.8077 37.6324 25.8482 37.8113C25.859 37.9539 25.8619 38.05 25.857 38.0995C25.852 38.1489 25.8479 38.1902 25.8447 38.2232C25.8653 38.2668 25.8814 38.3142 25.893 38.3654C25.9062 38.4 25.9223 38.4474 25.9413 38.5076C25.9199 38.722 25.9217 38.872 25.9464 38.9578C25.9638 39.0344 25.984 39.1239 26.0072 39.2261C26.0303 39.3283 26.0534 39.4306 26.0766 39.5328C26.1014 39.6185 26.1072 39.7274 26.0941 39.8593L26.1931 40.119ZM36.9038 35.1641C36.8725 35.3109 36.8961 35.4506 36.9745 35.5833C37.0455 35.707 37.1119 35.8343 37.1738 35.9654C37.2357 36.0965 37.2638 36.2325 37.2581 36.3735C37.254 36.498 37.1622 36.6263 36.9825 36.7583C36.9834 36.8333 36.9966 36.8679 37.0221 36.8621C37.0567 36.8489 37.1128 36.8712 37.1904 36.9288C37.0486 37.0147 36.9653 37.098 36.9406 37.1788C36.916 37.2596 36.8702 37.3425 36.8035 37.4275C36.543 37.5348 36.2734 37.5662 35.9947 37.5219C35.7176 37.461 35.443 37.3754 35.1708 37.265C34.9078 37.1472 34.65 37.0175 34.3977 36.8758C34.1543 36.7267 33.9288 36.6085 33.721 36.5212C33.6913 36.4849 33.6982 36.4565 33.7419 36.4358C33.7691 36.4135 33.7963 36.3913 33.8235 36.369C33.7039 36.3155 33.5905 36.2417 33.4833 36.1478C33.3596 36.0522 33.2363 35.9941 33.1134 35.9736C32.916 35.1961 32.7181 34.3812 32.5198 33.5287C32.3141 32.6672 32.1046 31.8011 31.8915 30.9305C31.68 30.0434 31.4639 29.1601 31.2433 28.2804C31.0244 27.3842 30.803 26.5128 30.5791 25.6661C30.9072 25.5489 31.2411 25.4572 31.5808 25.3911C31.9221 25.3085 32.2593 25.2671 32.5924 25.2669C32.9255 25.2667 33.2492 25.3198 33.5634 25.426C33.8792 25.5157 34.1712 25.678 34.4393 25.9128C34.4657 25.9821 34.4579 26.0188 34.4158 26.0229C34.3738 26.0271 34.3585 26.0547 34.3701 26.1058C34.46 26.1231 34.5161 26.1453 34.5383 26.1725C34.5623 26.1832 34.5808 26.2059 34.594 26.2405C34.5998 26.2661 34.6176 26.297 34.6473 26.3333C34.677 26.3695 34.7405 26.4008 34.8378 26.4272C34.785 26.4552 34.7607 26.4903 34.7648 26.5323C34.7616 26.5653 34.7298 26.5913 34.6697 26.6103C34.8189 26.7001 34.9142 26.7887 34.9555 26.8761C34.9968 26.9634 35.0252 27.0537 35.041 27.1469C35.0492 27.231 35.0695 27.3204 35.1017 27.4152C35.1355 27.4935 35.2189 27.5768 35.3516 27.6649C35.3154 27.6946 35.2956 27.726 35.2923 27.759C35.2907 27.7754 35.2928 27.7965 35.2985 27.822C35.3043 27.8476 35.3056 27.8769 35.3023 27.9098C35.3007 27.9263 35.278 27.9449 35.2343 27.9655C35.4546 28.179 35.6604 28.4118 35.8518 28.664C36.0358 28.9072 36.2272 29.1594 36.426 29.4206C36.6175 29.6729 36.8254 29.9267 37.0498 30.1822C37.2742 30.4377 37.5332 30.68 37.8268 30.9091C38.031 30.3631 38.1025 29.8123 38.0412 29.2566C37.989 28.6935 37.849 28.1341 37.6211 27.5785C37.4023 27.0154 37.1213 26.4504 36.778 25.8832C36.4438 25.3087 36.1022 24.7251 35.7531 24.1325C35.7712 23.951 35.748 23.7655 35.6836 23.5759C35.6282 23.3789 35.5556 23.1885 35.4656 23.0046C35.3847 22.8134 35.2993 22.6259 35.2093 22.442C35.121 22.2417 35.0611 22.0484 35.0297 21.8621C35.2077 21.7465 35.3846 21.685 35.5602 21.6775C35.7375 21.6535 35.9168 21.6505 36.0982 21.6686C36.2722 21.6776 36.447 21.6783 36.6226 21.6708C36.7982 21.6633 36.9788 21.6063 37.1642 21.4999C37.4397 21.5772 37.7023 21.6575 37.9522 21.7407C38.1946 21.8147 38.4194 21.9412 38.6264 22.12C38.6463 22.2552 38.6872 22.3884 38.7491 22.5194C38.811 22.6505 38.8683 22.7853 38.9212 22.9238C38.9831 23.0549 39.024 23.188 39.0438 23.3232C39.0637 23.4584 39.0497 23.5986 39.002 23.7437C39.1975 24.038 39.3646 24.3253 39.5033 24.6055C39.642 24.8858 39.7814 25.1578 39.9217 25.4216C40.062 25.6854 40.2143 25.9545 40.3785 26.229C40.5427 26.5035 40.7482 26.7821 40.9948 27.0648C41.1286 27.3945 41.2607 27.7408 41.3911 28.1035C41.5141 28.4572 41.6495 28.7704 41.7972 29.0433C41.7364 29.3203 41.7377 29.5994 41.8014 29.8806C41.865 30.1617 41.9241 30.4465 41.9787 30.7351C41.963 30.8085 41.9432 30.8398 41.9193 30.8291C41.888 30.8094 41.8323 30.8246 41.7524 30.875C41.8283 30.9491 41.8547 31.0184 41.8316 31.0827C41.8102 31.1306 41.8667 31.1903 42.0012 31.262C41.9064 31.4607 41.8484 31.6673 41.8271 31.8817C41.8058 32.0961 41.7634 32.3125 41.7 32.5311C41.6457 32.7422 41.5382 32.9438 41.3775 33.136C41.2185 33.3117 40.9448 33.4677 40.5565 33.6039C39.845 33.6414 39.1379 33.5918 38.4353 33.4553C37.7328 33.3188 37.0396 33.0458 36.3559 32.6363C36.2875 32.7378 36.2678 32.8524 36.2967 32.9802C36.3256 33.108 36.3628 33.2366 36.4082 33.366C36.4536 33.4955 36.4916 33.6158 36.5222 33.7271C36.5527 33.8384 36.5317 33.9238 36.4592 33.9832C36.5079 34.0796 36.5347 34.1864 36.5398 34.3035C36.5464 34.404 36.5568 34.5092 36.5708 34.6188C36.5775 34.7194 36.6006 34.8216 36.6402 34.9255C36.6889 35.022 36.7768 35.1015 36.9038 35.1641ZM49.6094 20.0776C49.6894 20.1938 49.7839 20.2907 49.8927 20.3681C50.0016 20.4456 50.115 20.5193 50.233 20.5894C50.3526 20.6429 50.4713 20.7047 50.5893 20.7747C50.7072 20.8447 50.8161 20.9222 50.9159 21.0071C51.038 21.1191 51.1531 21.2597 51.2612 21.4286C51.3618 21.5885 51.4489 21.7596 51.5224 21.9418C51.5884 22.1149 51.6334 22.2901 51.6574 22.4673C51.674 22.6355 51.6547 22.7877 51.5995 22.9237C51.6063 23.1909 51.5561 23.444 51.449 23.6832C51.3419 23.9224 51.2633 24.1685 51.2132 24.4217C51.1654 24.5668 51.0892 24.705 50.9846 24.8361C50.889 24.9599 50.7889 25.0873 50.6842 25.2184C50.629 25.3545 50.5594 25.51 50.4754 25.6848C50.384 25.8506 50.288 26.0201 50.1875 26.1933C50.0796 26.3574 49.9642 26.5125 49.8414 26.6585C49.7112 26.7954 49.588 26.9039 49.4718 26.9839C49.2815 27.3064 49.066 27.5889 48.8253 27.8315C48.6012 28.0756 48.2872 28.3025 47.8832 28.5122C47.594 28.8248 47.2791 29.0599 46.9387 29.2176C46.6073 29.3678 46.2697 29.455 45.9259 29.4791C45.5837 29.4867 45.2419 29.4485 44.9005 29.3645C44.5608 29.2641 44.2408 29.1324 43.9406 28.9692C43.4448 28.5119 43.0805 28.0301 42.8478 27.524C42.6076 27.0088 42.4424 26.4927 42.3523 25.9757C42.2638 25.4423 42.2285 24.9183 42.2464 24.4038C42.2569 23.8803 42.2657 23.3732 42.2729 22.8826C42.3421 22.8561 42.3829 22.8227 42.3953 22.7823C42.4092 22.7254 42.415 22.6677 42.4125 22.6092C42.4026 22.5416 42.3963 22.4785 42.3938 22.4199C42.4004 22.354 42.4226 22.2979 42.4605 22.2517C42.4126 22.0637 42.4216 21.8898 42.4875 21.7298C42.555 21.5533 42.5731 21.3719 42.5416 21.1856C42.6084 21.1006 42.6541 21.0177 42.6788 20.9369C42.7035 20.8561 42.72 20.7744 42.7282 20.692C42.7454 20.6021 42.7664 20.5168 42.7911 20.4359C42.8084 20.3461 42.8459 20.2623 42.9035 20.1848L42.781 20.0352C42.8848 19.829 42.9358 19.6509 42.9341 19.5008C42.934 19.3343 42.9327 19.1385 42.9301 18.9134C43.0043 18.8375 43.064 18.781 43.1094 18.7438C43.1638 18.6993 43.2334 18.6271 43.3183 18.5273C43.2869 18.341 43.2724 18.1938 43.2748 18.0858C43.2863 17.9704 43.3212 17.8281 43.3797 17.659C43.533 17.6243 43.6806 17.5641 43.8224 17.4783C43.9732 17.385 44.1394 17.3474 44.3208 17.3655C44.4041 17.4487 44.4907 17.499 44.5806 17.5162C44.663 17.5244 44.75 17.5289 44.8415 17.5297C44.9256 17.5214 45.0089 17.5214 45.0914 17.5296C45.1829 17.5304 45.2711 17.5641 45.3561 17.6309C45.3998 17.6102 45.4187 17.5871 45.4129 17.5616C45.4162 17.5286 45.4397 17.5018 45.4834 17.4812C45.6145 17.5858 45.7168 17.6459 45.7902 17.6616C45.8562 17.6681 45.9556 17.7155 46.0883 17.8037C46.1173 17.9314 46.159 18.0563 46.2134 18.1783C46.2696 18.2839 46.2709 18.3964 46.2173 18.516C46.2602 18.5869 46.3081 18.6083 46.3608 18.5802C46.4062 18.5431 46.4519 18.5435 46.4981 18.5814C46.574 18.6556 46.6087 18.7256 46.6021 18.7916C47.1093 18.967 47.6123 19.1836 48.1113 19.4414C48.6028 19.6902 49.1022 19.9023 49.6094 20.0776ZM48.9676 22.7618C48.9221 22.6324 48.9007 22.5136 48.9031 22.4056C48.9146 22.2902 48.8729 22.1653 48.778 22.0309C48.6732 21.9955 48.6015 21.9634 48.5627 21.9346C48.5165 21.8967 48.4563 21.8324 48.3821 21.7417C47.9524 21.624 47.5351 21.4659 47.1302 21.2674C46.7178 21.0598 46.3059 20.8898 45.8944 20.7572C45.906 20.8083 45.9039 20.8706 45.8883 20.944C45.8727 21.0174 45.8154 21.0491 45.7164 21.0393C45.7577 21.1267 45.7705 21.2071 45.7549 21.2804C45.7318 21.3448 45.6931 21.3992 45.6387 21.4438C45.5769 21.4792 45.5068 21.5139 45.4285 21.5478C45.3518 21.5651 45.276 21.5742 45.2009 21.5751C45.1088 21.9989 45.013 22.4182 44.9134 22.833C44.8138 23.2478 44.7674 23.6721 44.7743 24.1058C44.7528 24.1536 44.7376 24.1812 44.7285 24.1886C44.712 24.187 44.6886 24.2138 44.6581 24.2691C44.7266 24.5007 44.7659 24.7336 44.7759 24.9678C44.7876 25.1855 44.8029 25.4077 44.822 25.6344C44.8411 25.8612 44.8812 26.0858 44.9423 26.3084C45.0034 26.531 45.1186 26.7548 45.2877 26.9798C45.5458 26.9805 45.7902 26.9091 46.021 26.7655C46.2518 26.6219 46.4686 26.452 46.6713 26.2556C46.8831 26.0519 47.0784 25.8464 47.2573 25.6394C47.4377 25.4159 47.6186 25.2298 47.7999 25.0813C48.1065 24.6788 48.3363 24.2937 48.4895 23.9258C48.6353 23.549 48.7946 23.1609 48.9676 22.7618ZM61.5814 17.3842C61.1453 17.499 60.717 17.4939 60.2964 17.3688C59.8849 17.2362 59.4474 17.0719 58.9839 16.8759C58.9122 16.8438 58.8404 16.8117 58.7687 16.7796C58.6969 16.7474 58.6289 16.7198 58.5646 16.6968L58.0846 16.4991L57.7976 16.3706L57.7569 16.6539L57.6903 17.072L57.6657 17.3193C57.6082 17.73 57.5462 18.1443 57.4796 18.5624C57.4146 18.964 57.3167 19.3623 57.1858 19.7573C57.0565 20.1358 56.8869 20.502 56.6768 20.8558C56.4684 21.1931 56.1956 21.5074 55.8585 21.7986L55.4368 21.8941C55.1903 21.9445 54.9784 21.9817 54.8011 22.0057C54.6239 22.0297 54.3951 22.0278 54.1147 21.9999C54.0026 21.9554 53.8986 21.9117 53.803 21.8689C53.7164 21.8187 53.6252 21.7721 53.5296 21.7293C53.2814 21.6296 53.0661 21.5333 52.8838 21.4402C52.7016 21.3471 52.5045 21.2359 52.2925 21.1066C52.2157 20.9574 52.082 20.7109 51.8914 20.3672C51.6933 20.0144 51.4821 19.6269 51.2576 19.2049C51.0422 18.7754 50.8268 18.3459 50.6114 17.9165C50.3976 17.4705 50.2246 17.0744 50.0926 16.7282C49.9811 16.4256 49.8676 16.102 49.752 15.7574C49.6454 15.4054 49.562 15.0724 49.5016 14.7582C49.4429 14.4276 49.423 14.1259 49.4418 13.8529C49.4532 13.5709 49.5294 13.3495 49.6703 13.1887C49.7676 13.215 49.8546 13.2195 49.9313 13.2021C50.0079 13.1848 50.0764 13.1666 50.1366 13.1476C50.412 13.225 50.6606 13.2789 50.8824 13.3093C51.1133 13.3322 51.3623 13.3404 51.6295 13.3336C51.7698 13.5974 51.9097 13.907 52.0492 14.2623C52.1903 14.6011 52.3262 14.9518 52.4566 15.3146C52.5887 15.6608 52.7171 16.0025 52.8418 16.3397C52.9664 16.6769 53.0795 16.9629 53.1811 17.1979C53.2529 17.3965 53.3486 17.6059 53.4683 17.826C53.6614 18.2283 53.9593 18.7492 54.362 19.3889C54.4486 19.2726 54.5181 19.1171 54.5708 18.9225C54.6235 18.7279 54.6679 18.5325 54.7041 18.3362C54.751 18.116 54.7867 17.8823 54.8114 17.6349C54.8425 17.3215 54.8577 17.0441 54.8567 16.8025C54.8558 16.5609 54.8421 16.3222 54.8156 16.0864C54.7981 15.8432 54.7695 15.5864 54.7298 15.3159C54.6827 15.0364 54.6322 14.7067 54.5785 14.3266C54.5362 13.9976 54.4874 13.6513 54.432 13.2877C54.3782 12.9077 54.3311 12.5449 54.2905 12.1994C54.2515 11.8375 54.2266 11.5019 54.2158 11.1927C54.2049 10.8835 54.2138 10.6263 54.2426 10.4209C54.3894 10.4522 54.5506 10.4641 54.7262 10.4566C54.9109 10.4416 55.0853 10.4049 55.2493 10.3462C55.3705 10.3833 55.4835 10.4195 55.5883 10.4549C55.6946 10.4738 55.7928 10.4919 55.8826 10.5092C56.0039 10.5462 56.1168 10.5825 56.2216 10.6179C56.3354 10.6458 56.4446 10.6775 56.5494 10.7129C56.5923 10.7838 56.6455 10.8766 56.7091 10.9911C56.7726 11.1057 56.839 11.2331 56.9084 11.3732C56.9868 11.5059 57.0643 11.6469 57.1411 11.7961C57.2104 11.9362 57.276 12.0718 57.3379 12.2029C57.5476 12.6068 57.7048 12.9097 57.8096 13.1117C57.9144 13.3137 57.9986 13.4719 58.0621 13.5865C58.1348 13.6937 58.1962 13.7872 58.2466 13.8672C58.2985 13.9306 58.3728 14.0213 58.4693 14.1391C58.5345 14.2372 58.6133 14.3242 58.7057 14.4C58.7816 14.4742 58.8702 14.5454 58.9717 14.6138C59.0731 14.6822 59.1762 14.7341 59.281 14.7695L59.4797 13.9024C59.5373 13.6583 59.5524 13.3809 59.525 13.07C59.4993 12.7427 59.4422 12.3956 59.3538 12.0287C59.2671 11.6454 59.1572 11.2431 59.0242 10.8218C58.8913 10.4005 58.7546 9.97472 58.6142 9.54439C58.4111 8.90795 58.2191 8.28512 58.0382 7.67588C57.8664 7.05922 57.7709 6.55424 57.7518 6.16095C58.0552 6.12452 58.3351 6.1149 58.5915 6.13209C58.8496 6.13279 59.0962 6.16565 59.3312 6.23067C59.5662 6.29569 59.7971 6.40194 60.0239 6.54942C60.2598 6.68948 60.5028 6.88436 60.7527 7.13407C60.8494 7.58504 60.958 8.04136 61.0787 8.50304C61.2083 8.95729 61.3425 9.40783 61.4813 9.85465C61.6564 10.4383 61.8224 11.0294 61.9793 11.628C62.1454 12.2191 62.2739 12.8106 62.3649 13.4026C62.4484 13.9855 62.4825 14.5635 62.4671 15.1365C62.4443 15.7005 62.3353 16.2518 62.1402 16.7903C62.0182 16.8447 61.9209 16.9017 61.8484 16.9611C61.7033 17.0799 61.6143 17.2209 61.5814 17.3842ZM61.3622 1.63622C61.429 1.71782 61.4971 1.82869 61.5665 1.96882C61.6448 2.10153 61.7232 2.23424 61.8016 2.36695C61.88 2.49966 61.9646 2.61217 62.0553 2.70447C62.1387 2.78771 62.2277 2.81323 62.3225 2.78102C62.5529 3.39518 62.77 3.89144 62.9738 4.2698C63.1867 4.64073 63.393 4.99436 63.5927 5.33067C63.7941 5.65048 63.9967 5.99957 64.2005 6.37793C64.4044 6.75629 64.6177 7.24802 64.8407 7.85311C64.9785 8.2249 65.0232 8.52913 64.9747 8.7658C64.9187 8.99339 64.8092 9.17402 64.646 9.30767C64.4828 9.44133 64.2779 9.53336 64.0314 9.58378C63.7849 9.6342 63.5446 9.66441 63.3104 9.67442C63.1421 9.52444 62.9668 9.31963 62.7845 9.05999C62.6038 8.78386 62.4202 8.49496 62.2337 8.19327C62.0472 7.89159 61.8718 7.6035 61.7076 7.32901C61.536 7.04546 61.3887 6.81013 61.2657 6.62302C61.2747 6.44904 61.2713 6.31547 61.2556 6.2223C61.2399 6.12914 61.2069 6.04258 61.1566 5.96263C61.1153 5.87525 61.0546 5.77345 60.9746 5.65723C60.8946 5.54101 60.791 5.36832 60.6639 5.13916C60.6004 5.02459 60.5208 4.94588 60.4251 4.90305C60.3311 4.84373 60.2634 4.77038 60.2222 4.683C60.2106 4.63189 60.2155 4.58242 60.2369 4.53458C60.2674 4.47932 60.2686 4.42532 60.2406 4.37256C60.1803 4.225 60.1151 4.12691 60.045 4.0783C59.9675 4.02062 59.9105 3.92335 59.8742 3.7865C59.8601 3.67685 59.8217 3.51897 59.7589 3.31287C59.6978 3.09027 59.5876 2.90027 59.4284 2.74287C59.458 2.61258 59.4757 2.47693 59.4814 2.33594C59.4871 2.19494 59.5002 2.06301 59.5208 1.94014C59.543 1.80079 59.5808 1.67132 59.6344 1.55173C59.697 1.42473 59.7963 1.30553 59.9323 1.19415C60.0865 1.23448 60.2188 1.28512 60.3294 1.34609C60.4399 1.40705 60.5421 1.46719 60.6362 1.52651C60.7393 1.5784 60.8477 1.61834 60.9615 1.64632C61.0753 1.67429 61.2089 1.67093 61.3622 1.63622ZM66.3533 10.4768C66.4308 10.5345 66.5001 10.5914 66.5612 10.6474C66.6222 10.7035 66.687 10.764 66.7554 10.8291C66.857 11.0641 66.9391 11.2846 67.0019 11.4907C67.0267 11.5764 67.0419 11.6321 67.0477 11.6576C67.0535 11.6832 67.0601 11.7005 67.0675 11.7096C67.075 11.7186 67.0906 11.7285 67.1146 11.7392C67.131 11.7409 67.1653 11.7734 67.2173 11.8369L67.2829 12.0558C67.2896 12.1564 67.276 12.2508 67.2422 12.339C67.2175 12.4198 67.1846 12.4998 67.1434 12.579C67.1311 12.6194 67.1105 12.659 67.0816 12.6978C67.0693 12.7382 67.0615 12.7749 67.0582 12.8078L67.151 13.0045L66.9829 13.1876C66.8676 13.3427 66.751 13.4684 66.6331 13.565L66.4835 13.6875C66.293 13.6769 66.1438 13.6703 66.0358 13.6679C65.9278 13.6655 65.8144 13.675 65.6957 13.6965C65.4549 13.606 65.2734 13.5046 65.1513 13.3926C65.0367 13.2895 64.9509 13.231 64.894 13.2171L64.5477 13.1826L64.6106 12.9265L64.2358 12.8018C64.2778 12.6311 64.3111 12.5054 64.3358 12.4245C64.3605 12.3437 64.3761 12.2703 64.3827 12.2044C64.3909 12.1219 64.3917 12.0304 64.385 11.9298C64.3784 11.8292 64.3655 11.6656 64.3465 11.4388L64.3241 11.1618L64.5652 11.1233C64.6328 11.1134 64.7367 11.0738 64.8768 11.0044C65.0186 10.9186 65.1423 10.8476 65.2478 10.7915C65.43 10.7181 65.6002 10.6392 65.7585 10.5551C65.9184 10.4544 66.0688 10.4069 66.2098 10.4126L66.3533 10.4768Z" fill="#9CA3AF"/>
</svg>
