<svg width="18" height="13" viewBox="0 0 18 13" fill="none" xmlns="http://www.w3.org/2000/svg">
<path d="M5.60708 12.647C12.3354 12.647 16.0149 7.78181 16.0149 3.56292C16.0149 3.42475 16.0116 3.2872 16.0045 3.15023C16.7204 2.6981 17.3383 2.13827 17.8292 1.49697C17.1737 1.75128 16.4684 1.92245 15.7286 1.99963C16.4837 1.60433 17.0635 0.97911 17.3371 0.233733C16.619 0.605548 15.8334 0.867641 15.0143 1.00872C14.3468 0.388145 13.3965 0 12.3442 0C10.3241 0 8.68604 1.42981 8.68604 3.19227C8.68604 3.44281 8.71817 3.68652 8.78093 3.92025C5.74074 3.78673 3.04492 2.51629 1.24073 0.58449C0.915779 1.07169 0.74485 1.62545 0.745405 2.18919C0.745405 3.29686 1.3912 4.27472 2.37322 4.84678C1.79235 4.83131 1.22421 4.69437 0.716568 4.44746C0.716029 4.46088 0.716029 4.47393 0.716029 4.48824C0.716029 6.03445 1.97692 7.32542 3.65068 7.61795C3.33632 7.69269 3.01194 7.73048 2.68613 7.73032C2.45539 7.73019 2.22519 7.7109 1.99864 7.67273C2.46434 8.94129 3.81473 9.86442 5.41575 9.89022C4.16377 10.7467 2.58663 11.2568 0.872541 11.2568C0.577645 11.2568 0.28634 11.2422 0 11.2127C1.6189 12.1184 3.5412 12.6468 5.60726 12.6468" fill="#292929"/>
</svg>
