<svg width="676" height="447" viewBox="0 0 676 447" fill="none" xmlns="http://www.w3.org/2000/svg">
<path d="M370.145 70.4289C295.75 69.373 204.948 65.5366 205.089 82.1143C205.229 98.692 211.144 317.652 211.426 321.875C211.708 326.099 298.707 324.198 332.155 325.817C365.603 327.472 498.374 326.838 500.205 315.645C502.071 304.488 501.155 75.1453 495.1 72.5408C489.044 69.9362 388.559 70.6753 370.145 70.4289Z" fill="#3CA184"/>
<path d="M485.84 137.021C468.693 137.127 454.504 86.7603 437.393 89.3649C404.896 94.3276 417.782 171.127 372.434 196.363C348.175 209.879 328.106 228.815 302.017 238.036C276.773 246.941 248.254 254.403 221.953 245.568C217.341 244.02 213.081 242.014 209.102 239.691C210.299 283.757 211.32 320.186 211.426 321.875C211.708 326.099 298.708 324.198 332.155 325.817C365.603 327.472 498.374 326.838 500.205 315.645C501.437 308.148 501.437 202.03 499.465 132.481C495.1 132.516 490.206 136.986 485.84 137.021Z" fill="#2C8469"/>
<path d="M294.94 84.1909C353.351 83.487 411.691 84.6133 470.102 86.4435C479.221 86.7251 488.34 87.0419 497.459 87.3234C496.79 78.3482 495.98 72.9631 495.1 72.576C489.044 69.9714 388.559 70.7105 370.145 70.429C295.75 69.373 204.948 65.5366 205.089 82.1143C205.089 82.7127 205.089 83.5926 205.124 84.7189C235.051 85.0356 265.013 84.5429 294.94 84.1909Z" fill="#2C8469"/>
<path d="M371.096 166.727C370.885 162.328 371.025 148.355 371.131 134.839C371.237 121.57 371.378 107.878 371.166 104.992L232.586 106.611L232.868 149.587H231.741L231.46 105.52L372.117 103.901L372.223 104.359C372.504 105.731 372.434 116.818 372.293 134.91C372.187 148.39 372.046 162.363 372.258 166.727H371.096Z" fill="#FFE266"/>
<path d="M385.39 125.125L385.496 116.396L386.024 116.361C396.023 115.974 407.114 116.009 417.853 116.044C428.556 116.079 439.646 116.114 449.61 115.727L449.646 116.854C439.646 117.241 428.556 117.206 417.817 117.17C407.29 117.135 396.411 117.1 386.588 117.487L386.517 123.999L445.139 123.928V125.054L385.39 125.125Z" fill="#FFE266"/>
<path d="M404.121 145.257L403.84 134.804L447.322 134.487V135.613L405.001 135.93L405.248 144.026C418.733 142.23 432.394 142.09 445.914 143.498L445.808 144.624C432.182 143.181 418.381 143.357 404.825 145.222L404.121 145.257Z" fill="#FFE266"/>
<path d="M224.488 82.5014C225.756 82.7478 227.164 82.3607 228.08 81.4807C229.03 80.6008 229.453 79.1929 229.136 77.9259C228.326 74.7933 224.77 75.1805 222.728 76.8348C220.58 78.6298 221.883 82.0087 224.488 82.5014Z" fill="#FFB0D8"/>
<path d="M240.086 82.5014C241.353 82.7478 242.761 82.3607 243.677 81.4807C244.627 80.6008 245.05 79.1929 244.733 77.9259C243.923 74.7933 240.367 75.1805 238.325 76.8348C236.177 78.6298 237.48 82.0087 240.086 82.5014Z" fill="#FFB0D8"/>
<path d="M255.19 81.7271C256.457 81.9735 257.866 81.5863 258.781 80.7064C259.732 79.8265 260.154 78.4186 259.837 77.1516C259.028 74.019 255.472 74.4062 253.43 76.0605C251.282 77.8555 252.585 81.2696 255.19 81.7271Z" fill="#FFB0D8"/>
<path d="M329.55 104.957C329.127 99.748 329.55 94.4332 329.55 94.3628L329.585 93.8701H330.078C333.247 93.7997 361.132 93.0605 363.35 93.9053L363.702 94.0461V104.253H362.575V94.8908C359.548 94.4332 342.331 94.6796 330.606 94.9964C330.536 96.4394 330.325 100.733 330.641 104.922L329.55 104.957Z" fill="#FFE266"/>
<path d="M283.885 343.029C250.05 342.395 169.246 340.389 161.747 340.882C154.213 341.339 116.504 363.865 122.032 363.971C127.595 364.076 536.258 363.513 541.821 360.275C547.384 357.072 560.622 344.19 556.609 343.838C552.595 343.486 305.644 343.416 283.885 343.029Z" fill="#0000EF"/>
<path d="M294.342 345.88C266.879 345.387 201.321 343.873 195.23 344.12C189.139 344.366 158.614 357.107 163.12 357.178C167.627 357.248 499.184 358.656 503.69 356.861C508.197 355.066 518.865 347.71 515.626 347.499C512.352 347.287 311.981 346.196 294.342 345.88Z" fill="#0000C9"/>
<path d="M310.502 134.698L382.574 207.133L304.411 251.657L283.92 222.55L271.914 154.021L310.502 134.698Z" fill="white"/>
<path d="M240.438 210.935C234.593 204.283 228.643 194.709 228.608 194.603L228.467 194.357L228.573 194.075L264.978 112.665L284.307 130.58L283.533 131.39L265.365 114.531L229.699 194.251C230.685 195.8 236.001 204.212 241.283 210.16L240.438 210.935Z" fill="#A8E4F4"/>
<path d="M287.335 124.878C276.526 129.419 273.674 139.098 271.914 154.021L310.502 134.698C310.502 134.698 298.531 120.162 287.335 124.878Z" fill="#A8E4F4"/>
<path d="M266.457 120.408C268.745 120.162 270.717 118.789 271.527 117.065C272.477 115.023 271.668 112.419 269.379 111.152C260.542 106.224 256.105 121.5 266.457 120.408Z" fill="#A8E4F4"/>
<path d="M488.199 338.981C490.699 349.47 492.811 359.043 496.437 357.002C498.585 355.805 497.705 339.157 497.705 339.157L488.199 338.981Z" fill="#F4A914"/>
<path d="M470.278 341.409C471.58 352.25 473.024 358.761 476.474 358.726C480.347 358.691 477.566 340.037 477.566 340.037L470.278 341.409Z" fill="#F4A914"/>
<path d="M305.925 333.631C305.256 353.693 307.826 356.685 310.432 355.734C313.037 354.819 315.326 336.376 315.326 336.376L305.925 333.631Z" fill="#F4A914"/>
<path d="M341.063 211.498C406.339 205.972 495.452 208.189 506.014 217.587C516.577 226.984 531.399 337.573 507.88 341.585C484.396 345.598 305.714 351.335 295.75 336.06C285.786 320.784 283.145 265.49 293.743 263.378C304.341 261.301 321.839 261.02 321.839 261.02C321.839 261.02 314.763 213.715 341.063 211.498Z" fill="#FFE266"/>
<path d="M489.361 212.73C498.268 224.486 501.93 232.968 505.275 253.734C506.19 259.542 509.535 265.595 514.042 269.608C515.556 270.981 517.246 271.825 518.971 272.283C516.365 246.202 510.803 221.775 506.049 217.587C503.761 215.546 497.775 213.856 489.185 212.483C489.22 212.589 489.29 212.659 489.361 212.73Z" fill="#F4A914"/>
<path d="M489.537 247.891C487.389 243.034 483.833 238.811 479.502 235.748C470.7 229.483 459.363 225.964 448.906 223.817C438.238 221.635 425.211 220.403 415.564 226.492C406.128 232.405 400.213 243.844 402.889 254.896C403.98 259.471 398.734 261.935 395.671 260.034C391.129 263.765 386.165 266.792 380.426 268.517C379.299 268.833 377.011 269.115 376.095 270.03C374.863 271.262 374.934 274.43 374.652 275.978C372.469 288.157 362.47 294.246 351.062 296.674C344.584 298.047 337.93 298.504 331.346 299.349C323.705 300.37 316.03 301.391 308.355 301.954C303.038 302.341 297.722 302.446 292.476 302.13C293.497 314.836 299.517 327.507 302.792 339.755C318.459 344.436 357.012 346.02 396.657 345.985C396.798 345.809 396.939 345.598 397.115 345.422C406.867 335.461 429.999 332.857 436.126 345.492C441.9 345.351 447.568 345.175 452.99 344.999C457.145 342.993 461.616 340.213 463.764 336.376C466.123 332.117 465.419 326.592 464.609 322.016C462.814 311.95 460.208 302.376 460.384 292.028C460.525 284.707 462.567 277.844 468.764 273.479C472.672 270.734 477.249 269.397 481.826 268.235C484.924 267.426 489.114 266.862 490.769 263.765C493.093 259.366 491.403 252.15 489.537 247.891Z" fill="#F4A914"/>
<path d="M427.181 310.268L332.323 312.49L332.35 313.616L427.208 311.394L427.181 310.268Z" fill="#FFE266"/>
<path d="M357.646 261.583C355.182 275.873 345.64 265.736 334.831 268.517C324.022 271.333 324.057 284.883 327.332 285.235C330.606 285.587 331.17 283.123 331.17 283.123C331.17 283.123 332.261 284.813 334.55 285.376C336.838 285.939 338.246 282.455 338.246 282.455C338.246 282.455 338.106 285.411 341.274 285.482C344.443 285.552 343.422 280.624 346.943 282.068C350.464 283.475 359.583 289.881 365.287 281.821C371.025 273.796 357.646 261.583 357.646 261.583Z" fill="#3DB5C9"/>
<path d="M337.296 284.144C336.944 281.328 337.754 278.407 339.514 276.155L340.394 276.858C338.845 278.83 338.106 281.504 338.423 284.003L337.296 284.144Z" fill="#00007F"/>
<path d="M330.36 283.299C329.585 281.012 329.973 278.407 331.381 276.471L332.296 277.14C331.099 278.794 330.782 281.012 331.451 282.947L330.36 283.299Z" fill="#00007F"/>
<path d="M344.69 278.689C346.978 282.068 344.584 284.531 347.823 285.059C349.584 285.341 350.217 280.097 349.161 277.703C348.105 275.345 344.69 278.689 344.69 278.689Z" fill="#3DB5C9"/>
<path d="M344.443 280.624L343.633 278.513L344.654 278.125L345.499 280.202L344.443 280.624Z" fill="#00007F"/>
<path d="M412.078 190.873C420.564 191.048 426.197 191.119 426.197 191.119C426.197 191.119 412.325 185.734 406.551 185.417C400.741 185.135 412.078 190.873 412.078 190.873Z" fill="#0000EF"/>
<path d="M432.182 302.13C432.182 302.13 431.232 257.958 428.415 230.61C428.38 228.744 428.239 226.844 427.993 225.049C427.676 222.444 427.218 219.875 426.584 217.305C426.584 217.305 426.584 217.305 426.584 217.27C424.014 206.5 418.768 196.328 410.318 189.324C399.826 180.665 383.841 178.026 372.328 185.241C365.251 189.711 360.569 197.243 357.928 205.198C355.569 212.413 356.52 221.951 352.506 228.392C348.95 234.129 343.845 238.353 345.605 245.991C346.767 251.2 350.675 255.459 355.287 258.134L358.703 300.863L432.182 302.13Z" fill="#53CAF1"/>
<path d="M430.316 255.635C430.316 255.564 430.316 255.494 430.316 255.423C430.175 252.995 430.035 250.601 429.859 248.208C429.859 248.138 429.859 248.032 429.823 247.962C429.647 245.604 429.507 243.245 429.33 240.958C429.33 240.852 429.33 240.782 429.295 240.676C429.19 239.55 429.119 238.423 429.014 237.297V237.262C428.908 236.171 428.838 235.08 428.732 234.024C428.732 233.918 428.732 233.848 428.697 233.742C428.591 232.686 428.485 231.63 428.38 230.61C428.38 230.61 428.38 230.61 428.38 230.574C428.38 229.835 428.309 229.131 428.274 228.427C428.239 227.97 428.204 227.548 428.169 227.09C428.098 226.386 428.063 225.717 427.957 225.013C427.64 222.409 427.183 219.839 426.549 217.27C426.549 217.27 426.549 217.27 426.549 217.235C423.979 206.465 418.733 196.293 410.283 189.289C405.002 184.924 398.312 182.073 391.517 181.264C398.84 188.69 412.677 207.345 409.895 241.309C409.015 252.15 391.798 254.86 381.905 255.107C370.004 255.423 356.273 254.473 346.344 248.243C347.999 252.396 351.379 255.811 355.287 258.063L358.703 300.792L432.147 302.059C432.182 302.13 431.689 278.865 430.316 255.635Z" fill="#3DB5C9"/>
<path d="M412.078 190.873C409.226 178.096 378.208 173.767 366.589 181.792C361.414 185.347 363.174 188.972 364.934 191.999C380.637 191.295 396.375 191.26 412.078 190.873Z" fill="#0000EF"/>
<path d="M392.855 259.014C383.278 260.598 373.56 261.055 363.913 260.316C361.026 260.105 358.245 259.718 355.428 259.084L358.738 300.863L432.182 302.13C432.182 302.13 431.549 271.649 429.718 245.639C418.31 252.186 405.952 256.832 392.855 259.014Z" fill="#E04136"/>
<path d="M430.985 267.989C430.281 268.306 429.612 268.622 428.908 268.939C428.873 271.508 427.887 273.937 426.267 276.119C426.514 276.682 426.725 277.281 426.866 277.914C427.993 282.314 425.81 287.417 421.514 289.212C414.93 291.923 409.543 284.883 407.536 278.97C399.931 283.229 393.066 288.509 388.066 296.357C387.045 297.941 386.271 299.596 385.637 301.32L432.147 302.13C432.182 302.13 431.83 286.432 430.985 267.989Z" fill="#CC332F"/>
<path d="M372.152 223.711C375.743 225.964 380.602 225.999 384.158 223.676C387.714 221.353 389.651 216.848 388.841 212.694C388.031 208.541 384.44 205.057 380.25 204.458C376.412 203.895 370.955 206.746 368.913 210.372C366.484 214.771 368.279 221.247 372.152 223.711Z" fill="white"/>
<path d="M376.307 204.846C373.314 205.761 370.321 207.873 368.913 210.372C366.448 214.771 368.244 221.247 372.117 223.711C374.687 225.33 377.926 225.788 380.848 225.049C379.37 218.326 378.067 211.533 376.307 204.846Z" fill="#03036D"/>
<path d="M368.455 199.742L367.434 199.285C369.124 195.519 372.891 192.844 376.976 192.421C381.06 192.034 385.285 193.935 387.679 197.314L386.764 197.947C384.616 194.885 380.813 193.16 377.081 193.512C373.384 193.899 369.969 196.328 368.455 199.742Z" fill="#00007F"/>
<path d="M367.997 189.148C366.8 185.206 367.786 182.777 371.448 183.094C375.074 183.411 380.954 188.479 380.954 188.479C375.99 188.726 371.73 188.937 367.997 189.148Z" fill="#FFB0D8"/>
<path d="M388.418 246.026C388.207 246.026 387.996 246.026 387.785 245.991L387.855 244.864C390.073 245.04 392.326 244.231 393.946 242.682C395.566 241.134 396.481 238.916 396.411 236.734L397.537 236.699C397.608 239.233 396.551 241.767 394.721 243.492C393.031 245.111 390.707 246.026 388.418 246.026Z" fill="#00007F"/>
<path d="M432.182 302.13C432.077 297.836 358.738 300.863 358.738 300.863C358.738 300.863 356.696 309.24 358.562 310.964C360.428 312.689 364.934 313.358 364.934 313.358C381.165 311.985 421.056 312.97 426.443 311.703C430.668 310.718 432.323 309.275 432.182 302.13Z" fill="#0000EF"/>
<path d="M364.653 313.78C364.723 313.604 364.829 313.463 364.97 313.358C365.11 313.393 366.378 311.95 366.765 311.95C370.04 312.302 371.87 310.507 371.906 307.409C371.976 303.89 369.195 301.567 365.92 301.215C360.78 300.652 355.991 304.03 353.773 308.5C351.062 313.921 352.435 319.834 354.372 325.254C355.499 328.352 358.386 330.499 361.766 329.619C364.723 328.844 367.258 325.325 366.131 322.227C365.392 320.186 363.737 316.948 364.371 314.66C364.441 314.378 364.582 314.062 364.653 313.78Z" fill="#0000EF"/>
<path d="M398.03 312.654C400.6 310.612 400.284 306.248 398.171 304.066C395.706 301.496 392.15 301.883 389.58 303.925C381.412 310.366 384.369 321.066 388.066 329.02C391.376 336.13 401.974 330.146 398.664 323.072C397.22 319.869 394.685 315.293 398.03 312.654Z" fill="#0000EF"/>
<path d="M364.864 318.848C360.885 319.552 356.942 320.15 352.928 320.608C353.316 322.192 353.809 323.74 354.337 325.254C355.463 328.351 358.35 330.498 361.73 329.618C364.688 328.844 367.223 325.324 366.096 322.227C365.815 321.277 365.286 320.115 364.864 318.848Z" fill="#00007F"/>
<path d="M398.523 322.685C394.545 323.565 390.566 324.48 386.658 325.641C387.116 326.803 387.573 327.929 388.101 328.985C391.411 336.095 402.009 330.111 398.699 323.037C398.629 322.896 398.558 322.79 398.523 322.685Z" fill="#00007F"/>
<path d="M356.273 325.254C352.224 330.815 344.091 330.076 343.774 332.821C343.457 335.567 351.238 334.265 358.139 331.59C365.04 328.915 368.138 328.457 366.202 322.474C364.265 316.49 356.273 325.254 356.273 325.254Z" fill="#00007F"/>
<path d="M388.066 328.985C389.017 333.631 383.313 338.031 380.849 340.635C378.349 343.205 383.595 344.824 390.46 338.347C397.326 331.871 401.34 330.252 399.615 325.747C397.889 321.242 388.066 328.985 388.066 328.985Z" fill="#00007F"/>
<path d="M397.96 270.03C387.714 267.989 374.898 263.026 371.483 275.662C368.385 287.065 375.919 284.531 376.166 281.223C376.166 281.223 376.448 288.368 382.186 283.335C382.186 283.335 382.363 284.989 384.792 284.848C387.256 284.707 389.123 281.258 391.024 281.856C392.96 282.455 396.27 291.465 408.839 285.27C409.543 284.918 410.177 284.531 410.74 284.179C408.839 278.161 404.086 273.761 397.96 270.03Z" fill="#53CAF1"/>
<path d="M397.608 286.89C400.178 287.805 403.769 287.805 408.839 285.271C409.543 284.919 410.177 284.531 410.74 284.179C409.86 281.399 408.346 278.97 406.41 276.788C402.044 278.478 398.347 282.56 397.608 286.89Z" fill="#3DB5C9"/>
<path d="M374.546 270.03C367.681 273.128 364.371 273.057 365.075 275.275C365.779 277.492 375.532 274.043 375.532 274.043L374.546 270.03Z" fill="#53CAF1"/>
<path d="M418.909 289.916C416.022 289.916 413.064 288.614 411.022 286.361L411.867 285.622C413.874 287.84 416.867 289.036 419.683 288.79C422.606 288.508 425.317 286.608 426.443 284.003C427.605 281.328 426.971 278.02 424.929 276.084L424.296 275.45L425.141 275.134C427.077 274.43 428.556 272.494 428.697 270.417C428.837 268.341 427.676 266.229 425.88 265.243L426.408 264.258C428.626 265.455 429.999 267.989 429.823 270.488C429.647 272.74 428.274 274.782 426.303 275.838C428.239 278.125 428.732 281.539 427.5 284.426C426.197 287.417 423.204 289.564 419.824 289.881C419.472 289.916 419.19 289.916 418.909 289.916Z" fill="#D2F1FC"/>
<path d="M395.143 267.707L394.545 266.757C398.875 264.082 404.192 263.202 409.156 264.364L408.91 265.455C404.227 264.328 399.227 265.173 395.143 267.707Z" fill="#D2F1FC"/>
<path d="M376.201 283.088L375.074 283.053C375.18 279.252 376.835 275.591 379.546 272.952L380.32 273.761C377.821 276.19 376.342 279.604 376.201 283.088Z" fill="#00007F"/>
<path d="M382.468 284.003H381.341C381.341 280.765 382.961 277.492 385.531 275.486L386.235 276.366C383.912 278.161 382.468 281.082 382.468 284.003Z" fill="#00007F"/>
<path d="M372.917 272.406L371.439 275.639L372.463 276.107L373.942 272.874L372.917 272.406Z" fill="#00007F"/>
<path d="M521.717 108.089C508.056 112.419 498.832 117.628 490.452 129.876C483.164 140.541 473.306 152.121 467.531 163.595C470.7 170.071 475.172 176.723 480.312 177.744C490.804 179.821 529.991 174.612 529.991 174.612L544.215 141.562C544.215 141.562 533.336 125.019 521.717 108.089Z" fill="#A8E4F4"/>
<path d="M496.578 130.475C494.818 127.765 491.156 126.497 488.269 128.293C487.143 128.996 478.164 135.367 477.742 135.825C477.707 135.86 476.791 135.508 477.847 138.711C478.833 141.738 482.108 144.026 485.347 142.934C488.48 141.879 491.579 140.541 494.395 138.781C497.106 137.127 498.374 133.29 496.578 130.475Z" fill="#E04136"/>
<path d="M531.083 136.81C525.801 134.628 520.555 132.411 515.274 130.228C512.669 136.458 505.451 140.259 498.761 139.309C492.072 138.359 485.065 112.559 489.748 107.667C494.431 102.81 501.402 100.381 508.162 100.839C512.915 101.191 517.844 103.092 520.59 106.998C524.006 111.82 520.626 116.924 523.125 121.077C526.329 126.427 529.815 130.369 531.083 136.81Z" fill="#FE673C"/>
<path d="M500.522 104.218C501.402 103.092 502.352 102.036 503.338 100.98C498.233 101.648 493.339 103.936 489.748 107.632C485.065 112.489 482.918 119.81 484.643 126.357C486.333 132.762 491.896 138.112 498.409 139.204C485.84 123.928 496.93 108.723 500.522 104.218Z" fill="#E04136"/>
<path d="M510.028 118.297C514.394 119.705 518.478 119.001 522.104 117.135C521.999 113.897 522.949 110.377 520.555 106.963C517.809 103.056 512.915 101.156 508.127 100.804C505.099 100.593 502.036 100.98 499.149 101.86C500.451 108.512 503.338 116.15 510.028 118.297Z" fill="#E04136"/>
<path d="M500.24 108.688C508.338 113.862 518.513 115.622 527.879 113.475C529.745 113.052 531.646 112.419 533.054 111.152C534.462 109.885 535.307 107.773 534.639 105.978C533.688 103.479 530.519 102.775 527.879 102.423C522.597 101.754 517.316 101.085 512.035 100.417C503.479 99.3255 481.439 97.988 482.425 112.102C482.706 116.431 486.297 120.514 490.875 119.88C493.339 119.529 495.733 117.698 497.283 115.833C497.916 115.023 501.402 109.427 500.24 108.688Z" fill="#00007F"/>
<path d="M510.345 120.338C510.556 121.288 511.295 121.957 512.105 122.168C512.704 122.344 513.408 122.274 514.006 121.957C514.605 121.64 515.098 121.042 515.309 120.338C515.661 119.177 515.098 117.874 514.183 117.346C512.457 116.396 509.746 117.769 510.345 120.338Z" fill="white"/>
<path d="M514.218 117.417C513.337 118.93 512.493 120.479 511.683 122.028C511.824 122.098 511.964 122.168 512.105 122.204C512.704 122.379 513.408 122.309 514.006 121.992C514.605 121.676 515.098 121.077 515.309 120.373C515.626 119.212 515.098 117.945 514.218 117.417Z" fill="#00007F"/>
<path d="M517.07 116.959C516.225 116.114 515.028 115.587 513.795 115.516C512.598 115.446 511.366 115.868 510.415 116.607L509.711 115.727C510.873 114.812 512.387 114.319 513.866 114.39C515.344 114.46 516.788 115.094 517.844 116.15L517.07 116.959Z" fill="#00007F"/>
<path d="M511.295 130.862C509.641 130.756 508.268 129.243 508.303 127.589L509.429 127.624C509.429 128.645 510.345 129.665 511.366 129.736L511.295 130.862Z" fill="#00007F"/>
<path d="M460.067 108.829C459.61 112.137 460.736 115.622 463.025 118.05C465.313 120.479 468.693 121.816 472.038 121.605C470.876 121.746 469.714 121.922 468.693 122.485C467.672 123.048 466.827 124.104 466.898 125.266C466.968 127.131 469.116 128.152 470.947 128.398C475.383 128.961 480.066 127.061 482.847 123.611C484.431 121.64 486.65 117.382 485.593 114.742C484.713 112.489 481.967 112.947 479.96 113.088C472.918 113.545 466.158 112.63 460.067 108.829Z" fill="#00007F"/>
<path d="M512.14 236.03C516.506 235.537 520.837 234.939 525.167 234.376C525.203 230.082 525.414 223.394 525.59 217.129C525.696 213.539 525.766 210.125 525.801 207.415C525.872 197.489 522.914 193.512 512.985 193.899H512.915C512.316 193.935 511.647 193.97 510.979 194.04C510.45 194.146 509.922 194.287 509.324 194.498C496.614 198.968 474.608 212.73 458.553 214.877C475.524 215.792 502.74 209.069 507.845 212.695C511.331 215.193 512.035 227.759 512.14 236.03Z" fill="#00007F"/>
<path d="M525.238 238.67C525.132 238.071 525.132 236.1 525.167 233.355C520.802 233.672 516.436 233.918 512.07 234.165C512.176 238.916 512.07 242.753 512.035 243.351C512 244.97 517.95 246.167 524.71 245.181C531.47 244.16 544.145 245.428 542.983 242.823C541.892 240.183 525.625 240.746 525.238 238.67Z" fill="#3CA184"/>
<path d="M525.167 237.262C525.167 236.312 525.167 234.974 525.167 233.355C520.802 233.672 516.436 233.918 512.07 234.165C512.105 235.502 512.105 236.769 512.105 237.895C516.506 237.825 520.837 237.579 525.167 237.262Z" fill="#FE673C"/>
<path d="M525.801 207.415C525.801 208.964 525.766 210.759 525.731 212.624C528.301 210.371 531.083 208.33 533.934 206.429C531.963 201.044 531.751 187.388 522.386 179.257C509.5 168.065 483.023 183.798 481.685 183.763C481.192 183.763 484.643 178.307 487.952 171.057C475.841 169.508 463.729 167.642 451.547 166.446C449.646 171.021 447.85 175.843 446.125 180.701C437.288 205.69 439.611 215.827 455.807 215.088C456.723 215.053 457.638 214.947 458.589 214.841C474.644 212.694 496.649 198.933 509.359 194.463C509.957 194.251 510.486 194.111 511.014 194.005C511.718 193.864 512.352 193.829 512.95 193.864H513.021C522.879 193.512 525.872 197.489 525.801 207.415Z" fill="#03036D"/>
<path d="M537.385 208.33C535.131 209.597 534.146 207.873 533.336 204.67C530.73 206.641 528.195 208.753 525.731 210.9C525.696 212.835 525.625 214.982 525.59 217.165C526.4 218.784 527.315 220.227 528.477 221.283C528.477 221.283 550.799 208.33 550.236 204.423C549.673 200.481 544.004 204.634 537.385 208.33Z" fill="#2C8469"/>
<path d="M535.096 208.4C534.322 207.802 533.829 206.465 533.371 204.634C530.766 206.605 528.231 208.717 525.766 210.864C525.731 212.518 525.696 214.349 525.625 216.179C528.688 213.504 531.857 210.899 535.096 208.4Z" fill="#FE673C"/>
<path d="M449.751 214.525L448.906 213.786C450.455 211.99 451.441 209.667 451.688 207.309C451.899 205.479 451.688 203.578 451.476 201.748L449.962 188.338L444.153 187.916L444.224 186.79L450.948 187.282L452.568 201.607C452.779 203.508 452.99 205.444 452.779 207.415C452.533 210.019 451.441 212.554 449.751 214.525Z" fill="#53CAF1"/>
<path d="M547.983 144.272C547.525 143.146 545.729 141.562 544.215 141.562C543.3 141.562 529.991 174.612 529.991 174.612L495.663 174.541C495.593 179.328 496.226 182.249 496.226 182.249C496.226 182.249 528.019 181.862 529.287 181.721C530.554 181.581 530.906 175.21 532.068 175.175C533.97 175.14 535.237 175.21 535.237 175.21C535.237 175.21 548.37 145.222 547.983 144.272Z" fill="#3DB5C9"/>
<path d="M472.566 172.289C477.179 172.993 481.756 173.626 486.368 174.26C489.29 168.347 492.635 160.533 493.48 153.493C494.431 145.504 491.72 136.177 481.967 133.924C468.024 130.721 457.708 151.241 442.604 168.276C449.998 169.086 465.278 171.162 472.566 172.289Z" fill="#FFB0D8"/>
<path d="M480.629 156.274C476.228 157.224 471.933 157.928 467.813 159.899C462.884 162.258 458.765 165.672 456.23 170.001C462.321 170.81 468.623 171.69 472.566 172.324C477.179 173.028 481.756 173.661 486.368 174.295C489.22 168.558 492.424 161.096 493.374 154.233C489.079 154.303 484.854 155.359 480.629 156.274Z" fill="#FF94C5"/>
<path d="M518.408 164.334C517.527 163.243 515.943 161.166 512.739 160.181C508.584 158.914 504.43 159.336 500.17 161.448C495.17 163.912 491.966 168.663 487.248 171.373C482.319 174.189 478.129 170.634 477.355 165.46C476.897 162.293 477.531 159.125 478.622 156.098C474.749 155.288 470.947 154.303 467.215 153.036C464.011 163.067 463.729 173.872 473.2 181.053C478.622 185.171 485.488 185.734 491.614 182.812C494.888 181.264 497.67 178.73 500.381 176.336C502.317 174.612 505.627 171.479 508.796 171.585C511.331 174.224 512.035 175.984 512.915 176.864C514.007 177.99 515.45 176.16 515.45 176.16C518.478 177.392 518.337 170.845 518.337 170.845C518.337 170.845 519.253 175.632 520.767 174.224C521.928 173.133 522.492 169.262 518.408 164.334Z" fill="#FE673C"/>
<path d="M469.292 159.195C472.355 158.949 475.277 158.175 478.2 157.33C478.34 156.908 478.446 156.52 478.622 156.098C474.749 155.288 470.947 154.303 467.215 153.036C466.546 155.148 466.017 157.26 465.665 159.407C466.862 159.336 468.095 159.301 469.292 159.195Z" fill="#E04136"/>
<path d="M483.234 180.313C480.066 178.307 476.334 179.081 472.989 180.877C473.059 180.947 473.13 180.982 473.2 181.053C477.425 184.255 482.495 185.276 487.424 184.22C486.192 182.636 484.748 181.299 483.234 180.313Z" fill="#E04136"/>
<path d="M466.158 153.177L465.102 152.825C466.827 147.58 468.623 143.92 470.7 141.386L471.58 142.09C469.574 144.518 467.813 148.144 466.158 153.177Z" fill="#D2F1FC"/>
<path d="M481.228 156.908L480.559 156.837C476.193 156.344 469.609 155.077 465.419 153.529L465.806 152.473C469.714 153.881 475.77 155.113 480.03 155.641C479.854 152.684 479.96 149.305 481.263 144.941L482.319 145.257C480.981 149.798 480.981 153.212 481.157 156.239L481.228 156.908Z" fill="#D2F1FC"/>
<path d="M515.626 176.019L514.535 175.879C514.887 173.309 514.147 170.599 512.528 168.558L513.408 167.854C515.168 170.106 516.013 173.168 515.626 176.019Z" fill="#00007F"/>
<path d="M517.95 172.57C517.915 170.142 517.07 167.713 515.556 165.777L516.436 165.108C518.055 167.22 519.006 169.86 519.041 172.57H517.95Z" fill="#00007F"/>
<path d="M166.887 298.328C165.972 292.099 167.099 286.784 167.099 286.784C167.099 286.784 167.662 288.861 169.528 286.819C171.429 284.778 169.739 274.782 169.739 274.782L166.852 273.761L165.127 263.941C165.127 263.941 213.151 263.906 213.362 264.751C213.609 265.595 213.961 273.163 213.961 273.163C213.961 273.163 220.58 274.043 220.58 274.676C220.58 275.31 220.651 285.763 219.383 286.186C218.151 286.573 212.482 287.523 212.482 287.523L211.989 302.411L166.887 298.328Z" fill="#53CAF1"/>
<path d="M186.71 286.819C186.604 286.819 186.499 286.819 186.393 286.819C179.985 288.861 173.824 293.119 169.352 298.54L211.989 302.446L212.482 287.558C212.482 287.558 213.574 287.382 214.876 287.136C205.511 287.241 196.11 287.417 186.71 286.819Z" fill="#3DB5C9"/>
<path d="M206.004 301.179C218.855 291.676 225.65 284.919 228.22 284.954C232.023 285.024 249.451 289.987 249.451 289.987L228.925 300.37L206.004 301.179Z" fill="#FFB0D8"/>
<path d="M149.811 298.258C141.467 291.606 131.785 283.335 131.785 283.335C131.785 283.335 161.465 278.477 164.705 279.674C167.944 280.871 187.731 299.631 187.731 299.631L149.811 298.258Z" fill="#DD689D"/>
<path d="M149.811 298.258C201.18 298.328 228.925 300.335 228.925 300.335L225.052 355.418C225.052 355.418 156.501 357.424 152.628 356.544C148.755 355.664 149.811 298.258 149.811 298.258Z" fill="#FE7EB2"/>
<path d="M185.055 298.645C174.95 298.434 163.191 298.293 149.811 298.258C149.811 298.258 149.354 324.48 150.234 341.761C168.507 333.807 184.14 319.235 185.055 298.645Z" fill="#DD689D"/>
<path d="M151.584 298.006L151.572 299.133L187.023 299.495L187.035 298.369L151.584 298.006Z" fill="#FFB0D8"/>
<path d="M215.686 286.784H174.563V287.91H215.686V286.784Z" fill="#CC332F"/>
<path d="M168.085 275.556L168.014 274.43C185.301 273.057 202.835 272.775 220.158 273.585L220.123 274.711C202.8 273.937 185.301 274.219 168.085 275.556Z" fill="#CC332F"/>
<path d="M164.735 263.921L164.719 265.047L213.266 265.741L213.282 264.615L164.735 263.921Z" fill="#0000EF"/>
<path d="M200.385 281.688L200.365 282.814L211.455 283.003L211.474 281.877L200.385 281.688Z" fill="#D2F1FC"/>
<path d="M214.519 278.075L185.569 279.292L185.616 280.417L214.566 279.201L214.519 278.075Z" fill="#D2F1FC"/>
<path d="M208.574 165.601C203.187 176.477 213.926 184.643 218.186 180.877C222.446 177.111 222.481 169.614 219.946 166.657C217.271 163.525 214.454 159.09 220.404 158.843C228.854 158.527 231.917 176.231 227.833 183.024C222.446 191.928 216.742 191.084 215.651 199.848C214.56 208.612 220.017 227.125 235.755 227.477C251.493 227.829 246.318 260.773 246.318 260.773C246.318 260.773 205.757 264.751 194.772 236.312C183.823 207.873 189.35 187.705 189.35 187.705C189.35 187.705 181.992 158.984 186.358 156.063C190.688 153.142 192.801 157.928 192.801 157.928C192.801 157.928 192.449 152.473 197.976 153.177C201.673 153.669 201.11 163.349 201.11 163.349C203.68 156.837 215.405 153.775 215.581 159.618C215.721 164.299 210.968 160.779 208.574 165.601Z" fill="#A8E4F4"/>
<path d="M229.206 243.949C221.073 242.33 212.025 245.322 206.004 251.129C222.059 263.167 246.282 260.809 246.282 260.809C246.282 260.809 246.423 259.999 246.564 258.626C243.008 251.517 237.269 245.533 229.206 243.949Z" fill="#53CAF1"/>
<path d="M196.498 181.792C191.991 174.823 190.688 168.241 192.061 159.125L193.153 159.301C191.85 168.135 193.083 174.471 197.448 181.193L196.498 181.792Z" fill="#53CAF1"/>
<path d="M204.208 178.695C201.04 174.436 199.983 168.628 201.427 163.49L202.518 163.806C201.145 168.593 202.131 174.013 205.124 178.026L204.208 178.695Z" fill="#53CAF1"/>
<path d="M201.709 197.666L200.582 197.595V197.419C200.793 193.336 201.11 187.74 204.631 184.784C206.25 183.446 208.363 183.024 210.405 182.601C211.074 182.461 211.743 182.32 212.341 182.179L212.623 183.27C211.989 183.446 211.32 183.587 210.616 183.728C208.715 184.115 206.743 184.502 205.335 185.699C202.166 188.338 201.92 193.442 201.709 197.525V197.666Z" fill="#53CAF1"/>
<path d="M309.622 298.856C309.622 298.856 308.531 292.134 309.411 291.219C310.291 290.304 376.483 289.072 378.736 289.459C380.989 289.846 379.229 299.772 379.229 299.772L309.622 298.856Z" fill="#03036D"/>
<path d="M317.896 291.888C317.896 289.67 317.579 288.72 320.149 288.72C328.846 288.614 330.43 287.91 330.536 289.565C330.641 291.219 331.17 291.993 331.17 291.993L317.896 291.888Z" fill="#03036D"/>
<path d="M345.288 291.817C345.182 288.474 345.288 287.734 345.288 287.734H359.231L360.463 290.374L345.288 291.817Z" fill="#03036D"/>
<path d="M362.047 289.776C361.554 288.297 361.414 287.664 362.047 287.488C362.681 287.312 369.441 287.488 369.441 287.488L370.709 290.339L362.047 289.776Z" fill="#03036D"/>
<path d="M139.777 271.72C127.278 264.892 119.039 250.25 119.321 235.326C119.567 221.212 127.208 206.922 139.214 197.982C150.621 189.5 164.564 185.804 179.457 187.318L179.351 188.444C164.74 186.966 151.079 190.591 139.883 198.897C128.123 207.626 120.694 221.599 120.448 235.361C120.201 249.898 128.194 264.152 140.34 270.769L139.777 271.72Z" fill="#FFE266"/>
<path d="M559.601 154.761L558.932 153.845C566.361 148.425 571.114 139.309 571.29 130.088C571.466 120.866 567.101 111.609 559.883 105.872L560.587 104.992C568.086 110.94 572.593 120.549 572.417 130.088C572.206 139.696 567.312 149.129 559.601 154.761Z" fill="#FFE266"/>
<path d="M272.548 268.306C281.667 268.517 293.461 268.658 293.461 268.658C293.461 268.658 291.595 289.389 293.074 291.43C294.553 293.471 303.39 292.345 303.355 293.788C303.32 295.231 303.285 298.716 303.285 298.716C303.285 298.716 263.323 297.801 263.675 298.997C264.027 300.194 262.232 294.316 263.746 294.211C265.26 294.105 274.026 294.633 274.062 292.732C274.062 290.796 272.548 268.306 272.548 268.306Z" fill="#0000EF"/>
<path d="M292.828 277.668C293.109 272.846 293.497 268.658 293.497 268.658C293.497 268.658 281.702 268.517 272.583 268.306C272.583 268.306 273.146 276.436 273.569 283.335C279.906 281.153 286.244 279.006 292.828 277.668Z" fill="#03036D"/>
<path d="M334.726 202.065C334.726 202.065 328.987 202.206 320.149 202.382C319.938 214.49 322.79 226.809 322.966 238.846C323.142 250.707 322.755 262.217 322.684 274.078C330.254 273.832 335.324 273.867 335.711 273.515C337.366 271.896 334.726 202.065 334.726 202.065Z" fill="#0000EF"/>
<path d="M232.445 203.755C261.105 203.473 329.127 202.171 329.127 202.171C329.127 202.171 331.099 271.79 329.444 273.374C327.79 274.958 238.853 275.38 238.044 274.536C237.234 273.726 229.136 203.79 232.445 203.755Z" fill="#00007F"/>
<path d="M255.859 203.473C246.916 203.614 238.712 203.72 232.41 203.79C231.037 203.79 231.636 215.898 232.868 230.082C243.747 224.345 252.796 215.053 255.859 203.473Z" fill="#03036D"/>
<path d="M264.45 236.065C263.253 236.065 262.02 236.065 260.753 236.065C258.64 236.065 260.014 242.154 262.232 242.154C262.865 242.154 265.647 242.154 269.309 242.119C267.619 240.113 265.999 238.107 264.45 236.065Z" fill="#A8E4F4"/>
<path d="M292.159 237.614C290.715 237.192 283.04 236.453 271.491 236.136C271.703 236.417 271.914 236.664 272.125 236.945C273.569 238.67 275.048 240.359 276.561 242.049C284.871 242.014 293.602 241.943 293.602 241.943C293.602 241.943 294.025 238.177 292.159 237.614Z" fill="#A8E4F4"/>
<path d="M262.302 305.473C251.916 343.627 248.184 356.333 251.317 356.016C254.451 355.734 269.203 305.579 269.203 305.579L262.302 305.473Z" fill="#A8E4F4"/>
<path d="M440.421 306.424C448.167 332.153 458.201 360.31 461.722 359.641C465.243 358.973 448.66 305.051 448.66 305.051L440.421 306.424Z" fill="#A8E4F4"/>
<path d="M245.296 297.484C269.485 297.237 472.496 298.856 473.622 300.933C474.749 303.01 478.974 307.48 466.862 308.993C454.751 310.471 380.004 305.825 337.12 306.776C294.236 307.726 242.339 310.471 238.149 305.086C233.959 299.666 237.515 297.554 245.296 297.484Z" fill="white"/>
</svg>
