<svg width="579" height="341" viewBox="0 0 579 341" fill="none" xmlns="http://www.w3.org/2000/svg">
<path d="M-20 33.7025C-20 33.7025 -4.275 28.8575 -0.11 16.66C3.885 4.8025 20.035 0 20.035 0" stroke="#005AFF" stroke-opacity="0.25" stroke-width="2" stroke-miterlimit="10"/>
<path d="M-20 49.0025C-20 49.0025 6.86 42.755 13.83 24.0125C20.545 5.95 47.9575 0 47.9575 0" stroke="#005AFF" stroke-opacity="0.25" stroke-width="2" stroke-miterlimit="10"/>
<path d="M-20 64.345C-20 64.345 17.9525 56.6525 27.8125 31.365C37.205 7.055 75.8375 0 75.8375 0" stroke="#005AFF" stroke-opacity="0.25" stroke-width="2" stroke-miterlimit="10"/>
<path d="M-20 79.645C-20 79.645 29.0875 70.55 41.7525 38.7175C53.865 8.2025 103.76 0 103.76 0" stroke="#005AFF" stroke-opacity="0.25" stroke-width="2" stroke-miterlimit="10"/>
<path d="M-20 94.945C-20 94.945 40.2225 84.4475 55.735 46.0275C70.525 9.35 131.682 0 131.682 0" stroke="#005AFF" stroke-opacity="0.25" stroke-width="2" stroke-miterlimit="10"/>
<path d="M-20 110.287C-20 110.287 51.315 98.345 69.675 53.4225C87.185 10.455 159.605 0 159.605 0" stroke="#005AFF" stroke-opacity="0.25" stroke-width="2" stroke-miterlimit="10"/>
<path d="M-20 125.588C-20 125.588 62.45 112.242 83.6575 60.7325C103.845 11.6025 187.528 0 187.528 0" stroke="#005AFF" stroke-opacity="0.25" stroke-width="2" stroke-miterlimit="10"/>
<path d="M-20 140.888C-20 140.888 73.585 126.14 97.64 68.085C120.505 12.75 215.408 0 215.408 0" stroke="#005AFF" stroke-opacity="0.25" stroke-width="2" stroke-miterlimit="10"/>
<path d="M-20 156.23C-20 156.23 84.6775 140.08 111.58 75.4375C137.207 13.855 243.33 0 243.33 0" stroke="#005AFF" stroke-opacity="0.25" stroke-width="2" stroke-miterlimit="10"/>
<path d="M-20 171.53C-20 171.53 95.8125 153.935 125.563 82.79C153.868 15.0025 271.253 0 271.253 0" stroke="#005AFF" stroke-opacity="0.25" stroke-width="2" stroke-miterlimit="10"/>
<path d="M-20 186.83C-20 186.83 106.947 167.833 139.502 90.1C170.528 16.15 299.175 0 299.175 0" stroke="#005AFF" stroke-opacity="0.25" stroke-width="2" stroke-miterlimit="10"/>
<path d="M-20 202.173C-20 202.173 118.04 181.773 153.485 97.495C187.187 17.255 327.055 0 327.055 0" stroke="#005AFF" stroke-opacity="0.25" stroke-width="2" stroke-miterlimit="10"/>
<path d="M-20 217.472C-20 217.472 129.175 195.67 167.425 104.847C203.847 18.4025 354.978 0 354.978 0" stroke="#005AFF" stroke-opacity="0.25" stroke-width="2" stroke-miterlimit="10"/>
<path d="M-20 232.815C-20 232.815 140.31 209.568 181.407 112.2C220.507 19.55 382.9 0 382.9 0" stroke="#005AFF" stroke-opacity="0.25" stroke-width="2" stroke-miterlimit="10"/>
<path d="M-20 248.115C-20 248.115 151.403 223.465 195.348 119.552C237.168 20.655 410.823 0 410.823 0" stroke="#005AFF" stroke-opacity="0.25" stroke-width="2" stroke-miterlimit="10"/>
<path d="M-20 263.415C-20 263.415 162.538 237.362 209.33 126.862C253.828 21.8025 438.745 0 438.745 0" stroke="#005AFF" stroke-opacity="0.25" stroke-width="2" stroke-miterlimit="10"/>
<path d="M-20 278.757C-20 278.757 173.673 251.26 223.313 134.257C270.488 22.95 466.625 0 466.625 0" stroke="#005AFF" stroke-opacity="0.25" stroke-width="2" stroke-miterlimit="10"/>
<path d="M-20 294.057C-20 294.057 184.765 265.157 237.253 141.567C287.148 24.055 494.548 0 494.548 0" stroke="#005AFF" stroke-opacity="0.25" stroke-width="2" stroke-miterlimit="10"/>
<path d="M-20 309.358C-20 309.358 195.9 279.055 251.235 148.92C303.807 25.2025 522.47 0 522.47 0" stroke="#005AFF" stroke-opacity="0.25" stroke-width="2" stroke-miterlimit="10"/>
<path d="M-20 324.7C-20 324.7 207.035 292.995 265.175 156.272C320.468 26.35 550.393 0 550.393 0" stroke="#005AFF" stroke-opacity="0.25" stroke-width="2" stroke-miterlimit="10"/>
<path d="M-20 340C-20 340 218.127 306.85 279.157 163.625C337.127 27.455 578.273 0 578.273 0" stroke="#005AFF" stroke-opacity="0.25" stroke-width="2" stroke-miterlimit="10"/>
</svg>
